<?xml version="1.0" encoding="utf-8"?>
<!-- Generator: Adobe Illustrator 28.0.0, SVG Export Plug-In . SVG Version: 6.00 Build 0)  -->
<svg version="1.1" id="Шар_1" xmlns="http://www.w3.org/2000/svg" xmlns:xlink="http://www.w3.org/1999/xlink" x="0px" y="0px"
	 viewBox="0 0 1000 1000" style="enable-background:new 0 0 1000 1000;" xml:space="preserve">
<style type="text/css">
	.st0{fill:#080808;}
	.st1{fill:url(#SVGID_1_);}
	.st2{fill:url(#SVGID_00000000187845955162619530000000953841998357701023_);}
	.st3{fill:#FFFFFF;}
	.st4{fill:#FFFFFF;stroke:#000000;stroke-width:7;stroke-miterlimit:10;}
	.st5{fill:none;stroke:#000000;stroke-width:5;stroke-miterlimit:10;}
</style>
<rect class="st0" width="1000" height="1000"/>
<linearGradient id="SVGID_1_" gradientUnits="userSpaceOnUse" x1="122.5018" y1="413.3297" x2="1076.6428" y2="413.3297" gradientTransform="matrix(0.7762 -0.6305 0.6305 0.7762 -130.8807 440.8317)">
	<stop  offset="0.0822" style="stop-color:#4F599E"/>
	<stop  offset="0.9053" style="stop-color:#080808"/>
</linearGradient>
<path class="st1" d="M225.6,734.74l37.68,46.39c0,0,582.48-385.71,669.49-454.52c158.42-125.26-76.53-445.16-281.72-196.84
	C525.87,281.28,225.6,734.74,225.6,734.74z"/>
<radialGradient id="SVGID_00000176010469307782107970000016914885484519511198_" cx="294.9005" cy="790.6407" r="310.6735" fx="230.4688" fy="810.4228" gradientUnits="userSpaceOnUse">
	<stop  offset="0.5402" style="stop-color:#FFFFFF"/>
	<stop  offset="1" style="stop-color:#8287BE"/>
</radialGradient>
<path style="fill:url(#SVGID_00000176010469307782107970000016914885484519511198_);" d="M717.7,318.74
	C551.32,476.7,280.28,767.33,263.28,781.14c-17,13.81-39.22,14.62-49.62,1.8c-10.41-12.81-5.06-34.39,11.94-48.2
	C242.6,720.94,555.57,442.88,717.7,318.74z"/>
<g>
	<path class="st3" d="M240.36,238.35c0,17.68-14.34,32.02-32.02,32.02c17.68,0,32.02,14.34,32.02,32.02
		c0-17.68,14.34-32.02,32.02-32.02C254.7,270.37,240.36,256.04,240.36,238.35z"/>
</g>
<g>
	<path class="st3" d="M372.77,394.47c0,8.84-7.17,16.01-16.01,16.01c8.84,0,16.01,7.17,16.01,16.01c0-8.84,7.17-16.01,16.01-16.01
		C379.94,410.48,372.77,403.31,372.77,394.47z"/>
</g>
<g>
	<path class="st3" d="M162.49,458.64c0,6.54-5.3,11.84-11.84,11.84c6.54,0,11.84,5.3,11.84,11.84c0-6.54,5.3-11.84,11.84-11.84
		C167.8,470.48,162.49,465.17,162.49,458.64z"/>
</g>
<g>
	<path class="st3" d="M455.18,239c0,10.61-8.6,19.21-19.21,19.21c10.61,0,19.21,8.6,19.21,19.21c0-10.61,8.6-19.21,19.21-19.21
		C463.78,258.21,455.18,249.61,455.18,239z"/>
</g>
<g>
	<path class="st3" d="M351.24,86.71c0,11.89-9.64,21.53-21.53,21.53c11.89,0,21.53,9.64,21.53,21.53c0-11.89,9.64-21.53,21.53-21.53
		C360.88,108.25,351.24,98.61,351.24,86.71z"/>
</g>
<g>
	<path class="st3" d="M715.1,772.3c0-17.68,14.34-32.02,32.02-32.02c-17.68,0-32.02-14.34-32.02-32.02
		c0,17.68-14.34,32.02-32.02,32.02C700.77,740.27,715.1,754.61,715.1,772.3z"/>
</g>
<g>
	<path class="st3" d="M667.07,614.55c0-8.84,7.17-16.01,16.01-16.01c-8.84,0-16.01-7.17-16.01-16.01c0,8.84-7.17,16.01-16.01,16.01
		C659.9,598.54,667.07,605.71,667.07,614.55z"/>
</g>
<g>
	<path class="st3" d="M834.28,550.38c0-6.54,5.3-11.84,11.84-11.84c-6.54,0-11.84-5.3-11.84-11.84c0,6.54-5.3,11.84-11.84,11.84
		C828.98,538.54,834.28,543.84,834.28,550.38z"/>
</g>
<g>
	<path class="st3" d="M574.91,894.37c0-14.94,12.11-27.05,27.05-27.05c-14.94,0-27.05-12.11-27.05-27.05
		c0,14.94-12.11,27.05-27.05,27.05C562.8,867.31,574.91,879.42,574.91,894.37z"/>
</g>
<g>
	<path class="st3" d="M812.75,888.84c0-11.89,9.64-21.53,21.53-21.53c-11.89,0-21.53-9.64-21.53-21.53
		c0,11.89-9.64,21.53-21.53,21.53C803.11,867.31,812.75,876.95,812.75,888.84z"/>
</g>
<g>
	<path class="st3" d="M878.14,265.4c0-17.68,14.34-32.02,32.02-32.02c-17.68,0-32.02-14.34-32.02-32.02
		c0,17.68-14.34,32.02-32.02,32.02C863.81,233.38,878.14,247.72,878.14,265.4z"/>
</g>
<g>
	<path class="st3" d="M765.56,118.74c0-8.84,7.17-16.01,16.01-16.01c-8.84,0-16.01-7.17-16.01-16.01c0,8.84-7.17,16.01-16.01,16.01
		C758.4,102.73,765.56,109.89,765.56,118.74z"/>
</g>
<g>
	<path class="st3" d="M932.78,54.57c0-6.54,5.3-11.84,11.84-11.84c-6.54,0-11.84-5.3-11.84-11.84c0,6.54-5.3,11.84-11.84,11.84
		C927.47,42.73,932.78,48.03,932.78,54.57z"/>
</g>
<g>
	<path class="st3" d="M547.86,113.77c0-14.94,12.11-27.05,27.05-27.05c-14.94,0-27.05-12.11-27.05-27.05
		c0,14.94-12.11,27.05-27.05,27.05C535.74,86.71,547.86,98.83,547.86,113.77z"/>
</g>
<g>
	<path class="st3" d="M744.03,503.85c0-11.89,9.64-21.53,21.53-21.53c-11.89,0-21.53-9.64-21.53-21.53
		c0,11.89-9.64,21.53-21.53,21.53C734.39,482.32,744.03,491.96,744.03,503.85z"/>
</g>
<g>
	<path class="st3" d="M75.39,701.35c-7.86-4.05-10.95-13.7-6.9-21.56c-4.05,7.86-13.7,10.95-21.56,6.9
		c7.86,4.05,10.95,13.7,6.9,21.56C57.87,700.39,67.53,697.3,75.39,701.35z"/>
</g>
<g>
	<path class="st3" d="M249.95,586.73c-13.45-6.93-18.73-23.44-11.81-36.89c-6.93,13.45-23.44,18.73-36.89,11.81
		c13.45,6.93,18.73,23.44,11.81,36.89C219.98,585.09,236.5,579.8,249.95,586.73z"/>
</g>
<g>
	<path class="st3" d="M138.15,155.63c-13.45-6.93-18.73-23.44-11.81-36.89c-6.93,13.45-23.44,18.73-36.89,11.81
		c13.45,6.93,18.73,23.44,11.81,36.89C108.18,153.99,124.7,148.7,138.15,155.63z"/>
</g>
<g>
	<path class="st3" d="M189.56,879.7c-13.28-6.84-18.5-23.16-11.66-36.44c-6.84,13.28-23.16,18.5-36.44,11.66
		c13.28,6.84,18.5,23.16,11.66,36.44C159.97,878.08,176.28,872.86,189.56,879.7z"/>
</g>
<g>
	<path class="st3" d="M463.02,750.14c-10.57-5.45-14.73-18.43-9.28-29c-5.45,10.57-18.43,14.73-29,9.28
		c10.57,5.45,14.73,18.43,9.28,29C439.47,748.84,452.45,744.69,463.02,750.14z"/>
</g>
<rect x="1660.26" y="-13.83" class="st4" width="1000" height="1000"/>
<path class="st5" d="M1865.05,738.59l37.68,46.39c0,0,582.48-385.71,669.49-454.52c158.42-125.26-76.53-445.16-281.72-196.84
	C2165.33,285.13,1865.05,738.59,1865.05,738.59z"/>
<path class="st5" d="M2357.16,322.59c-166.38,157.96-437.42,448.59-454.42,462.39c-17,13.81-39.22,14.62-49.62,1.8
	c-10.41-12.81-5.06-34.39,11.94-48.2C1882.05,724.78,2195.03,446.72,2357.16,322.59z"/>
<g>
	<path class="st5" d="M1879.82,242.2c0,17.68-14.34,32.02-32.02,32.02c17.68,0,32.02,14.34,32.02,32.02
		c0-17.68,14.34-32.02,32.02-32.02C1894.16,274.22,1879.82,259.88,1879.82,242.2z"/>
</g>
<g>
	<path class="st5" d="M2012.23,398.32c0,8.84-7.17,16.01-16.01,16.01c8.84,0,16.01,7.17,16.01,16.01c0-8.84,7.17-16.01,16.01-16.01
		C2019.39,414.33,2012.23,407.16,2012.23,398.32z"/>
</g>
<g>
	<path class="st5" d="M1801.95,462.48c0,6.54-5.3,11.84-11.84,11.84c6.54,0,11.84,5.3,11.84,11.84c0-6.54,5.3-11.84,11.84-11.84
		C1807.25,474.33,1801.95,469.02,1801.95,462.48z"/>
</g>
<g>
	<path class="st5" d="M2094.64,242.85c0,10.61-8.6,19.21-19.21,19.21c10.61,0,19.21,8.6,19.21,19.21c0-10.61,8.6-19.21,19.21-19.21
		C2103.24,262.06,2094.64,253.46,2094.64,242.85z"/>
</g>
<g>
	<path class="st5" d="M1990.69,90.56c0,11.89-9.64,21.53-21.53,21.53c11.89,0,21.53,9.64,21.53,21.53
		c0-11.89,9.64-21.53,21.53-21.53C2000.34,112.1,1990.69,102.46,1990.69,90.56z"/>
</g>
<g>
	<path class="st5" d="M2354.56,776.14c0-17.68,14.34-32.02,32.02-32.02c-17.68,0-32.02-14.34-32.02-32.02
		c0,17.68-14.34,32.02-32.02,32.02C2340.22,744.12,2354.56,758.46,2354.56,776.14z"/>
</g>
<g>
	<path class="st5" d="M2306.53,618.4c0-8.84,7.17-16.01,16.01-16.01c-8.84,0-16.01-7.17-16.01-16.01c0,8.84-7.17,16.01-16.01,16.01
		C2299.36,602.39,2306.53,609.55,2306.53,618.4z"/>
</g>
<g>
	<path class="st5" d="M2473.74,554.23c0-6.54,5.3-11.84,11.84-11.84c-6.54,0-11.84-5.3-11.84-11.84c0,6.54-5.3,11.84-11.84,11.84
		C2468.44,542.39,2473.74,547.69,2473.74,554.23z"/>
</g>
<g>
	<path class="st5" d="M2214.37,898.21c0-14.94,12.11-27.05,27.05-27.05c-14.94,0-27.05-12.11-27.05-27.05
		c0,14.94-12.11,27.05-27.05,27.05C2202.25,871.16,2214.37,883.27,2214.37,898.21z"/>
</g>
<g>
	<path class="st5" d="M2452.21,892.69c0-11.89,9.64-21.53,21.53-21.53c-11.89,0-21.53-9.64-21.53-21.53
		c0,11.89-9.64,21.53-21.53,21.53C2442.57,871.16,2452.21,880.8,2452.21,892.69z"/>
</g>
<g>
	<path class="st5" d="M2517.6,269.25c0-17.68,14.34-32.02,32.02-32.02c-17.68,0-32.02-14.34-32.02-32.02
		c0,17.68-14.34,32.02-32.02,32.02C2503.26,237.23,2517.6,251.57,2517.6,269.25z"/>
</g>
<g>
	<path class="st5" d="M2405.02,122.58c0-8.84,7.17-16.01,16.01-16.01c-8.84,0-16.01-7.17-16.01-16.01c0,8.84-7.17,16.01-16.01,16.01
		C2397.85,106.57,2405.02,113.74,2405.02,122.58z"/>
</g>
<g>
	<path class="st5" d="M2572.23,58.42c0-6.54,5.3-11.84,11.84-11.84c-6.54,0-11.84-5.3-11.84-11.84c0,6.54-5.3,11.84-11.84,11.84
		C2566.93,46.58,2572.23,51.88,2572.23,58.42z"/>
</g>
<g>
	<path class="st5" d="M2187.31,117.62c0-14.94,12.11-27.05,27.05-27.05c-14.94,0-27.05-12.11-27.05-27.05
		c0,14.94-12.11,27.05-27.05,27.05C2175.2,90.56,2187.31,102.68,2187.31,117.62z"/>
</g>
<g>
	<path class="st5" d="M2383.49,507.7c0-11.89,9.64-21.53,21.53-21.53c-11.89,0-21.53-9.64-21.53-21.53
		c0,11.89-9.64,21.53-21.53,21.53C2373.85,486.17,2383.49,495.81,2383.49,507.7z"/>
</g>
<g>
	<path class="st5" d="M1714.85,705.2c-7.86-4.05-10.95-13.7-6.9-21.56c-4.05,7.86-13.7,10.95-21.56,6.9
		c7.86,4.05,10.95,13.7,6.9,21.56C1697.33,704.24,1706.98,701.15,1714.85,705.2z"/>
</g>
<g>
	<path class="st5" d="M1889.4,590.58c-13.45-6.93-18.73-23.44-11.81-36.89c-6.93,13.45-23.44,18.73-36.89,11.81
		c13.45,6.93,18.73,23.44,11.81,36.89C1859.44,588.94,1875.96,583.65,1889.4,590.58z"/>
</g>
<g>
	<path class="st5" d="M1777.6,159.48c-13.45-6.93-18.73-23.44-11.81-36.89c-6.93,13.45-23.44,18.73-36.89,11.81
		c13.45,6.93,18.73,23.44,11.81,36.89C1747.64,157.84,1764.15,152.55,1777.6,159.48z"/>
</g>
<g>
	<path class="st5" d="M1829.02,883.55c-13.28-6.84-18.5-23.16-11.66-36.44c-6.84,13.28-23.16,18.5-36.44,11.66
		c13.28,6.84,18.5,23.16,11.66,36.44C1799.42,881.93,1815.74,876.71,1829.02,883.55z"/>
</g>
<g>
	<path class="st5" d="M2102.48,753.98c-10.57-5.45-14.73-18.43-9.28-29c-5.45,10.57-18.43,14.73-29,9.28
		c10.57,5.45,14.73,18.43,9.28,29C2078.92,752.69,2091.91,748.54,2102.48,753.98z"/>
</g>
</svg>
