<?xml version="1.0" encoding="utf-8"?>
<!-- Generator: Adobe Illustrator 28.0.0, SVG Export Plug-In . SVG Version: 6.00 Build 0)  -->
<svg version="1.1" id="Шар_1" xmlns="http://www.w3.org/2000/svg" xmlns:xlink="http://www.w3.org/1999/xlink" x="0px" y="0px"
	 viewBox="0 0 1000 1000" style="enable-background:new 0 0 1000 1000;" xml:space="preserve">
<style type="text/css">
	.st0{fill:#C4B359;}
	.st1{fill:#D8C884;}
	.st2{fill:#AB8820;}
	.st3{fill:#BA9925;}
	.st4{fill:url(#SVGID_1_);}
	.st5{fill:url(#SVGID_00000110446702601445578950000008719654961705888432_);}
	.st6{fill:url(#SVGID_00000154397222355014999680000001585319465736134062_);}
	.st7{fill:url(#SVGID_00000029740537056216446160000000288681315933104823_);}
	.st8{fill:#1C0D09;}
	.st9{fill:#110400;}
	.st10{fill:url(#SVGID_00000147938022164162518680000003120783272460218753_);}
	.st11{fill:url(#SVGID_00000183969451119320855420000006189385714907834024_);}
	.st12{fill:url(#SVGID_00000114760784282023033370000007057586798514790817_);}
	.st13{fill:url(#SVGID_00000160159949580332229470000007023785551993132441_);}
	.st14{fill:url(#SVGID_00000156564478720816027290000016349676535001406854_);}
	.st15{fill:url(#SVGID_00000032640229616028753070000011383119302874313606_);}
</style>
<rect x="-74.93" y="90.58" class="st0" width="516.5" height="443.38"/>
<path class="st1" d="M97.92,407.43c5.67-18.42-8.57-23.83,17.14-33.34c25.71-9.51,12.19,18.58,41.14,0
	c28.95-18.58-5.28-32.89,21.36-49.49s31.78-23.46,50.64-25.17s-6.74,21.89,29.14,12.84c35.89-9.05,37.71-16.27,66.86-33.41
	s15.43-44.57,41.14-24s70.28,53.14,54.86,88.28s-66.86,84.8-96,85.68s-75.41,22.41-102.86,14.6
	C193.9,435.62,97.92,407.43,97.92,407.43z"/>
<path class="st2" d="M-43.81,201.25c80.9-4.67,164.91-45.12,175.8,0s23.34,63.97,80.9,60.77s163.22,8.86,174.18,26.16
	c10.95,17.3,37.4,26.05,43.62,34.12c6.22,8.07,23.41-7.49,36.6-10.6c13.19-3.11,0.74-18.3,52.08-9.93
	c51.34,8.37,49.78,19.26,80.9,8.37c31.11-10.89,18.67-28.23,71.56-28.89c52.89-0.67,68.45,0.09,82.45-9.62
	c14-9.71,39.18-5.6,48.35-21.59c9.17-15.99,32.49-42.57,62.86-44.13c30.36-1.56,78.59-4.67,86.37-4.67s46.65,18.81,63.97-6.9
	c17.31-25.71-9.52-97.33-6.41-130s16.95-70.01-9.42-87.12c-26.37-17.11-227.05-82.45-429.3-59.12S158.43-36.77,93.09-36.77
	S-31.37-39.89-43.81-5.66S-43.81,201.25-43.81,201.25z"/>
<path class="st3" d="M370.15,269.57c-32.04,13.11-30.59,32.04-29.13,43.7c1.46,11.65-14.57,4.37-34.96,0
	c-20.39-4.37,0-17.48-27.68-4.37c-27.68,13.11-24.76,17.48-27.68,26.22c-2.91,8.74-13.11,5.83-26.22,0s-14.57-16.02-24.76-2.91
	s-7.28,16.02-14.57,23.31s-14.57-30.59-7.28,7.28c7.28,37.87-16.02,27.68,7.28,37.87s33.5,33.5,8.74,34.96
	c-24.76,1.46-27.68-11.65-46.61-21.85s-8.74-27.68-43.7-24.76s-47.88,1.97-38.51,18.46s55.98,22.54,70.55,28.26
	s23.31,8.63,24.76,23.19c1.46,14.57,46.61,14.38-4.37,19.57c-50.98,5.19-54.77-13.93-75.74,0s-31.27,50.89-20.97,50.05
	s96.71,13.29,163.71,7.52c67-5.77,161.68-36.12,221.4-24.59s46.23,22.63,87.93,17.08s-34.04-44.87,136.38-30.31
	c170.42,14.57,237.42,16.26,269.47,13.23c32.04-3.03,62.63-5.94,81.57-26.34c18.94-20.39,32.22-17.48,51.07-32.04
	c18.85-14.57,35.61-10.2,36.69-68.46c1.09-58.26,27.31-72.83-13.48-136.92s-26.22-75.74-50.98-88.85
	c-24.76-13.11-33.5-67-88.85-39.33c-55.35,27.68-49.18,23.87-89.96,41.35s-26.57,63.52-86.29,67.89
	c-59.72,4.37-61.18,13.11-119.44-1.46c-58.26-14.57-77.2-45.15-134.01-23.31s-68.46,43.7-93.22,53.89
	C406.56,268.11,370.15,269.57,370.15,269.57z"/>
<path class="st0" d="M1022.73,476.26c-7.31-1.98-14.14-4.45-40.66-3.46c-26.51,0.99-29.17,0.04-46.84-0.23s-23.86-3.24-36.24-6.7
	s-22.1-2.47-27.4-2.47s-10.61-11.38-19.44-13.35c-8.84-1.98-10.61,0.62-15.91-2.66c-5.3-3.28-4.42-6.24-8.84-5.25
	c-4.42,0.99-8.84-4.95-13.26,2.47c-4.42,7.42-11.49,13.35-15.91,9.4c-4.42-3.96-8.84-7.42-11.49-16.82
	c-2.65-9.4-5.28-5.32-8.82-0.37s-3.56-3.59-8.86-3.09c-5.3,0.49,0.59,1.15-5.3,0.49c-13.26-1.48-8.84-10.39-13.26-1.48
	c-4.42,8.9-0.88,13.35-9.72,11.38c-8.84-1.98-4.42-10.88-15.02-6.92c-10.61,3.96-13.26,5.44-17.68,7.91
	c-4.42,2.47-2.65,3.43-9.72,4.68c-7.07,1.25-6.19-0.6-15.91-2.39c-9.72-1.79-19.44-1.17-21.21,0s-2.65-1.83-7.95,2.39
	c-5.3,4.22-11.49,7.68-22.98,10.65c-11.49,2.97-16.79,8.41-62.75,12.36c-45.96,3.96-92.8,5.93-118.43,3.46
	c-25.63-2.47-34.47-5.93-66.29-8.41c-31.82-2.47-33.59,6.92-57.45,1.48c-23.86-5.44-21.21-10.39-43.31-7.42s-25.63,7.91-37.12,4.95
	c-11.49-2.97-0.88-7.42-28.28-8.41s-23.86-7.42-45.96-0.99s-13.26,12.36-38,7.91c-24.75-4.45-58.33-11.38-67.17-9.89
	c-8.84,1.48-7.07,0-39.77,7.91c-32.7,7.91-24.75,9.4-62.75,11.38c-38,1.98-66.29,1.19-98.99,2.57s-38.89-1.59-38.89,12.76
	s-43.31,29.18-11.49,33.63s1319.54,0,1319.54,0L1022.73,476.26z"/>
<linearGradient id="SVGID_1_" gradientUnits="userSpaceOnUse" x1="485.0547" y1="1229.8673" x2="520.5533" y2="133.9785">
	<stop  offset="0.5598" style="stop-color:#96884E"/>
	<stop  offset="0.7118" style="stop-color:#B57816"/>
</linearGradient>
<path class="st4" d="M-1.9,510.95c16.22-1.54,23.95-1.54,53.3-5.41s55.62,4.63,67.21-3.09s31.67-7.72,31.67-7.72
	s34.73,5.74,37.83,2.1c3.11-3.64,80.36-11.37,87.31-22.18s12.36-21.74,17.77-21.69s14.68-3.03,20.86,5.46s7.72,7.72,15.45,19.31
	s16.22,4.83,22.4,8.21c6.18,3.38,9.27,6.47,16.22,8.01c6.95,1.55,4.63-7.53,43.26-8.01c38.62-0.48,46.35,5.7,63.34,8.01
	c16.99,2.32,21.57-4.63,44.39-1.54c22.82,3.09,48.31,10.81,67.62,3.86c19.31-6.95,28.58-10.62,48.67-10.33
	c20.08,0.29,24.72,8.01,38.62,11.88c13.9,3.86,20.08,7.72,31.67,10.04c11.59,2.32,46.35-18.35,50.98-21.92
	c4.63-3.57,7.72,5.7,16.22-8.21c8.5-13.9,18.54-15.45,20.08-5.41s-4.63,13.9,6.95,20.08c11.59,6.18,4.65,3.37,19.31,6.95
	c14.66,3.58,9.98,23.17,27.78,6.18c17.8-16.99,25.53-26.05,37.11-23.84c11.59,2.21,6.18,20.85,18.54,0.72
	c12.36-20.13-0.77-37.13,20.08-24c20.86,13.13,18.54,18.73,29.35,27.52s-9.27,12.65,23.17,13.42s42.49-19.31,56.39-23.95
	c13.9-4.63,15.61,16.99,22.87,43.26c7.26,26.26-33.68,71.07-67.67,63.34c-33.99-7.72-1027.95-13.9-1027.95-13.9L-1.9,510.95z"/>
<linearGradient id="SVGID_00000060722651230783221770000014790536127835666306_" gradientUnits="userSpaceOnUse" x1="538.5923" y1="1403.6012" x2="433.7224" y2="244.8034">
	<stop  offset="0.5036" style="stop-color:#96884E"/>
	<stop  offset="0.7871" style="stop-color:#754816"/>
</linearGradient>
<path style="fill:url(#SVGID_00000060722651230783221770000014790536127835666306_);" d="M-17.92,546.06
	c6.39-3.09,12.36-6.95,35.53-5.41s25.49,0.07,40.94-0.35s20.86-5.06,31.67-10.46c10.81-5.41,19.31-3.86,23.95-3.86
	c4.63,0,9.27-17.77,16.99-20.86s9.27,0.96,13.9-4.15c4.63-5.12,3.86-9.75,7.72-8.21s7.72-7.72,11.59,3.86
	c3.86,11.59,10.04,20.86,13.9,14.68c3.86-6.18,7.72-11.59,10.04-26.26s5.41-27.04,8.5-19.31s2.32,13.13,6.95,13.9
	c4.63,0.77,0.77,6.95,4.63,0.77s7.72-16.22,11.59-2.32s0.77,20.86,8.5,17.77s3.86-16.99,13.13-10.81
	c9.27,6.18,11.59,8.5,15.45,12.36c3.86,3.86,2.32,5.35,8.5,7.31c6.18,1.96,5.41-0.94,13.9-3.74c8.5-2.8,16.99-1.84,18.54,0
	c1.54,1.84,2.32-2.86,6.95,3.74s10.04,12,20.08,16.64s14.68,13.13,54.85,19.31s81.11,9.27,103.51,5.41
	c22.4-3.86,30.13-9.27,57.94-13.13c27.81-3.86,29.35,10.81,50.21,2.32c20.86-8.5,18.54-16.22,37.85-11.59s22.4,12.36,32.44,7.72
	c10.04-4.63,0.77-11.59,24.72-13.13c23.95-1.54,20.86-11.59,40.17-1.54c19.31,10.04,11.59,19.31,33.22,12.36
	c21.63-6.95,50.98-17.77,58.71-15.45c7.72,2.32,6.18,0,34.76,12.36c28.58,12.36,21.63,14.68,54.85,17.77
	c33.22,3.09,57.94,1.86,86.52,4.02s33.99-2.48,33.99,19.93c0,22.4,37.85,45.58,10.04,52.53c-27.81,6.95-1153.33,0-1153.33,0
	L-17.92,546.06z"/>
<linearGradient id="SVGID_00000002384902135665182460000016462994935573382792_" gradientUnits="userSpaceOnUse" x1="422.0009" y1="1963.8718" x2="509.5678" y2="376.7553">
	<stop  offset="0.4576" style="stop-color:#96884E"/>
	<stop  offset="0.8222" style="stop-color:#492B1A"/>
</linearGradient>
<path style="fill:url(#SVGID_00000002384902135665182460000016462994935573382792_);" d="M-210.25,636.77
	c54.03,1.08,44.3-12.97,94.01-19.45c49.71-6.48,186.94-43.22,206.39-34.58c19.45,8.64,34.58,8.64,41.06,3.24
	c6.48-5.4,11.89-2.16,22.69,1.08c10.81,3.24,21.61-9.1,34.58-5.63s19.45,7.79,27.01,9.95c7.56,2.16-9.73,15.13,22.69,6.48
	c32.42-8.64,39.98-5.4,46.46-1.08s10.81,8.64,15.13,6.48c4.32-2.16,4.32-2.16,4.32-2.16s19.45-8.64,23.77-4.32
	c4.32,4.32,3.24,11.89,12.97,7.56c9.73-4.32,9.73-7.56,18.37-8.64s4.32,3.24,12.97,2.16s18.37-18.37,30.26-9.73
	c11.89,8.64,16.21,9.73,19.45,10.81c3.24,1.08,8.64,4.32,17.29,5.4s-9.73-11.89,36.74-4.32c46.46,7.56,47.55,6.77,51.87,8.79
	c4.32,2.02,11.89,1.23,18.37,0c6.48-1.23,11.89-0.94,20.53,0c8.64,0.94,17.29,5.55,27.01,0c9.73-5.55-4.32-10.95,21.61-7.71
	c25.93,3.24,18.37,8.64,39.98,3.24s12.97-7.56,54.03-2.16c41.06,5.4,56.19,3.24,67-3.24s19.45-1.08,36.74,1.08
	c17.29,2.16-4.32-3.24,38.9-7.56c43.22-4.32,35.66-3.24,71.32-3.24c35.66,0,34.58-6.48,49.71,2.16
	c15.13,8.64,12.97,24.06,35.66,17.43c22.69-6.63,20.53-5.55,46.46-13.11c25.93-7.56,29.18-5.4,52.95-7.56
	c23.77-2.16,21.61-4.94,49.71-7.33c28.09-2.39,31.34-11.66,49.71,0c18.37,11.66,61.59,435.24,61.59,435.24H-320.47L-210.25,636.77z"
	/>
<linearGradient id="SVGID_00000150093377912318985860000006002241419379058577_" gradientUnits="userSpaceOnUse" x1="868.4382" y1="2183.3616" x2="852.4841" y2="666.6299" gradientTransform="matrix(1 0 0 -0.5932 0 1573.6953)">
	<stop  offset="0.6394" style="stop-color:#1E0D05"/>
	<stop  offset="1" style="stop-color:#A09567"/>
</linearGradient>
<path style="fill:url(#SVGID_00000150093377912318985860000006002241419379058577_);" d="M189.35,1006.05
	c144.82,41,113.78,50.84,191.37,47.56c77.58-3.28,113.78-24.6,201.71-24.6s124.13-2.7,165.51,1.11s263.77,2.17,310.32-17.51
	c46.55-19.68,191.37-62.31,274.12-67.23c82.75-4.92,108.61,3.28,237.91-9.84s305.15-57.79,320.67-64.15s10.34-42.44-356.87-49
	c-269.63-4.82-755.25-20.63-1068.53-20.97c-25.43-0.03-92.78,14.48-115.12,14.47c-77.23-0.06-293.99-36.14-320.64-36.14
	c-129.3,0-290.41,50.84-161.11,98.39C-2.01,925.7,189.35,1006.05,189.35,1006.05z"/>
<path class="st8" d="M641.82,673.79c80.02-38.19,62.87-47.35,105.74-44.3c42.87,3.05,62.87,22.91,111.46,22.91
	c48.58,0,68.59,2.51,91.45-1.04c22.86-3.55,145.75-2.02,171.47,16.31s105.74,58.04,151.47,62.63c45.73,4.58,60.02-3.05,131.46,9.16
	c71.45,12.22,168.61,53.82,177.19,59.75s5.72,39.53-197.19,45.64s-671.6,6.11-743.05,6.11s-248.64-13.75-177.19-58.04
	C536.08,748.64,641.82,673.79,641.82,673.79z"/>
<path class="st9" d="M-210.61,760.39c42.97-27.04,81.01-41.75,86.25-34.13c13.1,19.05,26.68-40.15,55.49-48.09
	c47.13-13,37.74-36.27,77.42-20.35c10.52,4.22-1.69,38.75,17.7,49.4c42.55,23.37,93.64-13.5,118.63-4.29
	c29.34,10.82,80.54,48.34,94.66,38.03c36.93-26.96,38.44,21.2,65.11,31.96c17.78,7.18,67.75-0.92,91.19,25.39
	c22.05,24.75,18.96,58.9,38.46,83.16c32.33,40.21,82.48,62.81,112.61,70.27c48.32,11.96,66.82,101.65,24.67,103.15
	c-42.15,1.49-173.74-26.91-295.04-28.4s-378.57,68.76-436.01,16.44c-57.44-52.32-84.17-62.79-80.06-134.54
	C-235.41,836.63-210.61,760.39-210.61,760.39z"/>
<linearGradient id="SVGID_00000115513870569248373460000008919642694097827767_" gradientUnits="userSpaceOnUse" x1="399.4695" y1="896.414" x2="543.2797" y2="-378.7261">
	<stop  offset="0.5373" style="stop-color:#AB8820"/>
	<stop  offset="0.7871" style="stop-color:#754816"/>
</linearGradient>
<path style="fill:url(#SVGID_00000115513870569248373460000008919642694097827767_);" d="M1.46,84.83
	c61.69,1.67,146.34,55.23,204.7,80.24s91.85-29.12,201.89-19.12c92.28,8.39,169.93-64.25,219.96-45.91
	c50.02,18.34,82.09,8.13,133.78-0.21s5-28.35,76.7-65.03s233.43,37.43,255.11-44.55c21.68-81.97,165.07-117.19-120.05-140.53
	S76.5-171.95-38.55-138.6S-146.93,43.14-111.92,46.48C-76.9,49.81,1.46,84.83,1.46,84.83z"/>
<rect x="1947.83" y="62.03" class="st0" width="516.5" height="443.38"/>
<path class="st1" d="M2212.01,407.43c5.67-18.42-8.57-23.83,17.14-33.34c25.71-9.51,12.19,18.58,41.14,0
	c28.95-18.58-5.28-32.89,21.36-49.49c26.64-16.6,31.78-23.46,50.64-25.17s-6.74,21.89,29.14,12.84
	c35.89-9.05,37.71-16.27,66.86-33.41s15.43-44.57,41.14-24c25.71,20.57,70.28,53.14,54.86,88.28c-15.43,35.14-66.86,84.8-96,85.68
	s-75.41,22.41-102.86,14.6C2307.98,435.62,2212.01,407.43,2212.01,407.43z"/>
<path class="st2" d="M2073.97,144.41c80.9-4.67,164.91-45.12,175.8,0s23.34,63.97,80.9,60.77c57.56-3.21,163.22,8.86,174.18,26.16
	s37.4,26.05,43.62,34.12c6.22,8.07,23.41-7.49,36.6-10.6c13.19-3.11,0.74-18.3,52.08-9.93c51.34,8.37,49.78,19.26,80.9,8.37
	c31.11-10.89,18.67-28.23,71.56-28.89s68.45,0.09,82.45-9.62c14-9.71,39.18-5.6,48.35-21.59c9.17-15.99,32.49-42.57,62.86-44.13
	s78.59-4.67,86.37-4.67c7.78,0,46.65,18.81,63.97-6.9c17.31-25.71-9.52-97.33-6.41-130c3.11-32.67,16.95-70.01-9.42-87.12
	c-26.37-17.11-227.05-82.45-429.3-59.12s-412.27,45.12-477.61,45.12s-124.46-3.11-136.9,31.11
	C2061.52-28.28,2073.97,144.41,2073.97,144.41z"/>
<path class="st3" d="M2852.32,228.68c-32.04,13.11-30.59,32.04-29.13,43.7s-14.57,4.37-34.96,0c-20.39-4.37,0-17.48-27.68-4.37
	c-27.68,13.11-24.76,17.48-27.68,26.22c-2.91,8.74-13.11,5.83-26.22,0c-13.11-5.83-14.57-16.02-24.76-2.91
	c-10.2,13.11-7.28,16.02-14.57,23.31c-7.28,7.28-14.57-30.59-7.28,7.28s-16.02,27.68,7.28,37.87s33.5,33.5,8.74,34.96
	s-27.68-11.65-46.61-21.85c-18.94-10.2-8.74-27.68-43.7-24.76s-47.88,1.97-38.51,18.46c9.37,16.49,55.98,22.54,70.55,28.26
	s23.31,8.63,24.76,23.19s46.61,14.38-4.37,19.57c-50.98,5.19-54.77-13.93-75.74,0s-31.27,50.89-20.97,50.05
	c10.3-0.84,96.71,13.29,163.71,7.52s161.68-36.12,221.4-24.59c59.72,11.53,46.23,22.63,87.93,17.08
	c41.7-5.55-34.04-44.87,136.38-30.31c170.42,14.57,237.42,16.26,269.47,13.23c32.04-3.03,62.63-5.94,81.57-26.34
	c18.94-20.39,32.22-17.48,51.07-32.04s35.61-10.2,36.69-68.46c1.09-58.26,27.31-72.83-13.48-136.92s-26.22-75.74-50.98-88.85
	s-33.5-67-88.85-39.33c-55.35,27.68-49.18,23.87-89.96,41.35s-26.57,63.52-86.29,67.89c-59.72,4.37-61.18,13.11-119.44-1.46
	c-58.26-14.57-77.2-45.15-134.01-23.31s-68.46,43.7-93.22,53.89S2852.32,228.68,2852.32,228.68z"/>
<path class="st0" d="M3426.82,476.26c-7.31-1.98-14.14-4.45-40.66-3.46c-26.51,0.99-29.17,0.04-46.84-0.23s-23.86-3.24-36.24-6.7
	c-12.37-3.46-22.1-2.47-27.4-2.47c-5.3,0-10.61-11.38-19.44-13.35s-10.61,0.62-15.91-2.66s-4.42-6.24-8.84-5.25
	s-8.84-4.95-13.26,2.47c-4.42,7.42-11.49,13.35-15.91,9.4c-4.42-3.96-8.84-7.42-11.49-16.82c-2.65-9.4-5.28-5.32-8.82-0.37
	c-3.54,4.95-3.56-3.59-8.86-3.09c-5.3,0.49,0.59,1.15-5.3,0.49c-13.26-1.48-8.84-10.39-13.26-1.48c-4.42,8.9-0.88,13.35-9.72,11.38
	c-8.84-1.98-4.42-10.88-15.02-6.92c-10.61,3.96-13.26,5.44-17.68,7.91c-4.42,2.47-2.65,3.43-9.72,4.68s-6.19-0.6-15.91-2.39
	c-9.72-1.79-19.44-1.17-21.21,0c-1.77,1.17-2.65-1.83-7.95,2.39c-5.3,4.22-11.49,7.68-22.98,10.65
	c-11.49,2.97-16.79,8.41-62.75,12.36c-45.96,3.96-92.8,5.93-118.43,3.46c-25.63-2.47-34.47-5.93-66.29-8.41
	c-31.82-2.47-33.58,6.92-57.45,1.48c-23.86-5.44-21.21-10.39-43.31-7.42s-25.63,7.91-37.12,4.95c-11.49-2.97-0.88-7.42-28.28-8.41
	c-27.4-0.99-23.86-7.42-45.96-0.99c-22.1,6.43-13.26,12.36-38,7.91c-24.75-4.45-58.33-11.38-67.17-9.89
	c-8.84,1.48-7.07,0-39.77,7.91c-32.7,7.91-24.75,9.4-62.75,11.38c-38,1.98-66.29,1.19-98.99,2.57c-32.7,1.38-38.89-1.59-38.89,12.76
	s-43.31,29.18-11.49,33.63s1319.54,0,1319.54,0L3426.82,476.26z"/>
<linearGradient id="SVGID_00000044170011556097920480000009408378218850156957_" gradientUnits="userSpaceOnUse" x1="3240.2063" y1="1226.8407" x2="3275.7048" y2="130.952">
	<stop  offset="0.5598" style="stop-color:#96884E"/>
	<stop  offset="0.7118" style="stop-color:#B57816"/>
</linearGradient>
<path style="fill:url(#SVGID_00000044170011556097920480000009408378218850156957_);" d="M2753.25,507.93
	c16.22-1.54,23.95-1.54,53.3-5.41s55.62,4.63,67.21-3.09s31.67-7.72,31.67-7.72s34.73,5.74,37.83,2.1
	c3.11-3.64,80.36-11.37,87.31-22.18s12.36-21.74,17.77-21.69s14.68-3.03,20.86,5.46c6.18,8.5,7.72,7.72,15.45,19.31
	c7.72,11.59,16.22,4.83,22.4,8.21s9.27,6.47,16.22,8.01s4.64-7.53,43.26-8.01s46.35,5.7,63.34,8.01
	c16.99,2.32,21.57-4.63,44.39-1.54s48.31,10.81,67.62,3.86c19.31-6.95,28.58-10.62,48.67-10.33c20.08,0.29,24.72,8.01,38.62,11.88
	s20.08,7.72,31.67,10.04s46.35-18.35,50.98-21.92c4.64-3.57,7.73,5.7,16.22-8.21s18.54-15.45,20.08-5.41
	c1.55,10.04-4.63,13.9,6.95,20.08c11.59,6.18,4.65,3.37,19.31,6.95s9.98,23.17,27.78,6.18c17.8-16.99,25.52-26.05,37.11-23.84
	s6.18,20.85,18.54,0.72s-0.77-37.13,20.08-24c20.86,13.13,18.54,18.73,29.35,27.52c10.81,8.79-9.27,12.65,23.17,13.42
	s42.49-19.31,56.39-23.95c13.91-4.63,15.61,16.99,22.87,43.26c7.26,26.26-33.68,71.07-67.67,63.34s-1027.95-13.9-1027.95-13.9
	L2753.25,507.93z"/>
<linearGradient id="SVGID_00000095340128152031226200000001567204086812714390_" gradientUnits="userSpaceOnUse" x1="3560.2703" y1="1403.6012" x2="3455.4004" y2="244.8034">
	<stop  offset="0.5036" style="stop-color:#96884E"/>
	<stop  offset="0.7871" style="stop-color:#754816"/>
</linearGradient>
<path style="fill:url(#SVGID_00000095340128152031226200000001567204086812714390_);" d="M3003.75,546.06
	c6.39-3.09,12.36-6.95,35.53-5.41s25.49,0.07,40.94-0.35c15.45-0.42,20.86-5.06,31.67-10.46c10.81-5.41,19.31-3.86,23.95-3.86
	s9.27-17.77,16.99-20.86c7.72-3.09,9.27,0.96,13.9-4.15c4.64-5.12,3.86-9.75,7.72-8.21c3.86,1.54,7.72-7.72,11.59,3.86
	s10.04,20.86,13.9,14.68c3.86-6.18,7.73-11.59,10.04-26.26s5.41-27.04,8.5-19.31c3.09,7.72,2.32,13.13,6.95,13.9
	c4.63,0.77,0.77,6.95,4.63,0.77c3.86-6.18,7.73-16.22,11.59-2.32c3.86,13.9,0.77,20.86,8.5,17.77c7.72-3.09,3.86-16.99,13.13-10.81
	c9.27,6.18,11.59,8.5,15.45,12.36c3.86,3.86,2.32,5.35,8.5,7.31s5.41-0.94,13.9-3.74c8.5-2.8,16.99-1.84,18.54,0
	c1.54,1.84,2.32-2.86,6.95,3.74s10.04,12,20.08,16.64c10.04,4.63,14.68,13.13,54.85,19.31c40.17,6.18,81.11,9.27,103.51,5.41
	c22.4-3.86,30.13-9.27,57.94-13.13c27.81-3.86,29.35,10.81,50.21,2.32c20.86-8.5,18.54-16.22,37.85-11.59s22.4,12.36,32.44,7.72
	c10.04-4.63,0.77-11.59,24.72-13.13c23.95-1.54,20.86-11.59,40.17-1.54c19.31,10.04,11.59,19.31,33.22,12.36
	c21.63-6.95,50.98-17.77,58.71-15.45c7.72,2.32,6.18,0,34.76,12.36c28.58,12.36,21.63,14.68,54.85,17.77
	c33.22,3.09,57.94,1.86,86.52,4.02c28.58,2.16,33.99-2.48,33.99,19.93c0,22.4,37.85,45.58,10.04,52.53
	c-27.81,6.95-1153.33,0-1153.33,0L3003.75,546.06z"/>
<linearGradient id="SVGID_00000010994826745388334270000015021948292510903473_" gradientUnits="userSpaceOnUse" x1="3726.5571" y1="1963.8718" x2="3814.124" y2="376.7553">
	<stop  offset="0.4576" style="stop-color:#96884E"/>
	<stop  offset="0.8222" style="stop-color:#492B1A"/>
</linearGradient>
<path style="fill:url(#SVGID_00000010994826745388334270000015021948292510903473_);" d="M3094.31,636.77
	c54.03,1.08,44.3-12.97,94.01-19.45c49.71-6.48,186.94-43.22,206.39-34.58c19.45,8.64,34.58,8.64,41.06,3.24s11.89-2.16,22.69,1.08
	c10.81,3.24,21.61-9.1,34.58-5.63c12.97,3.47,19.45,7.79,27.01,9.95c7.56,2.16-9.73,15.13,22.69,6.48
	c32.42-8.64,39.98-5.4,46.46-1.08s10.81,8.64,15.13,6.48c4.32-2.16,4.32-2.16,4.32-2.16s19.45-8.64,23.77-4.32
	s3.24,11.89,12.97,7.56c9.73-4.32,9.73-7.56,18.37-8.64c8.64-1.08,4.32,3.24,12.97,2.16c8.64-1.08,18.37-18.37,30.26-9.73
	c11.89,8.64,16.21,9.73,19.45,10.81s8.64,4.32,17.29,5.4c8.64,1.08-9.73-11.89,36.74-4.32c46.46,7.56,47.55,6.77,51.87,8.79
	c4.32,2.02,11.89,1.23,18.37,0c6.48-1.23,11.89-0.94,20.53,0c8.64,0.94,17.29,5.55,27.01,0c9.73-5.55-4.32-10.95,21.61-7.71
	c25.93,3.24,18.37,8.64,39.98,3.24s12.97-7.56,54.03-2.16c41.06,5.4,56.19,3.24,67-3.24c10.81-6.48,19.45-1.08,36.74,1.08
	c17.29,2.16-4.32-3.24,38.9-7.56s35.66-3.24,71.32-3.24c35.66,0,34.58-6.48,49.71,2.16c15.13,8.64,12.97,24.06,35.66,17.43
	c22.69-6.63,20.53-5.55,46.46-13.11c25.93-7.56,29.18-5.4,52.95-7.56c23.77-2.16,21.61-4.94,49.71-7.33
	c28.09-2.39,31.34-11.66,49.71,0c18.37,11.66,61.59,435.24,61.59,435.24H2984.09L3094.31,636.77z"/>
<linearGradient id="SVGID_00000165957525228228932920000008707432423977070776_" gradientUnits="userSpaceOnUse" x1="4046.5278" y1="2220.3735" x2="4030.5737" y2="703.642" gradientTransform="matrix(1 0 0 -0.5932 0 1573.6953)">
	<stop  offset="0.6394" style="stop-color:#1E0D05"/>
	<stop  offset="1" style="stop-color:#A09567"/>
</linearGradient>
<path style="fill:url(#SVGID_00000165957525228228932920000008707432423977070776_);" d="M3367.44,984.1
	c144.82,41,113.78,50.84,191.37,47.56c77.58-3.28,113.78-24.6,201.71-24.6s124.13-2.7,165.51,1.11
	c41.38,3.81,263.77,2.17,310.32-17.51s191.37-62.31,274.12-67.23s108.61,3.28,237.91-9.84c129.3-13.12,305.15-57.79,320.67-64.15
	s10.34-42.44-356.87-49c-269.63-4.82-755.25-20.63-1068.53-20.97c-25.43-0.03-92.78,14.48-115.12,14.47
	c-77.23-0.06-293.99-36.14-320.64-36.14c-129.3,0-290.41,50.84-161.11,98.39C3176.08,903.74,3367.44,984.1,3367.44,984.1z"/>
<path class="st8" d="M3552.2,650.9c80.02-38.19,62.87-47.35,105.74-44.3c42.87,3.05,62.87,22.91,111.46,22.91
	c48.58,0,68.59,2.51,91.45-1.04c22.86-3.55,145.75-2.02,171.47,16.31s105.74,58.04,151.47,62.63c45.73,4.58,60.02-3.05,131.46,9.16
	c71.45,12.22,168.61,53.82,177.19,59.75c8.57,5.93,5.72,39.53-197.19,45.64c-202.91,6.11-671.6,6.11-743.05,6.11
	c-71.45,0-248.64-13.75-177.19-58.04C3446.45,725.75,3552.2,650.9,3552.2,650.9z"/>
<path class="st9" d="M3028.48,840.58c42.97-27.04,81.01-41.75,86.25-34.13c13.1,19.05,26.68-40.14,55.49-48.09
	c47.13-13,37.74-36.27,77.42-20.35c10.52,4.22-1.69,38.75,17.7,49.4c42.55,23.37,93.64-13.5,118.63-4.29
	c29.34,10.82,80.54,48.34,94.66,38.03c36.93-26.96,38.44,21.2,65.11,31.96c17.78,7.18,67.75-0.92,91.19,25.39
	c22.05,24.75,18.96,58.9,38.46,83.16c32.33,40.21,82.48,62.81,112.61,70.27c48.32,11.96,66.82,101.65,24.67,103.15
	c-42.15,1.49-173.74-26.91-295.04-28.4s-378.57,68.76-436.01,16.44c-57.44-52.32-84.17-62.79-80.06-134.54
	S3028.48,840.58,3028.48,840.58z"/>
<linearGradient id="SVGID_00000023977050813911439670000002556510742235754929_" gradientUnits="userSpaceOnUse" x1="2998.2373" y1="836.4274" x2="3142.0474" y2="-438.7127">
	<stop  offset="0.5373" style="stop-color:#AB8820"/>
	<stop  offset="0.7871" style="stop-color:#754816"/>
</linearGradient>
<path style="fill:url(#SVGID_00000023977050813911439670000002556510742235754929_);" d="M2600.23,24.84
	c61.69,1.67,146.34,55.23,204.7,80.24s91.85-29.12,201.89-19.12c92.28,8.39,169.93-64.25,219.96-45.91
	c50.02,18.34,82.09,8.13,133.78-0.21c51.69-8.34,5-28.35,76.7-65.03s233.43,37.43,255.11-44.55
	c21.68-81.97,165.07-117.19-120.05-140.53s-897.06-21.68-1012.11,11.67c-115.05,33.35-108.38,181.75-73.37,185.08
	S2600.23,24.84,2600.23,24.84z"/>
</svg>
