<?xml version="1.0" encoding="utf-8"?>
<!-- Generator: Adobe Illustrator 28.0.0, SVG Export Plug-In . SVG Version: 6.00 Build 0)  -->
<svg version="1.1" id="Шар_1" xmlns="http://www.w3.org/2000/svg" xmlns:xlink="http://www.w3.org/1999/xlink" x="0px" y="0px"
	 viewBox="0 0 1000 1000" style="enable-background:new 0 0 1000 1000;" xml:space="preserve">
<style type="text/css">
	.st0{fill:#FFFFFF;}
	.st1{fill:url(#SVGID_1_);stroke:#000000;stroke-width:19;stroke-miterlimit:10;}
	.st2{fill:url(#SVGID_00000121277368853291276360000013461941178117742234_);}
	
		.st3{clip-path:url(#SVGID_00000154428373948654096510000003789728077917683084_);fill:#EF8B1D;stroke:#231F20;stroke-width:0.5;stroke-miterlimit:10;}
	
		.st4{clip-path:url(#SVGID_00000154428373948654096510000003789728077917683084_);fill:#FFB000;stroke:#231F20;stroke-width:0.5;stroke-miterlimit:10;}
	
		.st5{clip-path:url(#SVGID_00000154428373948654096510000003789728077917683084_);fill:#F8BC3A;stroke:#231F20;stroke-width:0.5;stroke-miterlimit:10;}
	
		.st6{clip-path:url(#SVGID_00000154428373948654096510000003789728077917683084_);fill:#FFA310;stroke:#231F20;stroke-width:0.5;stroke-miterlimit:10;}
	
		.st7{clip-path:url(#SVGID_00000154428373948654096510000003789728077917683084_);fill:#ED9920;stroke:#231F20;stroke-width:0.5;stroke-miterlimit:10;}
	
		.st8{clip-path:url(#SVGID_00000154428373948654096510000003789728077917683084_);fill:#FCA417;stroke:#231F20;stroke-width:0.5;stroke-miterlimit:10;}
	
		.st9{opacity:0.63;clip-path:url(#SVGID_00000154428373948654096510000003789728077917683084_);fill:url(#SVGID_00000177448058997158122480000018179700937214375560_);stroke:#231F20;stroke-width:0.5;stroke-miterlimit:10;}
	.st10{clip-path:url(#SVGID_00000154428373948654096510000003789728077917683084_);}
	.st11{fill:#D86D0E;stroke:#231F20;stroke-width:0.5;stroke-miterlimit:10;}
	.st12{fill:#FFFFFF;stroke:#231F20;stroke-width:0.5;stroke-miterlimit:10;}
	
		.st13{clip-path:url(#SVGID_00000154428373948654096510000003789728077917683084_);fill:#212121;stroke:#231F20;stroke-width:0.5;stroke-miterlimit:10;}
	.st14{fill:url(#SVGID_00000003795727291150586270000014382236104093184151_);}
	.st15{fill:url(#SVGID_00000183964268657038814500000016323944384183142535_);}
	.st16{opacity:0.51;fill:#231F20;}
	.st17{fill:none;stroke:#000000;stroke-width:8;stroke-miterlimit:10;}
	.st18{fill:none;stroke:#000000;stroke-width:5;stroke-miterlimit:10;}
	
		.st19{clip-path:url(#SVGID_00000116945018300358646770000007448426717116119486_);fill:none;stroke:#000000;stroke-width:5;stroke-miterlimit:10;}
	
		.st20{opacity:0.63;clip-path:url(#SVGID_00000116945018300358646770000007448426717116119486_);fill:none;stroke:#000000;stroke-width:5;stroke-miterlimit:10;}
	.st21{clip-path:url(#SVGID_00000116945018300358646770000007448426717116119486_);}
	.st22{opacity:0.51;fill:none;stroke:#000000;stroke-width:5;stroke-miterlimit:10;}
</style>
<rect x="1355.55" y="0" class="st0" width="1000" height="1000"/>
<radialGradient id="SVGID_1_" cx="500" cy="486.5719" r="369.6829" fx="367.807" fy="277.1317" gradientUnits="userSpaceOnUse">
	<stop  offset="0.5536" style="stop-color:#EA6A00"/>
	<stop  offset="0.9998" style="stop-color:#B51E12"/>
</radialGradient>
<circle class="st1" cx="500" cy="486.57" r="369.68"/>
<radialGradient id="SVGID_00000061454484155577507880000005972531384480604335_" cx="500" cy="486.5719" r="369.6829" fx="367.807" fy="277.1317" gradientUnits="userSpaceOnUse">
	<stop  offset="0.5536" style="stop-color:#EA6A00"/>
	<stop  offset="0.9998" style="stop-color:#B51E12"/>
</radialGradient>
<circle style="fill:url(#SVGID_00000061454484155577507880000005972531384480604335_);" cx="500" cy="486.57" r="369.68"/>
<g>
	<defs>
		<circle id="SVGID_00000072256336451027852310000010099531415788108440_" cx="500" cy="486.57" r="369.68"/>
	</defs>
	<clipPath id="SVGID_00000036229919770377030740000013451913813931714717_">
		<use xlink:href="#SVGID_00000072256336451027852310000010099531415788108440_"  style="overflow:visible;"/>
	</clipPath>
	
		<path style="clip-path:url(#SVGID_00000036229919770377030740000013451913813931714717_);fill:#EF8B1D;stroke:#231F20;stroke-width:0.5;stroke-miterlimit:10;" d="
		M847.5,122.54c0,0-109.84,97.92-191.94,148.99c-82.1,51.07-370.57-9.57-407.83-18.06c-37.26-8.48-92.05-31.67-129.35-16.11
		l-113.45-7.2c0,0,78.13,122.09,177.78,73.69c99.65-48.4,133.84,60.12,224.66,107.42c90.82,47.3,219.05,18.92,254.52-46.19
		c35.47-65.11,228.01-148.93,228.01-148.93L847.5,122.54z M498.56,388.12c14.55,13.47-32.96,9.8-71.15-17.44
		c0,0-35.29-31.09-56.49-47.47c-21.2-16.38,89.72-14.64,142.09,15.75C565.37,369.36,459.61,352.07,498.56,388.12z"/>
	
		<path style="clip-path:url(#SVGID_00000036229919770377030740000013451913813931714717_);fill:#FFB000;stroke:#231F20;stroke-width:0.5;stroke-miterlimit:10;" d="
		M182.61,391.03c0.71,26.18,35.82,29.85,57.32,17.91s34.65-5.04,40.6-17.75C294.61,361.12,180.69,319.78,182.61,391.03z"/>
	
		<path style="clip-path:url(#SVGID_00000036229919770377030740000013451913813931714717_);fill:#F8BC3A;stroke:#231F20;stroke-width:0.5;stroke-miterlimit:10;" d="
		M262.67,439.86c22.76,12.58,46.88,16.85,43.39,0.59c-3.5-16.27-7.09-25.09-21.1-23.7C242.09,420.99,262.67,439.86,262.67,439.86z"
		/>
	
		<path style="clip-path:url(#SVGID_00000036229919770377030740000013451913813931714717_);fill:#EF8B1D;stroke:#231F20;stroke-width:0.5;stroke-miterlimit:10;" d="
		M654.05,109.58c-19.93,0-343.77,15.88-343.77,15.88c-18.11,19.3-85.91,48.06-30.79,71.83c92.38,39.85,286.21,43.48,406.01-16.3
		C713.23,167.15,673.97,109.58,654.05,109.58z M534,191.86c-37.52,0-85.93,5.17-85.93-5.34c0-27.32,36.45-18.41,73.97-18.41
		c37.52,0,79.89-5.78,79.89,4.72C601.93,183.35,571.51,191.86,534,191.86z"/>
	
		<path style="clip-path:url(#SVGID_00000036229919770377030740000013451913813931714717_);fill:#F8BC3A;stroke:#231F20;stroke-width:0.5;stroke-miterlimit:10;" d="
		M640.75,574.42c0,15.74,3.29,35.04-4.48,35.04s-30.44-24.46-30.44-40.2c0-15.74,31.51-29.88,39.28-29.88
		C652.89,539.38,640.75,558.68,640.75,574.42z"/>
	
		<path style="clip-path:url(#SVGID_00000036229919770377030740000013451913813931714717_);fill:#FFA310;stroke:#231F20;stroke-width:0.5;stroke-miterlimit:10;" d="
		M473.71,544.85c-19.35,12.39-79.4,6.51-102.21-13.57c-32.34-28.48-41.59-28.21-35.9-50.48c5.68-22.26,49.12-22.32,90.87-11.67
		S561.78,488.44,473.71,544.85z"/>
	
		<path style="clip-path:url(#SVGID_00000036229919770377030740000013451913813931714717_);fill:#ED9920;stroke:#231F20;stroke-width:0.5;stroke-miterlimit:10;" d="
		M139.37,722.54c78.34-24.01,114.35-18.55,158-5.46s98.35,10.84,122.28,9.78c23.94-1.06,54.49,6.58,80.68,20.77
		c26.19,14.19,60.02,10.91,52.38,0c-7.64-10.91-4.36,4.29-48.01-20.77s-118.71-14.7-158.11-20.97
		c-39.4-6.27-150.61-36.83-154.48-32.46c-3.87,4.36-86.8-8.73-86.8-8.73L139.37,722.54z"/>
	
		<path style="clip-path:url(#SVGID_00000036229919770377030740000013451913813931714717_);fill:#FCA417;stroke:#231F20;stroke-width:0.5;stroke-miterlimit:10;" d="
		M691.73,783.05c-16.37-31.65-153.86,15.28-199.69,38.19s-3.27,25.1,48.01,44.74c0,0,101.48-15.28,102.78-17.46
		C644.13,846.35,708.1,814.7,691.73,783.05z M649.34,825.18c-18.48,17.74-107.94,31.94-116.12,16.12
		c-8.18-15.82,22.22-17.07,50.24-22.09C641.22,808.85,659.71,815.22,649.34,825.18z"/>
	
		<path style="clip-path:url(#SVGID_00000036229919770377030740000013451913813931714717_);fill:#EF8B1D;stroke:#231F20;stroke-width:0.5;stroke-miterlimit:10;" d="
		M869.68,344.89c-53.25,8.52-50.07-27.41-100.13,9.87c-50.06,37.28-108.64,29.34-72.42,68.99c36.21,39.65,61.77-10.41,72.42,37.52
		c10.65,47.93-41.06,135.26,4.5,105.44s99.88-53.25,115.85-53.25C905.88,513.45,869.68,344.89,869.68,344.89z M791.42,509.19
		c-12.92-6.39-1.77-74.55-22.93-85.45c-7.13-3.67-34.08-8.28-22.37-24.26c0,0,23.43-19.17,50.06-23.43
		c26.63-4.26,35.15,18.11,42.6,71.89C846.24,501.74,804.33,515.58,791.42,509.19z"/>
	
		<path style="clip-path:url(#SVGID_00000036229919770377030740000013451913813931714717_);fill:#EF8B1D;stroke:#231F20;stroke-width:0.5;stroke-miterlimit:10;" d="
		M363.89,848.26c-10.13-30.4,9.7-42.78,18.92-32.65c9.22,10.13,35.65,16.7,39.32-3.47s40.82-21.29,47.58-12.29
		c6.75,9.01,180.18-55.16,216.18-28.14c36,27.02,57.32,14.42,57.32,14.42s-27.34-47.9-64.86-46.36
		c-37.52,1.54-129.08,56.71-191.94,34.19c-62.86-22.52-117.23-13.33-170.93-9.01c-53.7,4.32-104.7,3.38-104.7,3.38L363.89,848.26z"
		/>
	
		<path style="clip-path:url(#SVGID_00000036229919770377030740000013451913813931714717_);fill:#EF8B1D;stroke:#231F20;stroke-width:0.5;stroke-miterlimit:10;" d="
		M851.09,558.94c-47.61,7.92-23.81,17.58-86.72,54.99c-62.92,37.41-10.2-39.11-27.21-93.53c-17-54.42-62.92,23.81-78.22,102.03
		c-15.3,78.22-34.01,6.8-88.42-23.81c-54.42-30.61,30.61-23.81,0-49.31c-30.61-25.51-68.02,79.92-134.34,57.82
		c-44.59-14.86-67.65-32.03-103.82-41.34c-15.3-3.94-29.8-10.66-42.18-20.47c-1.57-1.24-3.09-2.5-4.56-3.78
		c-34.32-29.85-102.41-90-126.26-105.22c-23.85-15.22-71.7-36.88-73.47-22.55c-1.76,14.33,15.3,106.28,15.3,106.28l5.62-1.19
		c33.44-8.36,70.45-4.78,91.95,10.75c17.08,12.33,36.42,22.4,56.22,29.61c-72.23,2.52-58.11,19.3-153.79,24.97
		c0,0,59.52,29.67,127.54,51.86c68.02,22.2,161.54,27.21,260.17,32.31c98.63,5.1,34.01,28.91,115.63,56.12
		c81.62,27.21,17-28.91,62.92-49.31c45.91-20.41,10.2,10.2,37.41,51.01c27.21,40.81,30.61-18.71,66.32-66.68
		c35.71-47.98,39.11-13.24,68.02-1.65c12.13,4.86,24.25-1.48,35.25-12.94c-48.67-32.54-67.02-41.2-46.38-54.1
		c21.87-13.67,40.32-17.09,55.36-13.67c7.16,1.63,17.11,6.2,25.57,10.91c0.56-1.31,1.1-2.6,1.62-3.87
		C924.21,551.01,898.7,551.01,851.09,558.94z M311.4,612.93c-49.48-5.6-53.22-22.41-40.15-28.76
		c13.07-6.35,100.69,10.5,122.31,36.86C400.3,629.25,360.89,618.53,311.4,612.93z M724.87,566.18
		c-4.01,17.22-12.31,30.01-18.53,28.56c-6.22-1.45-8.01-16.59-3.99-33.81c4.01-17.22,12.31-30.01,18.53-28.56
		S728.88,548.96,724.87,566.18z"/>
	
		<radialGradient id="SVGID_00000127731308255632465860000001686786061744773294_" cx="451.7214" cy="376.8802" r="254.887" fx="433.6435" fy="334.5688" gradientUnits="userSpaceOnUse">
		<stop  offset="0.1776" style="stop-color:#FFBC00"/>
		<stop  offset="1" style="stop-color:#DD6657"/>
	</radialGradient>
	
		<path style="opacity:0.63;clip-path:url(#SVGID_00000036229919770377030740000013451913813931714717_);fill:url(#SVGID_00000127731308255632465860000001686786061744773294_);stroke:#231F20;stroke-width:0.5;stroke-miterlimit:10;" d="
		M171.92,461.45c-20.74-363.41,562.9-401.02,560.13-151.9C729.7,521,189.18,763.85,171.92,461.45z"/>
	<g style="clip-path:url(#SVGID_00000036229919770377030740000013451913813931714717_);">
		<path class="st11" d="M447.13,99.83c193.24-26.99,377.76,104.34,405.89,298.56c34.1,235.43-109.81,387.73-326.24,428.63
			c-195.9,37.02-363.89-105.15-396.46-301.84c-32.06-193.61,106.8-385.57,298.43-422.31C226.73,141.34,91.29,334.25,125.07,538.25
			c34.29,207.07,229.95,347.13,437.01,312.84c207.07-34.29,347.13-229.95,312.84-437.01C841.15,210.08,650.75,71.13,447.13,99.83z"
			/>
		<path class="st12" d="M437.92,91.09c3.07-0.51,6.14-0.97,9.21-1.41C444.06,90.11,440.99,90.58,437.92,91.09z"/>
		<path class="st12" d="M428.74,92.73c3.04-0.58,6.1-1.13,9.17-1.64C434.84,91.6,431.78,92.15,428.74,92.73z"/>
	</g>
	
		<path style="clip-path:url(#SVGID_00000036229919770377030740000013451913813931714717_);fill:#212121;stroke:#231F20;stroke-width:0.5;stroke-miterlimit:10;" d="
		M797.27,164.14L491.53,84.83v24.19c0,0-96.76,60.48-89.2,343.21c7.56,282.73,89.2,404.52,89.2,404.52v17.31l71.06,40.82
		c0,0,225.28-89.2,234.35-104.32c9.07-15.12,154.22-234.35,154.22-237.59S797.27,164.14,797.27,164.14z"/>
	
		<use xlink:href="#SVGID_00000072256336451027852310000010099531415788108440_"  style="overflow:visible;fill:none;stroke:#231F20;stroke-width:0.5;stroke-miterlimit:10;"/>
</g>
<radialGradient id="SVGID_00000024707268959259592110000000165391454993693623_" cx="520.6189" cy="483.178" r="281.1264" fx="514.8942" fy="482.7973" gradientTransform="matrix(0.9912 -0.1326 0.165 1.2338 -75.1424 -43.9365)" gradientUnits="userSpaceOnUse">
	<stop  offset="0.618" style="stop-color:#FF4106"/>
	<stop  offset="0.8883" style="stop-color:#1E1E1E"/>
</radialGradient>
<path style="fill:url(#SVGID_00000024707268959259592110000000165391454993693623_);" d="M505.29,142.75
	c0,0,292.33,44.07,292.33,319.41c0,341.7-292.33,368.41-292.33,368.41s-70.38-208.35-70.38-379.3S505.29,142.75,505.29,142.75z"/>
<radialGradient id="SVGID_00000137126208068619347580000012309492469175341974_" cx="504.2852" cy="488.2896" r="126.831" gradientTransform="matrix(8.240889e-03 -1 0.7804 6.431312e-03 119.0738 989.4173)" gradientUnits="userSpaceOnUse">
	<stop  offset="0.0744" style="stop-color:#FFD400"/>
	<stop  offset="0.1967" style="stop-color:#FFCF00"/>
	<stop  offset="0.3405" style="stop-color:#FFC100"/>
	<stop  offset="0.4952" style="stop-color:#FFA900"/>
	<stop  offset="0.6576" style="stop-color:#FF8800"/>
	<stop  offset="0.8243" style="stop-color:#FF5E00"/>
	<stop  offset="0.9011" style="stop-color:#FF4800"/>
</radialGradient>
<path style="fill:url(#SVGID_00000137126208068619347580000012309492469175341974_);" d="M490.6,309.78
	c0,0,150.27,22.66,150.27,164.19c0,175.65-150.27,189.38-150.27,189.38s-36.18-107.1-36.18-194.98S490.6,309.78,490.6,309.78z"/>
<path class="st16" d="M491.88,116.05c0,0-95.23,33.71-89.2,343.21c5.51,282.78,89.2,404.52,89.2,404.52V116.05z"/>
<path class="st17" d="M492.03,862.04c0,0-75.54-93.2-89.05-400.88c-13.53-308.06,88.69-348.3,88.69-348.3"/>
<g>
	<circle class="st18" cx="1855.55" cy="498.25" r="369.68"/>
	<circle class="st18" cx="1855.55" cy="498.25" r="369.68"/>
	<g>
		<defs>
			<circle id="SVGID_00000068659661118974054250000011864398660543433604_" cx="1855.55" cy="498.25" r="369.68"/>
		</defs>
		<clipPath id="SVGID_00000065774012197669261610000005128108124559599258_">
			<use xlink:href="#SVGID_00000068659661118974054250000011864398660543433604_"  style="overflow:visible;"/>
		</clipPath>
		
			<path style="clip-path:url(#SVGID_00000065774012197669261610000005128108124559599258_);fill:none;stroke:#000000;stroke-width:5;stroke-miterlimit:10;" d="
			M2203.06,134.22c0,0-109.84,97.92-191.94,148.99c-82.1,51.07-370.57-9.57-407.83-18.06c-37.26-8.48-92.05-31.67-129.35-16.11
			l-113.45-7.2c0,0,78.13,122.09,177.78,73.69c99.65-48.4,133.84,60.12,224.66,107.42c90.82,47.3,219.05,18.92,254.52-46.19
			c35.47-65.11,228.01-148.93,228.01-148.93L2203.06,134.22z M1854.11,399.8c14.55,13.47-32.96,9.8-71.15-17.44
			c0,0-35.29-31.09-56.49-47.47c-21.2-16.38,89.72-14.64,142.09,15.75C1920.92,381.04,1815.16,363.75,1854.11,399.8z"/>
		
			<path style="clip-path:url(#SVGID_00000065774012197669261610000005128108124559599258_);fill:none;stroke:#000000;stroke-width:5;stroke-miterlimit:10;" d="
			M1538.16,402.71c0.71,26.18,35.82,29.85,57.32,17.91c21.49-11.94,34.65-5.04,40.6-17.75
			C1650.16,372.79,1536.24,331.46,1538.16,402.71z"/>
		
			<path style="clip-path:url(#SVGID_00000065774012197669261610000005128108124559599258_);fill:none;stroke:#000000;stroke-width:5;stroke-miterlimit:10;" d="
			M1618.22,451.54c22.76,12.58,46.88,16.85,43.39,0.59s-7.09-25.09-21.1-23.7C1597.64,432.66,1618.22,451.54,1618.22,451.54z"/>
		
			<path style="clip-path:url(#SVGID_00000065774012197669261610000005128108124559599258_);fill:none;stroke:#000000;stroke-width:5;stroke-miterlimit:10;" d="
			M2009.6,121.26c-19.93,0-343.77,15.88-343.77,15.88c-18.11,19.3-85.91,48.06-30.79,71.83c92.38,39.85,286.21,43.48,406.01-16.3
			C2068.79,178.83,2029.52,121.26,2009.6,121.26z M1889.55,203.54c-37.52,0-85.93,5.17-85.93-5.34c0-27.32,36.45-18.41,73.97-18.41
			c37.52,0,79.89-5.78,79.89,4.72C1957.48,195.02,1927.06,203.54,1889.55,203.54z"/>
		
			<path style="clip-path:url(#SVGID_00000065774012197669261610000005128108124559599258_);fill:none;stroke:#000000;stroke-width:5;stroke-miterlimit:10;" d="
			M1996.3,586.09c0,15.74,3.29,35.04-4.48,35.04s-30.44-24.46-30.44-40.2c0-15.74,31.51-29.88,39.28-29.88
			C2008.44,551.06,1996.3,570.36,1996.3,586.09z"/>
		
			<path style="clip-path:url(#SVGID_00000065774012197669261610000005128108124559599258_);fill:none;stroke:#000000;stroke-width:5;stroke-miterlimit:10;" d="
			M1829.27,556.52c-19.35,12.39-79.4,6.51-102.21-13.57c-32.34-28.48-41.59-28.21-35.9-50.48c5.68-22.26,49.12-22.32,90.87-11.67
			C1823.78,491.47,1917.33,500.12,1829.27,556.52z"/>
		
			<path style="clip-path:url(#SVGID_00000065774012197669261610000005128108124559599258_);fill:none;stroke:#000000;stroke-width:5;stroke-miterlimit:10;" d="
			M1494.92,734.22c78.34-24.01,114.35-18.55,158-5.46c43.65,13.09,98.35,10.84,122.28,9.78c23.94-1.06,54.49,6.58,80.68,20.77
			c26.19,14.19,60.02,10.91,52.38,0c-7.64-10.91-4.36,4.29-48.01-20.77c-43.65-25.06-118.71-14.7-158.11-20.97
			c-39.4-6.27-150.61-36.83-154.48-32.46c-3.87,4.36-86.8-8.73-86.8-8.73L1494.92,734.22z"/>
		
			<path style="clip-path:url(#SVGID_00000065774012197669261610000005128108124559599258_);fill:none;stroke:#000000;stroke-width:5;stroke-miterlimit:10;" d="
			M2047.28,794.73c-16.37-31.65-153.86,15.28-199.69,38.19s-3.27,25.1,48.01,44.74c0,0,101.48-15.28,102.78-17.46
			C1999.68,858.02,2063.65,826.38,2047.28,794.73z M2004.89,836.86c-18.48,17.74-107.94,31.94-116.12,16.12
			c-8.18-15.82,22.22-17.07,50.24-22.09C1996.78,820.53,2015.26,826.9,2004.89,836.86z"/>
		
			<path style="clip-path:url(#SVGID_00000065774012197669261610000005128108124559599258_);fill:none;stroke:#000000;stroke-width:5;stroke-miterlimit:10;" d="
			M2225.23,356.56c-53.25,8.52-50.07-27.41-100.13,9.87c-50.06,37.28-108.64,29.34-72.42,68.99c36.21,39.65,61.77-10.41,72.42,37.52
			c10.65,47.93-41.06,135.26,4.5,105.44s99.88-53.25,115.85-53.25C2261.43,525.13,2225.23,356.56,2225.23,356.56z M2146.97,520.87
			c-12.92-6.39-1.77-74.55-22.93-85.45c-7.13-3.67-34.08-8.28-22.37-24.26c0,0,23.43-19.17,50.06-23.43
			c26.63-4.26,35.15,18.11,42.6,71.89C2201.79,513.41,2159.89,527.26,2146.97,520.87z"/>
		
			<path style="clip-path:url(#SVGID_00000065774012197669261610000005128108124559599258_);fill:none;stroke:#000000;stroke-width:5;stroke-miterlimit:10;" d="
			M1719.44,859.93c-10.13-30.4,9.7-42.78,18.92-32.65c9.22,10.13,35.65,16.7,39.32-3.47s40.82-21.29,47.58-12.29
			c6.75,9.01,180.18-55.16,216.18-28.14c36,27.02,57.32,14.42,57.32,14.42s-27.34-47.9-64.86-46.36s-129.08,56.71-191.94,34.19
			c-62.86-22.52-117.23-13.33-170.93-9.01s-104.7,3.38-104.7,3.38L1719.44,859.93z"/>
		
			<path style="clip-path:url(#SVGID_00000065774012197669261610000005128108124559599258_);fill:none;stroke:#000000;stroke-width:5;stroke-miterlimit:10;" d="
			M2206.64,570.61c-47.61,7.92-23.81,17.58-86.72,54.99c-62.92,37.41-10.2-39.11-27.21-93.53c-17-54.42-62.92,23.81-78.22,102.03
			c-15.3,78.22-34.01,6.8-88.42-23.81s30.61-23.81,0-49.31c-30.61-25.51-68.02,79.92-134.34,57.82
			c-44.59-14.86-67.65-32.03-103.82-41.34c-15.3-3.94-29.8-10.66-42.18-20.47c-1.57-1.24-3.09-2.5-4.56-3.78
			c-34.32-29.85-102.41-90-126.26-105.22c-23.85-15.22-71.7-36.88-73.47-22.55c-1.76,14.33,15.3,106.28,15.3,106.28l5.62-1.19
			c33.44-8.36,70.45-4.78,91.95,10.75c17.08,12.33,36.42,22.4,56.22,29.61c-72.23,2.52-58.11,19.3-153.79,24.97
			c0,0,59.52,29.67,127.54,51.86c68.02,22.2,161.55,27.21,260.17,32.31c98.63,5.1,34.01,28.91,115.63,56.12
			c81.62,27.21,17-28.91,62.92-49.31c45.91-20.41,10.2,10.2,37.41,51.01c27.21,40.81,30.61-18.71,66.32-66.68
			c35.71-47.98,39.11-13.24,68.02-1.65c12.13,4.86,24.25-1.48,35.25-12.94c-48.67-32.54-67.02-41.2-46.38-54.1
			c21.87-13.67,40.32-17.09,55.36-13.67c7.16,1.63,17.11,6.2,25.57,10.91c0.56-1.31,1.1-2.6,1.62-3.87
			C2279.76,562.69,2254.25,562.69,2206.64,570.61z M1666.95,624.61c-49.48-5.6-53.22-22.41-40.15-28.76s100.69,10.5,122.31,36.86
			C1755.85,640.92,1716.44,630.21,1666.95,624.61z M2080.42,577.86c-4.01,17.22-12.31,30.01-18.53,28.56
			c-6.22-1.45-8.01-16.59-3.99-33.81c4.01-17.22,12.31-30.01,18.53-28.56C2082.64,545.5,2084.43,560.63,2080.42,577.86z"/>
		
			<path style="opacity:0.63;clip-path:url(#SVGID_00000065774012197669261610000005128108124559599258_);fill:none;stroke:#000000;stroke-width:5;stroke-miterlimit:10;" d="
			M1527.48,473.13c-20.74-363.41,562.9-401.02,560.13-151.9C2085.25,532.68,1544.73,775.52,1527.48,473.13z"/>
		<g style="clip-path:url(#SVGID_00000065774012197669261610000005128108124559599258_);">
			<path class="st18" d="M1802.68,111.51c193.24-26.99,377.76,104.34,405.89,298.56c34.1,235.43-109.81,387.73-326.24,428.63
				c-195.9,37.02-363.89-105.15-396.46-301.84c-32.06-193.61,106.8-385.57,298.43-422.31c-202.01,38.47-337.45,231.38-303.67,435.37
				c34.29,207.07,229.95,347.13,437.01,312.84c207.07-34.29,347.13-229.95,312.84-437.01C2196.7,221.76,2006.31,82.8,1802.68,111.51
				z"/>
			<path class="st18" d="M1793.47,102.77c3.07-0.51,6.14-0.97,9.21-1.41C1799.61,101.79,1796.54,102.26,1793.47,102.77z"/>
			<path class="st18" d="M1784.29,104.41c3.04-0.58,6.1-1.13,9.17-1.64C1790.39,103.28,1787.34,103.82,1784.29,104.41z"/>
		</g>
		
			<path style="clip-path:url(#SVGID_00000065774012197669261610000005128108124559599258_);fill:none;stroke:#000000;stroke-width:5;stroke-miterlimit:10;" d="
			M2152.82,175.82L1847.08,96.5v24.19c0,0-96.76,60.48-89.2,343.21c7.56,282.73,89.2,404.52,89.2,404.52v17.31l71.06,40.82
			c0,0,225.28-89.2,234.35-104.32c9.07-15.12,154.22-234.35,154.22-237.59C2306.71,581.39,2152.82,175.82,2152.82,175.82z"/>
		
			<use xlink:href="#SVGID_00000068659661118974054250000011864398660543433604_"  style="overflow:visible;fill:none;stroke:#000000;stroke-width:5;stroke-miterlimit:10;"/>
	</g>
	<path class="st18" d="M1860.84,154.43c0,0,292.33,44.07,292.33,319.41c0,341.7-292.33,368.41-292.33,368.41
		s-70.38-208.35-70.38-379.3S1860.84,154.43,1860.84,154.43z"/>
	<path class="st18" d="M1846.15,321.46c0,0,150.27,22.66,150.27,164.19c0,175.65-150.27,189.38-150.27,189.38
		s-36.18-107.1-36.18-194.98S1846.15,321.46,1846.15,321.46z"/>
	<path class="st22" d="M1847.43,127.73c0,0-95.23,33.71-89.2,343.21c5.51,282.78,89.2,404.52,89.2,404.52V127.73z"/>
	<path class="st18" d="M1847.59,873.72c0,0-75.54-93.2-89.05-400.88c-13.53-308.06,88.69-348.3,88.69-348.3"/>
</g>
</svg>
