<?xml version="1.0" encoding="utf-8"?>
<!-- Generator: Adobe Illustrator 28.0.0, SVG Export Plug-In . SVG Version: 6.00 Build 0)  -->
<svg version="1.1" id="Шар_1" xmlns="http://www.w3.org/2000/svg" xmlns:xlink="http://www.w3.org/1999/xlink" x="0px" y="0px"
	 viewBox="0 0 703.7 639.63" style="enable-background:new 0 0 703.7 639.63;" xml:space="preserve">
<style type="text/css">
	.st0{fill:#FFFFFF;}
	.st1{fill:#0B0F19;}
	.st2{fill:#B74600;}
	.st3{fill:#F8BC3A;}
	.st4{fill:url(#SVGID_1_);}
	.st5{clip-path:url(#SVGID_00000039112257104193513790000010285364923385926822_);fill:#EF8B1D;}
	.st6{clip-path:url(#SVGID_00000039112257104193513790000010285364923385926822_);fill:#FFB000;}
	.st7{clip-path:url(#SVGID_00000039112257104193513790000010285364923385926822_);fill:#F8BC3A;}
	.st8{clip-path:url(#SVGID_00000039112257104193513790000010285364923385926822_);fill:#FFA310;}
	.st9{clip-path:url(#SVGID_00000039112257104193513790000010285364923385926822_);fill:#ED9920;}
	.st10{clip-path:url(#SVGID_00000039112257104193513790000010285364923385926822_);fill:#FCA417;}
	
		.st11{opacity:0.63;clip-path:url(#SVGID_00000039112257104193513790000010285364923385926822_);fill:url(#SVGID_00000070112931278141966340000012033212618417651846_);}
	.st12{clip-path:url(#SVGID_00000039112257104193513790000010285364923385926822_);}
	.st13{fill:#D86D0E;}
	.st14{opacity:0.7;fill:#FFFFFF;}
	
		.st15{fill:url(#SVGID_00000137851942444069914240000009237424646869614005_);stroke:#000000;stroke-width:19;stroke-miterlimit:10;}
	.st16{fill:url(#SVGID_00000011711881717491492680000003223263879702075311_);}
	.st17{clip-path:url(#SVGID_00000144326664607512128020000003873078947239314593_);fill:#EF8B1D;}
	.st18{clip-path:url(#SVGID_00000144326664607512128020000003873078947239314593_);fill:#FFB000;}
	.st19{clip-path:url(#SVGID_00000144326664607512128020000003873078947239314593_);fill:#F8BC3A;}
	.st20{clip-path:url(#SVGID_00000144326664607512128020000003873078947239314593_);fill:#FFA310;}
	.st21{clip-path:url(#SVGID_00000144326664607512128020000003873078947239314593_);fill:#ED9920;}
	.st22{clip-path:url(#SVGID_00000144326664607512128020000003873078947239314593_);fill:#FCA417;}
	
		.st23{opacity:0.63;clip-path:url(#SVGID_00000144326664607512128020000003873078947239314593_);fill:url(#SVGID_00000085250399199596571740000003516971467900861602_);}
	.st24{clip-path:url(#SVGID_00000144326664607512128020000003873078947239314593_);}
	
		.st25{fill:url(#SVGID_00000068636012345669266650000000313112484603521714_);stroke:#000000;stroke-width:19;stroke-miterlimit:10;}
	.st26{fill:url(#SVGID_00000103950217741773526240000016645365013952702084_);}
	.st27{clip-path:url(#SVGID_00000060723015828031059880000018086812070670242993_);fill:#EF8B1D;}
	.st28{clip-path:url(#SVGID_00000060723015828031059880000018086812070670242993_);fill:#FFB000;}
	.st29{clip-path:url(#SVGID_00000060723015828031059880000018086812070670242993_);fill:#F8BC3A;}
	.st30{clip-path:url(#SVGID_00000060723015828031059880000018086812070670242993_);fill:#FFA310;}
	.st31{clip-path:url(#SVGID_00000060723015828031059880000018086812070670242993_);fill:#ED9920;}
	.st32{clip-path:url(#SVGID_00000060723015828031059880000018086812070670242993_);fill:#FCA417;}
	
		.st33{opacity:0.63;clip-path:url(#SVGID_00000060723015828031059880000018086812070670242993_);fill:url(#SVGID_00000047054694666406629350000014007489880226569912_);}
	.st34{clip-path:url(#SVGID_00000060723015828031059880000018086812070670242993_);}
</style>
<rect x="262.4" y="-2107.25" class="st0" width="1492.49" height="1492.49"/>
<rect x="-1909.92" y="-526.05" class="st1" width="1000" height="1000"/>
<g>
	<circle class="st2" cx="-7" cy="-261.15" r="252.79"/>
	<path class="st3" d="M230.62-510.07c0,0-75.11,66.96-131.25,101.88c-56.14,34.92-253.4-6.55-278.87-12.35
		c-25.48-5.8-62.94-21.66-88.45-11.01l-47.1,40.7c0,0,22.95,37.86,91.09,4.77c68.14-33.09,91.52,41.11,153.62,73.46
		c62.1,32.34,149.78,12.93,174.04-31.59c24.25-44.52,155.91-101.84,155.91-101.84L230.62-510.07z M-7.99-328.47
		c9.95,9.21-22.54,6.7-48.65-11.93c0,0-24.13-21.26-38.63-32.46c-14.5-11.2,61.35-10.01,97.16,10.77
		C37.7-341.3-34.62-353.12-7.99-328.47z"/>
	<path class="st3" d="M-224.04-326.48c0.48,17.9,24.5,20.41,39.19,12.25s23.69-3.44,27.76-12.14
		C-147.45-346.94-225.35-375.2-224.04-326.48z"/>
	<path class="st3" d="M-169.29-293.09c15.57,8.6,32.06,11.52,29.67,0.4s-4.85-17.16-14.43-16.21
		C-183.36-305.99-169.29-293.09-169.29-293.09z"/>
	<path class="st3" d="M98.34-518.94c-13.63,0-235.07,10.86-235.07,10.86c-12.39,13.2-58.75,32.86-21.06,49.12
		c63.17,27.25,195.71,29.73,277.63-11.15C138.81-479.57,111.96-518.94,98.34-518.94z M16.24-462.67c-25.65,0-58.76,3.53-58.76-3.65
		c0-18.68,24.93-12.59,50.58-12.59c25.65,0,54.63-3.95,54.63,3.23C62.69-468.5,41.9-462.67,16.24-462.67z"/>
	<path class="st3" d="M89.25-201.08c0,10.76,2.25,23.96-3.06,23.96s-20.81-16.73-20.81-27.49c0-10.76,21.55-20.43,26.86-20.43
		S89.25-211.84,89.25-201.08z"/>
	<path class="st3" d="M-24.98-221.3c-13.23,8.47-54.29,4.45-69.89-9.28c-22.11-19.47-28.44-19.29-24.55-34.52
		s33.59-15.26,62.14-7.98S35.25-259.87-24.98-221.3z"/>
	<path class="st3" d="M-253.6-99.79c53.57-16.42,78.19-12.69,108.04-3.73s67.25,7.41,83.62,6.69s37.26,4.5,55.17,14.2
		s41.04,7.46,35.82,0c-5.22-7.46-2.98,2.94-32.83-14.2s-81.17-10.05-108.12-14.34c-26.94-4.29-102.99-25.18-105.63-22.2
		s-59.36-5.97-59.36-5.97L-253.6-99.79z"/>
	<path class="st3" d="M124.1-58.41C112.91-80.05,18.89-47.97-12.45-32.3S-14.69-15.13,20.38-1.7c0,0,69.39-10.45,70.28-11.94
		S135.29-36.77,124.1-58.41z M95.12-29.61C82.48-17.47,21.31-7.77,15.71-18.59c-5.6-10.82,15.19-11.67,34.35-15.11
		C89.57-40.77,102.21-36.42,95.12-29.61z"/>
	<path class="st3" d="M245.79-358.03c-36.41,5.83-34.24-18.74-68.47,6.75c-34.23,25.49-74.29,20.06-49.52,47.17
		c24.76,27.11,42.24-7.12,49.52,25.65c7.28,32.77-28.08,92.49,3.08,72.1c31.15-20.39,68.3-36.41,79.22-36.41
		C270.54-242.77,245.79-358.03,245.79-358.03z M192.27-245.68c-8.83-4.37-1.21-50.98-15.68-58.43c-4.88-2.51-23.31-5.66-15.29-16.59
		c0,0,16.02-13.11,34.23-16.02c18.21-2.91,24.03,12.38,29.13,49.16C229.76-250.78,201.1-241.31,192.27-245.68z"/>
	<path class="st3" d="M-100.08-13.83c-6.93-20.79,6.64-29.25,12.94-22.32c6.3,6.93,24.38,11.42,26.89-2.37s27.91-14.56,32.53-8.4
		s123.2-37.72,147.82-19.25s39.2,9.86,39.2,9.86s-18.7-32.75-44.35-31.7S26.69-49.24-16.29-64.64s-80.16-9.12-116.88-6.16
		s-71.59,2.31-71.59,2.31L-100.08-13.83z"/>
	<path class="st3" d="M233.08-211.66c-32.56,5.42-16.28,12.02-59.3,37.6c-43.02,25.58-6.98-26.74-18.6-63.95
		c-11.63-37.21-43.02,16.28-53.49,69.77c-10.47,53.49-23.26,4.65-60.47-16.28s20.93-16.28,0-33.72
		c-20.93-17.44-46.51,54.65-91.86,39.53c-30.49-10.16-46.26-21.9-70.99-28.27c-10.46-2.69-20.38-7.29-28.85-14
		c-1.07-0.85-2.11-1.71-3.12-2.59c-23.47-20.41-70.03-61.54-86.34-71.95c-16.31-10.41-49.03-25.22-50.24-15.42
		c-1.21,9.8,10.47,72.67,10.47,72.67l3.84-0.82c22.86-5.72,48.18-3.27,62.87,7.35c11.68,8.43,24.9,15.31,38.45,20.25
		c-49.39,1.72-39.74,13.19-105.16,17.08c0,0,40.7,20.29,87.21,35.47c46.51,15.18,110.47,18.6,177.91,22.09
		c67.44,3.49,23.26,19.77,79.07,38.37s11.63-19.77,43.02-33.72c31.4-13.95,6.98,6.98,25.58,34.88c18.6,27.91,20.93-12.79,45.35-45.6
		c24.42-32.81,26.74-9.05,46.51-1.13c8.29,3.32,16.58-1.02,24.1-8.85c-33.28-22.25-45.83-28.17-31.71-36.99
		c14.96-9.35,27.57-11.68,37.86-9.35c4.9,1.11,11.7,4.24,17.48,7.46c0.38-0.9,0.75-1.78,1.11-2.64
		C283.08-217.08,265.63-217.08,233.08-211.66z M-135.97-174.74c-33.84-3.83-36.39-15.32-27.45-19.66
		c8.94-4.34,68.85,7.18,83.63,25.2C-75.17-163.59-102.13-170.91-135.97-174.74z M146.76-206.71c-2.74,11.78-8.42,20.52-12.67,19.53
		s-5.48-11.34-2.73-23.12s8.42-20.52,12.67-19.53C148.28-228.84,149.51-218.49,146.76-206.71z"/>
	<path class="st3" d="M232.48-376.77c-17.35,4.86-30.43-3.47-40.19,0c-9.76,3.47-29.19-2.08-12.54-14.57
		c16.65-12.49,39.55-15.26,39.55-15.26L232.48-376.77z"/>
</g>
<g>
	
		<radialGradient id="SVGID_1_" cx="616.7597" cy="-263.5834" r="252.7907" fx="526.3655" fy="-406.7994" gradientUnits="userSpaceOnUse">
		<stop  offset="0.5536" style="stop-color:#EA6A00"/>
		<stop  offset="0.9998" style="stop-color:#B51E12"/>
	</radialGradient>
	<circle class="st4" cx="616.76" cy="-263.58" r="252.79"/>
	<g>
		<defs>
			<circle id="SVGID_00000165928523627925968170000001246601887055109270_" cx="669.82" cy="-263.58" r="252.79"/>
		</defs>
		<clipPath id="SVGID_00000111155177147032906160000001490493601583444918_">
			<use xlink:href="#SVGID_00000165928523627925968170000001246601887055109270_"  style="overflow:visible;"/>
		</clipPath>
		<path style="clip-path:url(#SVGID_00000111155177147032906160000001490493601583444918_);fill:#EF8B1D;" d="M907.44-512.51
			c0,0-75.11,66.96-131.25,101.88c-56.14,34.92-253.4-6.55-278.87-12.35c-25.48-5.8-62.94-21.66-88.45-11.01l-77.58-4.92
			c0,0,53.43,83.48,121.57,50.39c68.14-33.09,91.52,41.11,153.62,73.46s149.78,12.93,174.04-31.59
			c24.25-44.52,155.91-101.84,155.91-101.84L907.44-512.51z M668.83-330.9c9.95,9.21-22.54,6.7-48.65-11.93
			c0,0-24.13-21.26-38.63-32.46c-14.5-11.2,61.35-10.01,97.16,10.77C714.52-343.73,642.2-355.55,668.83-330.9z"/>
		<path style="clip-path:url(#SVGID_00000111155177147032906160000001490493601583444918_);fill:#FFB000;" d="M452.78-328.91
			c0.48,17.9,24.5,20.41,39.19,12.25c14.7-8.17,23.69-3.44,27.76-12.14C529.37-349.37,451.47-377.64,452.78-328.91z"/>
		<path style="clip-path:url(#SVGID_00000111155177147032906160000001490493601583444918_);fill:#F8BC3A;" d="M507.53-295.52
			c15.57,8.6,32.06,11.52,29.67,0.4c-2.39-11.12-4.85-17.16-14.43-16.21C493.46-308.43,507.53-295.52,507.53-295.52z"/>
		<path style="clip-path:url(#SVGID_00000111155177147032906160000001490493601583444918_);fill:#EF8B1D;" d="M775.16-521.37
			c-13.63,0-235.07,10.86-235.07,10.86c-12.39,13.2-58.75,32.86-21.06,49.12c63.17,27.25,195.71,29.73,277.63-11.15
			C815.63-482,788.78-521.37,775.16-521.37z M693.06-465.11c-25.65,0-58.76,3.53-58.76-3.65c0-18.68,24.92-12.59,50.58-12.59
			c25.65,0,54.63-3.95,54.63,3.23C739.52-470.93,718.72-465.11,693.06-465.11z"/>
		<path style="clip-path:url(#SVGID_00000111155177147032906160000001490493601583444918_);fill:#F8BC3A;" d="M766.07-203.51
			c0,10.76,2.25,23.96-3.06,23.96s-20.81-16.73-20.81-27.49c0-10.76,21.55-20.43,26.86-20.43S766.07-214.27,766.07-203.51z"/>
		<path style="clip-path:url(#SVGID_00000111155177147032906160000001490493601583444918_);fill:#FFA310;" d="M651.84-223.73
			c-13.23,8.47-54.29,4.45-69.89-9.28c-22.11-19.47-28.44-19.29-24.55-34.52s33.59-15.26,62.14-7.98
			C648.09-268.22,712.07-262.31,651.84-223.73z"/>
		<path style="clip-path:url(#SVGID_00000111155177147032906160000001490493601583444918_);fill:#ED9920;" d="M423.22-102.22
			c53.57-16.42,78.19-12.69,108.04-3.73c29.85,8.95,67.25,7.41,83.62,6.69c16.37-0.72,37.26,4.5,55.17,14.2s41.04,7.46,35.82,0
			c-5.22-7.46-2.98,2.94-32.83-14.2s-81.17-10.05-108.12-14.34c-26.94-4.29-102.99-25.18-105.63-22.2
			c-2.65,2.98-59.36-5.97-59.36-5.97L423.22-102.22z"/>
		<path style="clip-path:url(#SVGID_00000111155177147032906160000001490493601583444918_);fill:#FCA417;" d="M800.92-60.85
			C789.73-82.49,695.71-50.4,664.37-34.73s-2.24,17.16,32.83,30.59c0,0,69.39-10.45,70.28-11.94S812.12-39.21,800.92-60.85z
			 M771.94-32.04c-12.64,12.13-73.81,21.84-79.4,11.02c-5.6-10.82,15.19-11.67,34.35-15.11C766.39-43.21,779.03-38.85,771.94-32.04z
			"/>
		<path style="clip-path:url(#SVGID_00000111155177147032906160000001490493601583444918_);fill:#EF8B1D;" d="M922.61-360.47
			c-36.41,5.83-34.24-18.74-68.47,6.75c-34.23,25.49-74.29,20.06-49.52,47.17c24.76,27.11,42.24-7.12,49.52,25.65
			c7.28,32.77-28.08,92.49,3.08,72.1c31.15-20.39,68.3-36.41,79.22-36.41C947.36-245.2,922.61-360.47,922.61-360.47z M869.09-248.12
			c-8.83-4.37-1.21-50.98-15.68-58.43c-4.88-2.51-23.31-5.66-15.29-16.59c0,0,16.02-13.11,34.23-16.02
			c18.21-2.91,24.03,12.38,29.13,49.16C906.58-253.21,877.92-243.75,869.09-248.12z"/>
		<path style="clip-path:url(#SVGID_00000111155177147032906160000001490493601583444918_);fill:#EF8B1D;" d="M576.74-16.26
			c-6.93-20.79,6.64-29.25,12.94-22.32c6.3,6.93,24.38,11.42,26.89-2.37c2.51-13.79,27.91-14.56,32.53-8.4s123.2-37.72,147.82-19.25
			c24.62,18.48,39.2,9.86,39.2,9.86s-18.7-32.75-44.35-31.7s-88.27,38.78-131.25,23.38s-80.16-9.12-116.88-6.16
			s-71.59,2.31-71.59,2.31L576.74-16.26z"/>
		<path style="clip-path:url(#SVGID_00000111155177147032906160000001490493601583444918_);fill:#EF8B1D;" d="M909.9-214.1
			c-32.56,5.42-16.28,12.02-59.3,37.6c-43.02,25.58-6.98-26.74-18.6-63.95c-11.63-37.21-43.02,16.28-53.49,69.77
			c-10.47,53.49-23.26,4.65-60.47-16.28s20.93-16.28,0-33.72c-20.93-17.44-46.51,54.65-91.86,39.53
			c-30.49-10.16-46.26-21.9-70.99-28.27c-10.46-2.69-20.38-7.29-28.85-14c-1.07-0.85-2.11-1.71-3.12-2.59
			c-23.47-20.41-70.03-61.54-86.34-71.95c-16.31-10.41-49.03-25.22-50.24-15.42c-1.21,9.8,10.47,72.67,10.47,72.67l3.84-0.82
			c22.86-5.72,48.18-3.27,62.87,7.35c11.68,8.43,24.9,15.31,38.45,20.25c-49.39,1.72-39.74,13.19-105.16,17.08
			c0,0,40.7,20.29,87.21,35.47c46.51,15.18,110.47,18.6,177.91,22.09c67.44,3.49,23.26,19.77,79.07,38.37s11.63-19.77,43.02-33.72
			c31.4-13.95,6.98,6.98,25.58,34.88c18.6,27.91,20.93-12.79,45.35-45.6c24.42-32.81,26.74-9.05,46.51-1.13
			c8.29,3.32,16.58-1.02,24.1-8.85c-33.28-22.25-45.83-28.17-31.71-36.99c14.96-9.35,27.57-11.68,37.86-9.35
			c4.9,1.11,11.7,4.24,17.48,7.46c0.38-0.9,0.75-1.78,1.11-2.64C959.9-219.52,942.45-219.52,909.9-214.1z M540.86-177.18
			c-33.84-3.83-36.39-15.32-27.45-19.66c8.94-4.34,68.85,7.18,83.63,25.2C601.65-166.02,574.69-173.35,540.86-177.18z
			 M823.58-209.15c-2.74,11.78-8.42,20.52-12.67,19.53s-5.48-11.34-2.73-23.12s8.42-20.52,12.67-19.53
			C825.1-231.28,826.33-220.92,823.58-209.15z"/>
		
			<radialGradient id="SVGID_00000034796396220184919710000006777361362577180041_" cx="741.2242" cy="-341.9031" r="174.2928" fx="728.8625" fy="-370.8358" gradientUnits="userSpaceOnUse">
			<stop  offset="0.1776" style="stop-color:#FFBC00"/>
			<stop  offset="1" style="stop-color:#DD6657"/>
		</radialGradient>
		
			<path style="opacity:0.63;clip-path:url(#SVGID_00000111155177147032906160000001490493601583444918_);fill:url(#SVGID_00000034796396220184919710000006777361362577180041_);" d="
			M549.9-284.07c-14.18-248.5,384.91-274.22,383.02-103.87C931.31-243.35,561.7-77.29,549.9-284.07z"/>
		<g style="clip-path:url(#SVGID_00000111155177147032906160000001490493601583444918_);">
			<path class="st13" d="M738.15-524.33c132.14-18.46,258.31,71.35,277.55,204.16c23.32,160.99-75.09,265.13-223.08,293.1
				c-133.95,25.31-248.83-71.9-271.1-206.4c-21.92-132.39,73.03-263.65,204.06-288.78c-138.14,26.3-230.75,158.22-207.65,297.71
				C541.37-82.95,675.16,12.83,816.76-10.62s237.37-157.24,213.92-298.83C1007.58-448.94,877.39-543.96,738.15-524.33z"/>
			<path class="st0" d="M627.36-534.01c2.1-0.35,4.2-0.67,6.3-0.96C631.57-534.68,629.47-534.36,627.36-534.01z"/>
			<path class="st0" d="M621.09-532.89c2.08-0.4,4.17-0.77,6.27-1.12C625.26-533.67,623.17-533.29,621.09-532.89z"/>
		</g>
	</g>
	<path class="st14" d="M551.48-436.91c-25.34,20.66-17.14,31.64-17.14,31.64s11.75-12.18,19.64-21.81
		C566.71-442.58,573.92-455.19,551.48-436.91z"/>
</g>
<g>
	
		<radialGradient id="SVGID_00000012469329854829232570000014464456727883943321_" cx="-1425.2124" cy="-39.9701" r="252.7907" fx="-1515.6066" fy="-183.1862" gradientUnits="userSpaceOnUse">
		<stop  offset="0.5536" style="stop-color:#EA6A00"/>
		<stop  offset="0.9998" style="stop-color:#B51E12"/>
	</radialGradient>
	
		<circle style="fill:url(#SVGID_00000012469329854829232570000014464456727883943321_);stroke:#000000;stroke-width:19;stroke-miterlimit:10;" cx="-1425.21" cy="-39.97" r="252.79"/>
	
		<radialGradient id="SVGID_00000120540267059494903160000006634335757136522396_" cx="-1425.2124" cy="-39.9701" r="252.7907" fx="-1515.6066" fy="-183.1862" gradientUnits="userSpaceOnUse">
		<stop  offset="0.5536" style="stop-color:#EA6A00"/>
		<stop  offset="0.9998" style="stop-color:#B51E12"/>
	</radialGradient>
	<circle style="fill:url(#SVGID_00000120540267059494903160000006634335757136522396_);" cx="-1425.21" cy="-39.97" r="252.79"/>
	<g>
		<defs>
			<circle id="SVGID_00000171683151514629832380000000333887336241536131_" cx="-1425.21" cy="-39.97" r="252.79"/>
		</defs>
		<clipPath id="SVGID_00000072993569038513089500000007407029595004030640_">
			<use xlink:href="#SVGID_00000171683151514629832380000000333887336241536131_"  style="overflow:visible;"/>
		</clipPath>
		<path style="clip-path:url(#SVGID_00000072993569038513089500000007407029595004030640_);fill:#EF8B1D;" d="M-1187.59-288.89
			c0,0-75.11,66.96-131.25,101.88c-56.14,34.92-253.4-6.55-278.87-12.35c-25.48-5.8-62.94-21.66-88.45-11.01l-77.58-4.92
			c0,0,53.43,83.48,121.57,50.39c68.14-33.09,91.52,41.11,153.62,73.46c62.1,32.34,149.78,12.93,174.04-31.59
			c24.25-44.52,155.91-101.84,155.91-101.84L-1187.59-288.89z M-1426.2-107.29c9.95,9.21-22.54,6.7-48.65-11.93
			c0,0-24.13-21.26-38.63-32.46s61.35-10.01,97.16,10.77C-1380.51-120.12-1452.83-131.94-1426.2-107.29z"/>
		<path style="clip-path:url(#SVGID_00000072993569038513089500000007407029595004030640_);fill:#FFB000;" d="M-1642.25-105.3
			c0.48,17.9,24.5,20.41,39.19,12.25c14.7-8.17,23.69-3.44,27.76-12.14C-1565.66-125.76-1643.56-154.02-1642.25-105.3z"/>
		<path style="clip-path:url(#SVGID_00000072993569038513089500000007407029595004030640_);fill:#F8BC3A;" d="M-1587.5-71.91
			c15.57,8.6,32.06,11.52,29.67,0.4s-4.85-17.16-14.43-16.21C-1601.57-84.82-1587.5-71.91-1587.5-71.91z"/>
		<path style="clip-path:url(#SVGID_00000072993569038513089500000007407029595004030640_);fill:#EF8B1D;" d="M-1319.87-297.76
			c-13.63,0-235.07,10.86-235.07,10.86c-12.39,13.2-58.75,32.86-21.06,49.12c63.17,27.25,195.71,29.73,277.63-11.15
			C-1279.4-258.39-1306.25-297.76-1319.87-297.76z M-1401.97-241.49c-25.65,0-58.76,3.53-58.76-3.65
			c0-18.68,24.92-12.59,50.58-12.59c25.65,0,54.63-3.95,54.63,3.23C-1355.52-247.32-1376.31-241.49-1401.97-241.49z"/>
		<path style="clip-path:url(#SVGID_00000072993569038513089500000007407029595004030640_);fill:#F8BC3A;" d="M-1328.96,20.1
			c0,10.76,2.25,23.96-3.06,23.96s-20.81-16.73-20.81-27.49s21.55-20.43,26.86-20.43C-1320.67-3.86-1328.96,9.34-1328.96,20.1z"/>
		<path style="clip-path:url(#SVGID_00000072993569038513089500000007407029595004030640_);fill:#FFA310;" d="M-1443.19-0.12
			c-13.23,8.47-54.29,4.45-69.89-9.28c-22.11-19.47-28.44-19.29-24.55-34.52c3.88-15.22,33.59-15.26,62.14-7.98
			S-1382.96-38.69-1443.19-0.12z"/>
		<path style="clip-path:url(#SVGID_00000072993569038513089500000007407029595004030640_);fill:#ED9920;" d="M-1671.81,121.39
			c53.57-16.42,78.19-12.69,108.04-3.73c29.85,8.95,67.25,7.41,83.62,6.69s37.26,4.5,55.17,14.2c17.91,9.7,41.04,7.46,35.82,0
			c-5.22-7.46-2.98,2.94-32.83-14.2c-29.85-17.14-81.17-10.05-108.12-14.34c-26.94-4.29-102.99-25.18-105.63-22.2
			c-2.65,2.98-59.36-5.97-59.36-5.97L-1671.81,121.39z"/>
		<path style="clip-path:url(#SVGID_00000072993569038513089500000007407029595004030640_);fill:#FCA417;" d="M-1294.11,162.77
			c-11.19-21.64-105.21,10.45-136.55,26.12s-2.24,17.16,32.83,30.59c0,0,69.39-10.45,70.28-11.94
			C-1326.66,206.04-1282.92,184.41-1294.11,162.77z M-1323.09,191.57c-12.64,12.13-73.81,21.84-79.4,11.02s15.19-11.67,34.35-15.11
			C-1328.64,180.41-1316,184.76-1323.09,191.57z"/>
		<path style="clip-path:url(#SVGID_00000072993569038513089500000007407029595004030640_);fill:#EF8B1D;" d="M-1172.42-136.85
			c-36.41,5.83-34.24-18.74-68.47,6.75c-34.23,25.49-74.29,20.06-49.52,47.17c24.76,27.11,42.24-7.12,49.52,25.65
			s-28.08,92.49,3.08,72.1s68.3-36.41,79.22-36.41C-1147.67-21.59-1172.42-136.85-1172.42-136.85z M-1225.94-24.5
			c-8.83-4.37-1.21-50.98-15.68-58.43c-4.88-2.51-23.31-5.66-15.29-16.59c0,0,16.02-13.11,34.23-16.02
			c18.21-2.91,24.03,12.38,29.13,49.16S-1217.11-20.13-1225.94-24.5z"/>
		<path style="clip-path:url(#SVGID_00000072993569038513089500000007407029595004030640_);fill:#EF8B1D;" d="M-1518.29,207.35
			c-6.93-20.79,6.64-29.25,12.94-22.32s24.38,11.42,26.89-2.37c2.51-13.79,27.91-14.56,32.53-8.4s123.2-37.72,147.82-19.25
			s39.2,9.86,39.2,9.86s-18.7-32.75-44.35-31.7c-25.65,1.05-88.27,38.78-131.25,23.38c-42.98-15.4-80.16-9.12-116.88-6.16
			c-36.72,2.96-71.59,2.31-71.59,2.31L-1518.29,207.35z"/>
		<path style="clip-path:url(#SVGID_00000072993569038513089500000007407029595004030640_);fill:#EF8B1D;" d="M-1185.14,9.51
			c-32.56,5.42-16.28,12.02-59.3,37.6c-43.02,25.58-6.98-26.74-18.6-63.95c-11.63-37.21-43.02,16.28-53.49,69.77
			c-10.47,53.49-23.26,4.65-60.47-16.28c-37.21-20.93,20.93-16.28,0-33.72c-20.93-17.44-46.51,54.65-91.86,39.53
			c-30.49-10.16-46.26-21.9-70.99-28.27c-10.46-2.69-20.38-7.29-28.85-14c-1.07-0.85-2.11-1.71-3.12-2.59
			c-23.47-20.41-70.03-61.54-86.34-71.95c-16.31-10.41-49.03-25.22-50.24-15.42c-1.21,9.8,10.47,72.67,10.47,72.67l3.84-0.82
			c22.86-5.72,48.18-3.27,62.87,7.35c11.68,8.43,24.9,15.31,38.45,20.25c-49.39,1.72-39.74,13.19-105.16,17.08
			c0,0,40.7,20.29,87.21,35.47c46.51,15.18,110.47,18.6,177.91,22.09c67.44,3.49,23.26,19.77,79.07,38.37s11.63-19.77,43.02-33.72
			s6.98,6.98,25.58,34.88c18.6,27.91,20.93-12.79,45.35-45.6c24.42-32.81,26.74-9.05,46.51-1.13c8.29,3.32,16.58-1.02,24.1-8.85
			c-33.28-22.25-45.83-28.17-31.71-36.99c14.96-9.35,27.57-11.68,37.86-9.35c4.9,1.11,11.7,4.24,17.48,7.46
			c0.38-0.9,0.75-1.78,1.11-2.64C-1135.14,4.1-1152.58,4.1-1185.14,9.51z M-1554.18,46.43c-33.84-3.83-36.39-15.32-27.45-19.66
			s68.85,7.18,83.63,25.2C-1493.39,57.59-1520.34,50.26-1554.18,46.43z M-1271.45,14.47c-2.74,11.78-8.42,20.52-12.67,19.53
			s-5.48-11.34-2.73-23.12c2.74-11.78,8.42-20.52,12.67-19.53S-1268.7,2.69-1271.45,14.47z"/>
		
			<radialGradient id="SVGID_00000170995757522023294550000011337930935467074715_" cx="-1458.2255" cy="-114.9778" r="174.2928" fx="-1470.5873" fy="-143.9105" gradientUnits="userSpaceOnUse">
			<stop  offset="0.1776" style="stop-color:#FFBC00"/>
			<stop  offset="1" style="stop-color:#DD6657"/>
		</radialGradient>
		
			<path style="opacity:0.63;clip-path:url(#SVGID_00000072993569038513089500000007407029595004030640_);fill:url(#SVGID_00000170995757522023294550000011337930935467074715_);" d="
			M-1649.55-57.15c-14.18-248.5,384.91-274.22,383.02-103.87C-1268.14-16.43-1637.75,149.63-1649.55-57.15z"/>
		<g style="clip-path:url(#SVGID_00000072993569038513089500000007407029595004030640_);">
			<path class="st13" d="M-1461.37-304.43c132.14-18.46,258.31,71.35,277.55,204.16c23.32,160.99-75.09,265.13-223.08,293.1
				c-133.95,25.31-248.83-71.9-271.1-206.4c-21.92-132.39,73.03-263.65,204.06-288.78c-138.14,26.3-230.75,158.22-207.65,297.71
				c23.45,141.59,157.24,237.37,298.83,213.92s237.37-157.24,213.92-298.83C-1191.93-229.03-1322.13-324.05-1461.37-304.43z"/>
			<path class="st0" d="M-1467.67-310.4c2.1-0.35,4.2-0.67,6.3-0.96C-1463.46-311.07-1465.56-310.75-1467.67-310.4z"/>
			<path class="st0" d="M-1473.94-309.28c2.08-0.4,4.17-0.77,6.27-1.12C-1469.77-310.05-1471.86-309.68-1473.94-309.28z"/>
		</g>
	</g>
	<path class="st14" d="M-1566.81-213.29c-25.34,20.66-17.14,31.64-17.14,31.64s11.75-12.18,19.64-21.81
		C-1551.59-218.96-1544.38-231.58-1566.81-213.29z"/>
	<path class="st14" d="M-1250.99,106.19c0,0,14.16,5.53,36.31-39.5c27.57-56.06,5.23-27.11-0.76-25.18
		c-5.73,1.85-8.78-1.82-15.21,18.65C-1241,93.13-1250.99,106.19-1250.99,106.19z"/>
</g>
<g>
	
		<radialGradient id="SVGID_00000124855243258967026190000016833540259699291025_" cx="322.7695" cy="305.981" r="252.7907" fx="232.3754" fy="162.7649" gradientUnits="userSpaceOnUse">
		<stop  offset="0.5536" style="stop-color:#EA6A00"/>
		<stop  offset="0.9998" style="stop-color:#B51E12"/>
	</radialGradient>
	
		<circle style="fill:url(#SVGID_00000124855243258967026190000016833540259699291025_);stroke:#000000;stroke-width:19;stroke-miterlimit:10;" cx="322.77" cy="305.98" r="252.79"/>
	
		<radialGradient id="SVGID_00000119840776787830826510000005313366225836317853_" cx="322.7695" cy="305.981" r="252.7907" fx="232.3754" fy="162.7649" gradientUnits="userSpaceOnUse">
		<stop  offset="0.5536" style="stop-color:#EA6A00"/>
		<stop  offset="0.9998" style="stop-color:#B51E12"/>
	</radialGradient>
	<circle style="fill:url(#SVGID_00000119840776787830826510000005313366225836317853_);" cx="322.77" cy="305.98" r="252.79"/>
	<g>
		<defs>
			<circle id="SVGID_00000124120414431633287260000012225027387275158669_" cx="322.77" cy="305.98" r="252.79"/>
		</defs>
		<clipPath id="SVGID_00000015323428814168756360000006233932630934192275_">
			<use xlink:href="#SVGID_00000124120414431633287260000012225027387275158669_"  style="overflow:visible;"/>
		</clipPath>
		<path style="clip-path:url(#SVGID_00000015323428814168756360000006233932630934192275_);fill:#EF8B1D;" d="M560.39,57.06
			c0,0-75.11,66.96-131.25,101.88c-56.14,34.92-253.4-6.55-278.87-12.35c-25.48-5.8-62.94-21.66-88.45-11.01l-77.58-4.92
			c0,0,53.43,83.48,121.57,50.39c68.14-33.09,91.52,41.11,153.62,73.46c62.1,32.34,149.78,12.93,174.04-31.59
			c24.25-44.52,155.91-101.84,155.91-101.84L560.39,57.06z M321.78,238.66c9.95,9.21-22.54,6.7-48.65-11.93
			c0,0-24.13-21.26-38.63-32.46c-14.5-11.2,61.35-10.01,97.16,10.77C367.47,225.83,295.15,214.01,321.78,238.66z"/>
		<path style="clip-path:url(#SVGID_00000015323428814168756360000006233932630934192275_);fill:#FFB000;" d="M105.73,240.65
			c0.48,17.9,24.5,20.41,39.19,12.25c14.7-8.17,23.69-3.44,27.76-12.14C182.32,220.19,104.42,191.93,105.73,240.65z"/>
		<path style="clip-path:url(#SVGID_00000015323428814168756360000006233932630934192275_);fill:#F8BC3A;" d="M160.48,274.04
			c15.57,8.6,32.06,11.52,29.67,0.4c-2.39-11.12-4.85-17.16-14.43-16.21C146.41,261.13,160.48,274.04,160.48,274.04z"/>
		<path style="clip-path:url(#SVGID_00000015323428814168756360000006233932630934192275_);fill:#EF8B1D;" d="M428.11,48.19
			c-13.63,0-235.07,10.86-235.07,10.86c-12.39,13.2-58.75,32.86-21.06,49.12c63.17,27.25,195.71,29.73,277.63-11.15
			C468.58,87.56,441.73,48.19,428.11,48.19z M346.02,104.46c-25.65,0-58.76,3.53-58.76-3.65c0-18.68,24.93-12.59,50.58-12.59
			c25.65,0,54.63-3.95,54.63,3.23C392.47,98.63,371.67,104.46,346.02,104.46z"/>
		<path style="clip-path:url(#SVGID_00000015323428814168756360000006233932630934192275_);fill:#F8BC3A;" d="M419.02,366.05
			c0,10.76,2.25,23.96-3.06,23.96c-5.31,0-20.81-16.73-20.81-27.49s21.55-20.43,26.86-20.43
			C427.32,342.09,419.02,355.29,419.02,366.05z"/>
		<path style="clip-path:url(#SVGID_00000015323428814168756360000006233932630934192275_);fill:#FFA310;" d="M304.79,345.83
			c-13.23,8.47-54.29,4.45-69.89-9.28c-22.11-19.47-28.44-19.29-24.55-34.52c3.88-15.22,33.59-15.26,62.14-7.98
			C301.04,301.34,365.02,307.26,304.79,345.83z"/>
		<path style="clip-path:url(#SVGID_00000015323428814168756360000006233932630934192275_);fill:#ED9920;" d="M76.17,467.34
			c53.57-16.42,78.19-12.69,108.04-3.73c29.85,8.95,67.25,7.41,83.62,6.69s37.26,4.5,55.17,14.2c17.91,9.7,41.04,7.46,35.82,0
			c-5.22-7.46-2.98,2.94-32.83-14.2c-29.85-17.14-81.17-10.05-108.12-14.34s-102.99-25.18-105.63-22.2
			c-2.65,2.98-59.36-5.97-59.36-5.97L76.17,467.34z"/>
		<path style="clip-path:url(#SVGID_00000015323428814168756360000006233932630934192275_);fill:#FCA417;" d="M453.87,508.72
			c-11.19-21.64-105.21,10.45-136.55,26.12s-2.24,17.16,32.83,30.59c0,0,69.39-10.45,70.28-11.94S465.07,530.36,453.87,508.72z
			 M424.89,537.52c-12.64,12.13-73.81,21.84-79.4,11.02c-5.6-10.82,15.19-11.67,34.35-15.11
			C419.34,526.36,431.98,530.71,424.89,537.52z"/>
		<path style="clip-path:url(#SVGID_00000015323428814168756360000006233932630934192275_);fill:#EF8B1D;" d="M575.56,209.1
			c-36.41,5.83-34.24-18.74-68.47,6.75c-34.23,25.49-74.29,20.06-49.52,47.17c24.76,27.11,42.24-7.12,49.52,25.65
			c7.28,32.77-28.08,92.49,3.08,72.1c31.15-20.39,68.3-36.41,79.22-36.41C600.31,324.36,575.56,209.1,575.56,209.1z M522.04,321.45
			c-8.83-4.37-1.21-50.98-15.68-58.43c-4.88-2.51-23.31-5.66-15.29-16.59c0,0,16.02-13.11,34.23-16.02
			c18.21-2.91,24.03,12.38,29.13,49.16C559.53,316.35,530.87,325.82,522.04,321.45z"/>
		<path style="clip-path:url(#SVGID_00000015323428814168756360000006233932630934192275_);fill:#EF8B1D;" d="M229.7,553.3
			c-6.93-20.79,6.64-29.25,12.94-22.32c6.3,6.93,24.38,11.42,26.89-2.37c2.51-13.79,27.91-14.56,32.53-8.4
			c4.62,6.16,123.2-37.72,147.82-19.25c24.62,18.48,39.2,9.86,39.2,9.86s-18.7-32.75-44.35-31.7
			c-25.65,1.05-88.27,38.78-131.25,23.38c-42.98-15.4-80.16-9.12-116.88-6.16S125,498.65,125,498.65L229.7,553.3z"/>
		<path style="clip-path:url(#SVGID_00000015323428814168756360000006233932630934192275_);fill:#EF8B1D;" d="M562.85,355.47
			c-32.56,5.42-16.28,12.02-59.3,37.6c-43.02,25.58-6.98-26.74-18.6-63.95c-11.63-37.21-43.02,16.28-53.49,69.77
			c-10.47,53.49-23.26,4.65-60.47-16.28s20.93-16.28,0-33.72c-20.93-17.44-46.51,54.65-91.86,39.53
			c-30.49-10.16-46.26-21.9-70.99-28.27c-10.46-2.69-20.38-7.29-28.85-14c-1.07-0.85-2.11-1.71-3.12-2.59
			c-23.47-20.41-70.03-61.54-86.34-71.95c-16.31-10.41-49.03-25.22-50.24-15.42c-1.21,9.8,10.47,72.67,10.47,72.67l3.84-0.82
			c22.86-5.72,48.18-3.27,62.87,7.35c11.68,8.43,24.9,15.31,38.45,20.25c-49.39,1.72-39.74,13.19-105.16,17.08
			c0,0,40.7,20.29,87.21,35.47c46.51,15.18,110.47,18.6,177.91,22.09c67.44,3.49,23.26,19.77,79.07,38.37s11.63-19.77,43.02-33.72
			c31.4-13.95,6.98,6.98,25.58,34.88c18.6,27.91,20.93-12.79,45.35-45.6c24.42-32.81,26.74-9.05,46.51-1.13
			c8.29,3.32,16.58-1.02,24.1-8.85c-33.28-22.25-45.83-28.17-31.71-36.99c14.96-9.35,27.57-11.68,37.86-9.35
			c4.9,1.11,11.7,4.24,17.48,7.46c0.38-0.9,0.75-1.78,1.11-2.64C612.85,350.05,595.4,350.05,562.85,355.47z M193.81,392.39
			c-33.84-3.83-36.39-15.32-27.45-19.66c8.94-4.34,68.85,7.18,83.63,25.2C254.6,403.54,227.64,396.22,193.81,392.39z M476.53,360.42
			c-2.74,11.78-8.42,20.52-12.67,19.53s-5.48-11.34-2.73-23.12s8.42-20.52,12.67-19.53C478.06,338.29,479.28,348.64,476.53,360.42z"
			/>
		
			<radialGradient id="SVGID_00000029749010395044347130000001835699558199664568_" cx="289.7565" cy="230.9734" r="174.2928" fx="277.3947" fy="202.0406" gradientUnits="userSpaceOnUse">
			<stop  offset="0.1776" style="stop-color:#FFBC00"/>
			<stop  offset="1" style="stop-color:#DD6657"/>
		</radialGradient>
		
			<path style="opacity:0.63;clip-path:url(#SVGID_00000015323428814168756360000006233932630934192275_);fill:url(#SVGID_00000029749010395044347130000001835699558199664568_);" d="
			M98.43,288.8C84.25,40.3,483.34,14.58,481.45,184.93C479.84,329.52,110.23,495.58,98.43,288.8z"/>
		<g style="clip-path:url(#SVGID_00000015323428814168756360000006233932630934192275_);">
			<path class="st13" d="M286.61,41.52c132.14-18.46,258.31,71.35,277.55,204.16c23.32,160.99-75.09,265.13-223.08,293.1
				c-133.95,25.31-248.83-71.9-271.1-206.4C48.06,199.99,143.01,68.73,274.04,43.61C135.91,69.91,43.29,201.83,66.39,341.32
				c23.45,141.59,157.24,237.37,298.83,213.92S602.59,398,579.15,256.41C556.05,116.92,425.86,21.9,286.61,41.52z"/>
			<path class="st0" d="M280.32,35.55c2.1-0.35,4.2-0.67,6.3-0.96C284.52,34.88,282.42,35.2,280.32,35.55z"/>
			<path class="st0" d="M274.04,36.67c2.08-0.4,4.17-0.77,6.27-1.12C278.21,35.9,276.12,36.27,274.04,36.67z"/>
		</g>
	</g>
	<path class="st14" d="M181.17,132.66c-25.34,20.66-17.14,31.64-17.14,31.64s11.75-12.18,19.64-21.81
		C196.39,126.99,203.61,114.37,181.17,132.66z"/>
	<path class="st14" d="M497,452.14c0,0,14.16,5.53,36.31-39.5c27.57-56.06,5.23-27.11-0.76-25.18c-5.73,1.85-8.78-1.82-15.21,18.65
		C506.99,439.09,497,452.14,497,452.14z"/>
</g>
<g>
	<path class="st0" d="M-1718.25,275.99c0,27.53-22.32,49.85-49.85,49.85c27.53,0,49.85,22.32,49.85,49.85
		c0-27.53,22.32-49.85,49.85-49.85C-1695.93,325.84-1718.25,303.52-1718.25,275.99z"/>
</g>
<g>
	<path class="st0" d="M-1656.34-343.66c0,17.68-14.34,32.02-32.02,32.02c17.68,0,32.02,14.34,32.02,32.02
		c0-17.68,14.34-32.02,32.02-32.02C-1642.01-311.64-1656.34-325.98-1656.34-343.66z"/>
</g>
<g>
	<path class="st0" d="M-1084.99-39.97c0,11.96-9.7,21.66-21.66,21.66c11.96,0,21.66,9.7,21.66,21.66c0-11.96,9.7-21.66,21.66-21.66
		C-1075.3-18.31-1084.99-28.01-1084.99-39.97z"/>
</g>
</svg>
