<?xml version="1.0" encoding="utf-8"?>
<!-- Generator: Adobe Illustrator 28.0.0, SVG Export Plug-In . SVG Version: 6.00 Build 0)  -->
<svg version="1.1" id="Шар_1" xmlns="http://www.w3.org/2000/svg" xmlns:xlink="http://www.w3.org/1999/xlink" x="0px" y="0px"
	 viewBox="0 0 1000 1000" style="enable-background:new 0 0 1000 1000;" xml:space="preserve">
<style type="text/css">
	.st0{fill:#11110F;}
	.st1{fill:#1D1512;}
	.st2{fill:#FFE452;}
	.st3{fill:none;stroke:#FFE452;stroke-width:9;stroke-miterlimit:10;}
	.st4{fill:#EC872D;}
	.st5{fill:#775132;}
	.st6{fill:#AA753F;}
	.st7{fill:#FFFFFF;stroke:#000000;stroke-miterlimit:10;}
	.st8{fill:none;stroke:#000000;stroke-miterlimit:10;}
</style>
<rect y="0" class="st0" width="1000" height="1000"/>
<path class="st1" d="M-33.59,397.17c37.21,17.84,74.51,18.39,87.49,49.74s27.57,67.03,50.28,94.6
	c22.71,27.57-11.35,82.71,8.11,79.47s78.62,8.97,94.83,5.73s96.53-116.04,85.18-187.4s-118.39-163.78-71.35-194.59
	s76.22-3.24,77.85-48.65s-22.71-63.25,0-79.47c22.71-16.22,1.78-42.17,0.08-72.98c-1.7-30.81-48.73-4.87-73.06,22.71
	s-35.68,60.01-63.25,6.49S139.85-35.84,115.53-5.03S91.2,7.94,66.87,66.33S60.39,176.61,13.35,235s-58.38,74.6-61.63,97.31
	C-51.52,355.01-33.59,397.17-33.59,397.17z"/>
<path class="st1" d="M1107.6,597.52c-95.69-40.54-157.31-72.43-160.56-105.95s-8.11-70.82-34.06-54.61s-45.41,50.83-60.01,54.61
	c-14.6,3.78-42.17-21.62-72.98,0c-30.81,21.62-35.68-23.79-29.19,83.25S659.33,704.29,727.45,787s90.05,95.67,110.3,120
	s11.26,103.51,53.43,72.7c42.17-30.81,129.25,6.36,148.72-73.11c19.46-79.47,62.85-210.13,67.71-234.46
	C1112.46,647.8,1107.6,597.52,1107.6,597.52z"/>
<path class="st1" d="M-35.03,722.89c0,51.9-20.13,257.65-13.64,277.11s95.03,8.45,109.63,29.53
	c14.6,21.08,134.54-55.94,166.97-49.72c32.44,6.21,76.22-4.59,90.82,0c14.6,4.59,45.41,40.6,40.54-28.49s-8.85-55.48-21.45-82.56
	c-12.6-27.08-33.69-12.48-17.47-57.89c16.22-45.41,59.27-76.22,17.47-107.04c-41.8-30.81-66.12-45.1-69.37-21.74
	s4.87,46.91-4.87,57.03c-9.73,10.12,9.73-51.51-27.57-25.56c-37.3,25.95-28.36,34.18-40.54,38.92
	C106.93,787,53.38,711.3,42.03,709.68C30.68,708.06-35.03,722.89-35.03,722.89z"/>
<path class="st1" d="M463.39,693.98c-48.65,16.22-27.84,41.23-44.06,68.8c-16.22,27.57-27.57,29.19-22.71,56.76
	c4.87,27.57,28.06,38.92,35.92,84.33c7.87,45.41-6.24,60.34,0,83.69c6.24,23.35,19.22,42.7,56.52,41.95s85.96-10.49,103.79-20.22
	c17.84-9.73,57.08,4.87,54.49-27.57s2.27-12.97-23.67-72.98s-9.73-55.14-24.33-90.82s-16.22,0.84-29.19-42.56s6.03-82.35-12-77.48
	c-18.03,4.87-34.49,5.77-51.28,0.9C490.08,693.91,463.39,693.98,463.39,693.98z"/>
<path class="st2" d="M829.28,1041.81c-6.08-16.71-12.66-48.88-18.07-88.27c-4.43-32.26-54.79-49.93-55.29-50.11l-0.72-0.25
	l-0.6-0.47c-8.56-6.71-83.91-66.09-93.43-85.93c-4.9-10.21-16.05-30.9-27.85-52.82c-10.61-19.71-21.59-40.08-29.25-55.09
	c-13.22-25.9-53.2-24.8-72.41-24.28c-2.43,0.07-4.53,0.12-6.3,0.12c-16.18,0-63.18-3.12-65.17-3.25l-2.44-0.16l-1.19-2.14
	c-0.47-0.84-47.16-84.55-61.56-108.54c-0.46-0.76-1.27-1.67-3.55-2c-24.53-3.53-109.75,63.31-132.26,84.08
	c-10.54,9.73-32.02,27.18-52.24,42.45c-37.72,28.48-42.74,28.48-44.88,28.48c-4.94,0-67.23-8.35-77.11-31.19
	c-1.97-4.55-9.44-11.38-24.03-15.67c-10.54-3.1-48.24-10.99-90.97,17.63l-5.01-7.48c31.03-20.78,67.86-27.8,98.52-18.78
	c14.91,4.39,26.03,12.14,29.75,20.74c6.63,15.32,58.27,25.64,68.66,25.77c8.63-1.96,68.49-47.58,91.2-68.54
	c12.43-11.48,107.66-90.98,139.64-86.38c5.63,0.81,8.54,3.86,9.99,6.28c13.16,21.94,53.08,93.34,60.51,106.65
	c10.05,0.65,48.32,3.07,62.14,3.07c1.65,0,3.69-0.06,6.05-0.12c21.06-0.58,64.87-1.78,80.67,29.18
	c7.61,14.92,18.56,35.25,29.15,54.91c11.85,22.01,23.05,42.79,28.04,53.19c7.23,15.06,67.06,64.05,90.29,82.29
	c6.9,2.49,55.63,21.3,60.55,57.14c5.32,38.79,11.74,70.28,17.61,86.42L829.28,1041.81z"/>
<path class="st2" d="M382.26,569.55l-4.66-7.7c0.46-0.28,45.72-27.89,59.56-51.48c4.59-7.83,9.67-14.82,15.59-12.99
	c4.1,1.26,5.51,5.88,5.79,10.71c36.05-0.52,74.37-2.17,82.67-4.24c1.53-2.66,5.36-5.1,10.62-8.22c5.91-3.5,13.98-7.82,22.53-12.39
	c16.61-8.89,39.37-21.06,43.03-26.19c0.7-0.98,1.88-4.39-2.28-14.8c-3.17-7.92-8.26-17.12-13.19-26.03
	c-4.34-7.83-8.43-15.23-10.97-21.32c-4.01-9.63-6.97-19.89-1.56-29.75c4.18-7.61,12.85-14.23,28.11-21.46
	c30.75-14.57,94.73,0.59,152.29,15.94c47.71,12.72,97.49,1.5,110.81-11.81c14.6-14.6,60.15-52.64,62.14-54.25l20.33-23.79
	l-13.58,23.67c30.45,19.91,65.22,40.95,70.69,41.69c-0.06-0.01-0.13-0.01-0.17-0.01v9c-2.22,0-6.34,0-41.89-21.88
	c-12.94-7.96-25.43-16.01-30.8-19.49c-10.17,8.24-48,39.04-60.36,51.4c-15.17,15.17-67.96,27.88-119.49,14.14
	c-40.46-10.79-115.78-30.87-146.12-16.5c-13.26,6.28-20.91,11.89-24.08,17.66c-2.93,5.34-2.38,11.5,1.98,21.96
	c2.34,5.62,6.32,12.81,10.53,20.42c11.44,20.66,22.24,40.17,14.92,50.42c-4.55,6.37-21.21,15.58-46.11,28.9
	c-11.62,6.22-25.93,13.87-29.21,16.82c-0.16,0.62-0.44,1.22-0.84,1.76c-1.67,2.25-3.39,4.58-50.18,6.31
	c-22.11,0.82-44.1,1.08-44.32,1.09l-4.86,0.06l0.32-4.85c0.09-1.38,0.06-2.92-0.06-4.24c-1.07,1.33-2.57,3.44-4.55,6.81
	C429.92,540.48,384.2,568.38,382.26,569.55z M549.34,505.43c0,0,0,0.01,0,0.01C549.35,505.44,549.34,505.44,549.34,505.43z"/>
<path class="st2" d="M617,351.55c-0.45-0.29-45.43-29.19-58.13-36.22c-6.16-3.41-13.93-0.85-22.93,2.11
	c-6.47,2.13-13.16,4.33-20.17,4.57c-9.67,0.32-23.39-6.69-34.99-17.9c-10.6-10.24-16.67-21.52-16.67-30.95
	c0-15.19-3.99-23.91-5.92-25.49c-8.2,5.91-39.35,9.33-50.85-0.25c-7.67-6.39-16.17-51.44-20.55-77.72
	c-5.68-34.06-11.66-104.7-11.38-135.54l5.09,33.52c-0.23,25.02,7.92,56.81,14.97,99.36c8.02,48.48,15.11,70.83,17.7,73.53
	c7.63,6.35,34.41,3.81,39.76-0.21c2.76-2.07,12.48-13.84,15.43-12.37c7.73,3.87-9.89,11.43,4.75,45.16
	c2.75,6.33,5.21,16.06,13.93,24.48c9.47,9.15,21.46,15.64,28.43,15.37c5.74-0.2,11.8-2.19,17.67-4.13
	c10.08-3.32,20.5-6.74,30.1-1.43c12.95,7.17,56.78,35.33,58.64,36.52L617,351.55z M458.48,247.48L458.48,247.48L458.48,247.48z"/>
<path class="st2" d="M698.89,667.32c-0.31-1.49-10.98-68.21-9.35-103.5c1.22-26.37-5.15-31.07-6.04-31.59
	c-2.16-0.17-11.58-0.97-20.96-2.22c-20.57-2.75-24.78-5.28-25.48-9.5c-0.39-1.04-2.31-4.17-4.01-6.94
	c-8.06-13.15-23.08-37.63-16.2-55.52l8.4,3.23c-5.29,13.75,8.82,0.1,9.42,28.39c0.11,5.04,10.14,25.92,10.83,27.74
	c4.5,2.13,23.29,4.66,39.14,5.88l0.1,0.01c2.61,0.26,15.51,3.45,13.78,40.93c-1.58,34.1,0.28,61.89,0.36,62.24V667.32z
	 M683.4,532.18L683.4,532.18L683.4,532.18z M637.03,520.27c0,0.03,0.01,0.06,0.01,0.09C637.04,520.33,637.03,520.3,637.03,520.27z"
	/>
<path class="st3" d="M439.42,500c-17.84-4.65-64.87-4.65-68.12-48.44s4.13-71.36-13.34-84.33c-17.47-12.97-36.93-9.73-48.28-30.81
	c-11.35-21.08-27.96-67.36-27.96-67.36"/>
<path class="st2" d="M728.4,502.76l-15.28,16.36c1.19-1.53,37.76-59.36,72.41-54.17c15.18,2.28,22.2-0.49,23.6-3.55
	c1.13-2.46-0.72-6.44-4.49-9.67c-2.9-2.48-4.2-6.48-3.86-11.88c1.29-20.88,28.22-65.28,47.24-77.88l4.97,7.5
	c-16.66,11.04-42.11,52.8-43.23,70.94c-0.18,2.89,0.38,4.18,0.74,4.49c7.01,6.01,9.69,13.96,6.82,20.24
	c-2.18,4.78-9.39,12.27-33.12,8.71C754.8,469.43,728.67,502.43,728.4,502.76z"/>
<path class="st2" d="M680.99,964.82l-5.3-9.17c0.75-4.27-6.6-8.59-10.25-20.13c-4.71-14.88-10.05-31.74-10.16-44.41
	c-0.03-3.38-0.16-6.45-0.28-9.42c-0.69-16.79-1.19-28.91,17.92-55.16l7.28,5.3c-17.26,23.71-16.87,33.42-16.21,49.5
	c0.12,3.04,0.25,6.19,0.29,9.71c0.1,11.32,5.22,27.5,9.74,41.77C679.04,948.66,682.06,958.69,680.99,964.82z"/>
<path class="st2" d="M371.48,376.86l-8.46-3.06c2.19-6.07,4.35-11.5,6.25-16.29c7.38-18.58,11.45-28.81,6.37-44.76
	c-6.81-21.4-17.57-47.05-17.68-47.36c-1.08-3.12-2.56-12.97-2.56-12.97c0.62,1.21,21.78,35.48,28.82,57.6
	c6.05,19.02,1.02,31.67-6.58,50.81C375.75,365.57,373.63,370.92,371.48,376.86z"/>
<path class="st2" d="M759.33,359.93l-32.2-6.85c39.52-7.34,115.41-43.17,129.89-73.74c7.32-15.45,19.23-24.02,29.74-31.59
	c11.24-8.09,20.94-15.08,22.75-28.71c3.19-23.98,1.74-45.46,0.57-62.71c-0.23-3.35-0.44-6.49-0.6-9.43
	c-1.02-18.42,15.02-55.73,15.15-56.16l-4.39,29.64c-0.02,0.08-2.7,9.35-1.78,26.02c0.16,2.9,0.37,6.01,0.59,9.31
	c1.13,16.73,2.68,39.64-0.63,64.51c-2.32,17.48-14.57,26.29-26.41,34.82c-10.1,7.27-20.54,14.79-26.86,28.14
	C849.31,316.64,795.16,342.69,759.33,359.93z"/>
<path class="st2" d="M247.31,657.22c57.5-85.65,73.72-93.76,85.07-122.95c11.35-29.19,34.87-97.02,34.87-97.02
	s34.87,48.37,46.22,48.37c11.35,0,65.38,14.6,86.21,0c20.83-14.6,35.43-24.33,54.89-35.68s24.44-21.55,23.28-45.15
	s-19.93-93.97-6.43-87.27c13.5,6.69,104.68,26.19,114.4,27.79c9.72,1.59,60.31,22.16,71.57,20.42c11.26-1.74,58.27,3.93,58.27,3.93
	s-66.47,2.45-90.8,5.69s-43.61,1.16-65.59,23.28c-21.98,22.13-25.23,56.18-25.23,61.05c0,3.42,1.76,38.4-0.48,46.05
	c-1.37,4.68-19.09-20.11-27.09-20.11c-27,0-55.9,29.19-74.98,37.3c-19.08,8.11-18.54,13.19-59.63,8.11
	c-41.09-5.08-41.98,7.17-43.31,63.84c-0.21,9.06,7.89,31.54,4.97,34.7s-16.85-12.99-21.8-13.85c-22.16-3.85-61.29-38.64-86.98-19.73
	C287.57,623.34,247.31,657.22,247.31,657.22z"/>
<path class="st4" d="M345.57,565.7c13.09-18.23,19.86-25,19.86-39.9c0-14.9-0.9-56.43,8.58-43.79c9.48,12.64,12.8,29.79,26.49,28.89
	c13.69-0.9,25.88-12.19,46.65-9.03c20.77,3.16,24.83,14.45,42.89,6.77c18.06-7.67,26.18-10.51,38.37-21.51s46.95-30.86,46.95-30.86
	s-10.38,20.64-23.93,30.86c-13.54,10.22-27.99,23.77-38.82,26.02c-10.83,2.26-37.47,5.42-50.11,4.97s-22.57-6.77-34.31,0.45
	c-11.74,7.22-18.06,6.77-18.96,23.47c-0.9,16.7,7.22,23.47-0.45,31.15c-7.67,7.67-17.61,13.54-21.22,3.16s1.4-19.86-5.17-19.41
	c-6.57,0.45-12.23,2.15-21.82,8.75s-16.8,5.7-16.8,5.7L345.57,565.7z"/>
<path class="st4" d="M603.76,340.6c8.41,15.42,14.02,21.5,22.9,21.5c8.88,0,9.81-6.08,27.57-3.27c17.76,2.8,31.78,6.77,42.53,6.89
	c10.75,0.12,32.04,0.29,43.46,0c11.42-0.29,30,4.9,23.84,0.16s-11.28-11.54-24.3-9.39s-31.32-2.34-45.8-4.67
	c-14.49-2.34-20.68-6.08-34.18-7.48c-13.49-1.4-20.5,4.97-28.92,3.42c-8.41-1.55-14.96-8.56-18.69-9.96s-16.36-7.95-17.76-7.95
	C593.01,329.85,603.76,340.6,603.76,340.6z"/>
<path class="st4" d="M616.84,465.85c-4.21-17.76-11.63-3.81,2.6-34.39c14.23-30.58,17.5-38.52,12.83-45.07
	c-4.67-6.54-9.81-16.47,1.87-18.52c11.68-2.05,21.03-4.38,20.56-6.72c-0.47-2.34,14.05-4.51,0.02-5.29
	c-14.04-0.78-25.11-8.08-37.57-7s-15.26-9.67-18.06,3.42c-2.8,13.09-3.27,25.7-0.47,35.52s9.35,20.1,2.34,29.44
	c-7.01,9.35-11,7.95-6.67,19.16s9.47,13.55,11.81,15.42C608.43,453.7,616.84,465.85,616.84,465.85z"/>
<path class="st2" d="M281.72,279.28c-11.17-2.8-14.68-15.42-20.99-4.91c-6.31,10.52-20.47-1.9-22.54,7.62
	c-2.06,9.52,25.34,46.19,18.33,46.63c-7.01,0.43-33.65-32.52-29.44-47.94c4.21-15.42,21.98-30.18,34.35-28.04
	c12.37,2.14,24.54,15.18,24.54,15.18L281.72,279.28z"/>
<path class="st1" d="M408.63,297.23c-6.11,36.66,5,47.96-2.78,70.65c-7.78,22.7-8.34,21.03-0.56,48.26
	c7.78,27.23-28.19,25.57,19.53,36.13c47.72,10.56,62.17,16.12,79.96-7.23c17.79-23.34,29.46-2.36,31.68-39.25
	c2.22-36.89,13.34-56.4,0-56.93c-13.34-0.53-9.56,11.44-36.46,2.68s-34.68-12.96-46.35-34.48c-11.67-21.52-27.23-39.31-33.9-39.86
	s-11.12-3.33-11.12,5.56S408.63,297.23,408.63,297.23z"/>
<path class="st5" d="M216.89,478.32c0,53.35-5.69,79.08-32.7,64.08c-27.01-14.99-32.41-49.12-53.88-80.39S73.3,428.72,53.4,389.92
	s-14.22-70.72,21.33-98.84c35.54-28.11,42.93-90.66,55.59-96.35c12.65-5.69,39.66-7.11,42.51,14.22
	c2.84,21.33-25.9,4.54-17.22,60.56s49.92,82.22,61.29,98.26c11.37,16.05,33.82-2.44,30.42,38.79
	C243.9,447.79,216.89,478.32,216.89,478.32z"/>
<path class="st5" d="M849.88,601.67c14.71-25.15,25.49-35.12,38.87-17.81c13.37,17.31,7.47,35.45,12.75,58.33
	c5.29,22.88,27.77,37.31,29.97,63.15c2.2,25.84-10.29,38.73-41.08,38.51c-30.79-0.22-24.03,93.79-33.79,91.68
	s-56.48-79.02-52.44-90.15c4.04-11.13,18.04,7.68,27.86-22.02c9.82-29.7-69.15-11.8-72.1-23.67
	c-2.95-11.88,18.21-125.9,31.78-144.05C805.28,537.48,849.88,601.67,849.88,601.67z"/>
<path class="st1" d="M515.62,562.68c-48.55,1.13-54.15-34.14-56.06,0c-1.91,34.14,18.52,56.51,33.46,64.58
	c14.93,8.07,58.56,18.29,82.34,26.15s63.17,27.75,66.26,31.56c3.1,3.81,16.67-17.41,15.39-45.71c-1.28-28.3,11.74-34.58-2.24-52.66
	s-26.03-11.79-39.66-32.23s-2.62-20.44-13.62-29.87c-11-9.43-40.61,23.58-52.14,31.44c-11.53,7.86-30.39,6.73-30.39,6.73H515.62z"/>
<path class="st5" d="M586.55,554.38c-8.65,13.36-26.72,23.71-47.16,27.57c-20.44,3.87-41.24,12.18-23.77,22.17
	c17.48,9.99,30.05,4.49,54.42,12.35c24.37,7.86,38.25,29.08,45.06,21.22c6.81-7.86,21.03-17.29,11.56-27.51
	c-9.46-10.22-25.43-11.79-32.38-18.86C587.33,584.25,586.55,554.38,586.55,554.38z"/>
<path class="st2" d="M394.82,903.51c-2.42-11.82-10.84-45.35-18.41-54.46c-8.15-9.8-15.84-19.07-14.72-30.02
	c1.04-10.07,8.72-24,17.61-40.13c7.94-14.39,16.93-30.7,21.84-45.78c3.94-12.1,4.83-22.49,5.54-30.83
	c1.09-12.73,2.12-24.75,16.91-26.23c17.23-1.72,36.45-5.53,36.64-5.57l1.95,9.81c-0.8,0.16-19.88,3.94-37.6,5.71
	c-5.8,0.58-6.69,2.5-7.94,17.13c-0.76,8.86-1.7,19.88-6,33.08c-5.2,15.98-14.44,32.74-22.59,47.52
	c-8.02,14.55-15.6,28.28-16.42,36.33c-0.7,6.77,5.4,14.11,12.46,22.6c7.97,9.59,7.4,15.27,10.32,29.54L394.82,903.51z"/>
<path class="st5" d="M498.64,813.1c-35.46-1.92-51.74-43.09-45.99,0c5.75,43.09,32.56,63.98,37.35,90.41
	c4.79,26.43-38.31,39.84,3.83,49.42s107.26-2.88,107.26-6.71c0-3.83-2.63-11.49-25.74-64.16s-16.4-67.9-21.19-88.54
	c-4.79-20.64-24.11-15.39-27.86-6.52C522.56,795.87,498.64,813.1,498.64,813.1z"/>
<path class="st5" d="M256.3,815.02c-38.28,16.28-39.19,61.65-94.78,21.07C124.9,809.36,77.86,787,87.08,818.11
	c25.36,85.52,3.8,136.04,16.26,138.36c11.38,2.12,131.86-10.25,152.96-24.61c21.09-14.36,63.25-30.65,25.42-43.09
	c-37.84-12.45-55.08,3.15-45.5-20.93C245.79,843.75,256.3,815.02,256.3,815.02z"/>
<path class="st1" d="M453.66,15.53c-9.07,125.28-17.59,167.44,10.67,187.34s28.68-14.46,39.22,13.64
	c10.54,28.1-20.46,56.3,18.52,68.01c38.99,11.71,100.26,22,141.36,28.72s56.32,65.26,94.96,6.72c38.64-58.54,56.45-78.45,81.5-94.84
	c25.05-16.39,19.19-7.03,25.05-52.69s-2.34-58.54,32.78-78.45s55.06-55.92,46.8-3.23c-5.46,34.84,3.97,88.01-15.67,143.62
	c-10.06,28.49-82.71,75.58-63.71,97.35c10.2,11.68,94.3-86.09,102.89-78.75c14.95,12.78,30.08,42.92,54.3-17.32
	c38.14-94.84,65.07-114.02,42.82-178.78S1154.14-47.7,1011.3-47.7s-315.36-14.05-382.49-3.51S453.66,15.53,453.66,15.53z"/>
<path class="st5" d="M776.35,225.34c0,53.35-55.23,68.73-82.24,53.74c-27.01-14.99-32.41-49.12-53.88-80.39s-38.99,38.44-58.89-0.36
	S464.46,134.27,500,106.16s13.65-155.6,26.3-161.28c12.65-5.69,153.59-20.57,156.44,0.76c2.84,21.33,73.86-24.82,82.54,31.2
	c8.69,56.02,129.71,0.81,141.08,16.85s-77.08,104.43-80.48,145.66S776.35,225.34,776.35,225.34z"/>
<path class="st5" d="M434.33,368.87c-11.83,39.72-35.5,48.18-5.92,56.63c29.59,8.45,40.58,5.07,47.34,0s48.51,7.61,24.25-14.37
	c-24.25-21.98-38.62-21.19-34.4-34.27c4.23-13.07,27.31-10.65,5.62-16.93c-21.69-6.28-26.24-8.38-26.24-8.38L434.33,368.87z"/>
<path class="st5" d="M-26.64,0C25.8,55.2,70.04,94.19,82.33,109.51s14.75-19.43,90.95,0s61.16,64.49,83.02,23.52
	s2.24-40.97,29.67-79.48s65.94,4.37,40.54-67.46S160.99-55.66,126.58-55.13S28.25-46.4,8.59-44.77S-26.64,0-26.64,0z"/>
<path class="st6" d="M105.51,288.07c28.35,8.56,39.05,18.38,31.56,26.58c-7.49,8.19-31.56,16.92-24.61,36.9
	c6.95,19.98,23,27.25,36.38,32.98c13.37,5.73,26.75-2.52,35.31,0s32.1,24.99,25.68,39.43c-6.42,14.44-22.47,25.48-20.33,41.9
	c2.14,16.42-13.91,22.84-22.47,5.72c-8.56-17.12,0-21.94-16.05-38.52c-16.05-16.58-5.88-4.81-35.84-31.56
	c-29.96-26.75-40.12-29.79-34.24-49.94c5.88-20.15,26.75-37.49,24.61-44.87C103.37,299.3,105.51,288.07,105.51,288.07z"/>
<path class="st6" d="M594.28,90.75c19.32,25.35,69.5,13.21,89.12,18.76s39.89,24.11,43.73,35.79c3.84,11.68,19.21-0.82,30.39-35.79
	c11.18-34.97,22.29-37.76,36.3-51.73c14-13.97,58.09-26.55-10.76-34.93s-105.8-2.79-146.01-2.79s-56.63-9.78-61.69,6.99
	S584.21,77.54,594.28,90.75z"/>
<path class="st6" d="M862.25,644.06c-53.6-45.35-50.41-75.55-59.59-61.66c-9.19,13.89-10.18,36.37,3.6,52.72
	c13.78,16.35,43.78,6.64,33.46,57.52c-10.32,50.88,10.07,78.19,19.22,54.18c9.14-24.01,38.47-21.61,36.52-44.83
	C893.5,678.76,862.25,644.06,862.25,644.06z"/>
<path class="st6" d="M526.3,843.04c-11.91,5.59-36.53-14.41-17.23,17.95c19.3,32.36,26.92,57.51,22.41,61.7
	c-4.51,4.19,37.12,26.55,37.96,11.18s4.74-24.68-9.09-38.19s-17.6-22.61-24.1-27.84C529.76,862.6,526.3,843.04,526.3,843.04z"/>
<path class="st6" d="M169.27,876.21c-39.12-17.8-57.29-35.01-55.89-15.23c1.4,19.78,19.88,34.53,16.93,42.53
	s-40.64,27.55,14.53,20.57s67.89-9.78,81.79-11.18c13.9-1.4,33.61-10.71,0-17.23s-32.12,4.08-38.45-6.81
	C181.85,877.97,169.27,876.21,169.27,876.21z"/>
<path class="st6" d="M226.63,83.39c-4.31-2.42-7.28-4.5-9.65-6.34c-7.66-5.95-9.02-9.41-28.8-13.68
	c-25.89-5.59-53.51,2.79-57.87-15.37c-4.35-18.16-43.15-39.21,0-30.78s56.61,19.87,80.62,16.94s29.87-36.55,36.72-16.94
	c6.85,19.6,7.12,19.43,0,29.3s-21.02,44.24-21.02,44.24V83.39z"/>
<path class="st4" d="M295.35,537.82c-7.82,6.95-12.6,10.43-9.13,11.3c3.48,0.87,4.78,4.15,9.13-2.49c4.35-6.64,1.74-0.12,8.26-8.81
	c6.52-8.69,5.69-10.86,5.69-10.86L295.35,537.82z"/>
<path class="st4" d="M149.68,692.41c0,1.57-0.52,7.31,2.61,4.7c3.13-2.61,3.2-0.52,2.64-4.7c-0.56-4.18,0.23-7.31-2.51-3.66
	C149.68,692.41,149.68,692.41,149.68,692.41z"/>
<path class="st4" d="M95.37,618.79c4.7,13.58,3.13,16.72,7.31,20.63s10.97-0.26,7.83-4.44c-3.13-4.18-6.65-5.45-9.92-7.71
	C97.32,625.01,95.37,618.79,95.37,618.79z"/>
<path class="st4" d="M224.87,639.42c-4.18,6-5.22,10.7-2.61,8.61c2.61-2.09-1.04,1.04,2.61-2.09
	C228.52,642.81,224.87,639.42,224.87,639.42z"/>
<path class="st4" d="M351.23,667.32c10.97-4.67,16.19,1.36,15.14-5.57c-1.04-6.93,11.49-25.24-2.09-13.22s-16.19,17.18-17.23,18.78
	c-1.04,1.6-1.04,1.6-1.04,1.6L351.23,667.32z"/>
<path class="st4" d="M285.97,230.64c2.15,11.44-1.76,11.44,1.85,12.94s6.32,13.24,6.62,1.81c0.3-11.44,0.9-9.03,0-14.75
	c-0.9-5.72-1.07-6.66-4-10.1c-2.92-3.44-4.82-0.47-4.47,0s-0.04,8.6-0.04,8.6L285.97,230.64z"/>
<path class="st4" d="M316.24,364.76c1.86,9.78,1.4,15.82,5.59,12.1s14.9-0.76,6.05-5.5S316.24,364.76,316.24,364.76z"/>
<path class="st4" d="M441.83,205.65c0.78,13.95,12.4,13.26,12.4,13.26s-1.16-2.4,0-3.57c1.16-1.16,1.16-0.3-1.94-3.06
	c-3.1-2.75-1.22-0.43-3.91-6.63c-2.68-6.2-0.63-7.75-3.4-7.75S441.83,205.65,441.83,205.65z"/>
<path class="st4" d="M351.52,88.6c1.55,9.69-0.38,15.12,3.88,17.05s4.14,3.1,5.17,7.36c1.03,4.26,10.45,8.91,10.58,2.71
	c0.14-6.2,5.29-5.04,0-13.57s-10.41-7.75-8.62-13.57c1.78-5.81,0.93-12.4,0-12.02c-0.93,0.39-2.09,6.64-3.64,6.81
	c-1.55,0.17-5.04,0-5.04,0L351.52,88.6z"/>
<path class="st4" d="M825.88,340.49c-4.75,5.86-8.51,7.57-3.91,8.39s15.24,2.95,15.78,0s3.46-8.39,3.46-8.39l-7.95-10.63
	L825.88,340.49z"/>
<path class="st4" d="M701.08,405.8c-6.69,2.45-4.6-2.98-6.69,2.45c-2.09,5.44-7.56,15.74,5.42,11.42s9.53-3.06,18.37-8.08
	c8.84-5.02,26.41-22.59,12.19-13.8c-14.22,8.78-12.22,11.71-16.78,10.25S701.08,405.8,701.08,405.8z"/>
<path class="st4" d="M681.21,657.22c-2.95,13.28-4.33,14.81,0,17.5c4.33,2.69,6.64,1.92,7.4,6.52c0.77,4.6-3.84,12.27,0,12.66
	c3.84,0.38,15.2-0.38,10.28-6.52c-4.91-6.14-4.91-9.21-7.98-14.19s-4.99-7.14-6.14-11.43C683.62,657.46,681.21,657.22,681.21,657.22
	z"/>
<path class="st4" d="M695.13,805.13c4.22,4.99,10.36,8.82,14.58,8.44c4.22-0.38,3.45,6.03,6.52,12.99
	c3.07,6.96,9.97,17.7,12.27,3.12c2.3-14.58,11.12-11.89,0-19.18s-13.04-6.9-19.18-7.29c-6.14-0.38-5.78,1.44-9.22-2.54
	c-3.44-3.98-4.98,1.77-4.98,1.77V805.13z"/>
<path class="st4" d="M776.84,984.1c5.92-7.66,11.49-6.89,7.66-19.28s3.13-10.66-5.92-15.18c-9.05-4.53-3.48,0.35-11.49-5.57
	c-8.01-5.92-9.75-3.48-14.97-13.92s-12.18-16.01-13.92-16.36c-1.74-0.35,3.07-4.18-4.21,0s-7.63,3.48-5.19,8.01
	c2.44,4.53,4.18,6.96,9.4,13.92c5.22,6.96,15.42,12.06,11.14,19.15c-10.09,16.71-16.36,28.89-6.27,29.24
	c10.1,0.35,17.06,0.7,22.97,0C771.97,983.4,776.84,984.1,776.84,984.1z"/>
<path class="st4" d="M832.83,458.05c14.52,1.35,16.33,0,16.33,0s-6.14,5.71-11.42,5.71s0.53,0.36-5.28,0
	c-5.81-0.36-1.93-5.71-1.93-5.71H832.83z"/>
<path class="st4" d="M954.4,344c-0.46,0.23-0.89,0.46-1.3,0.69c-8.78,4.86-8.13,9.83-15.75,17.28c-7.98,7.8-8.71,15.42-18.14,12.52
	c-9.44-2.9-10.52-5.27-10.52,0.63s-3.99,4.45,2.54,10.62s10.89,7.26,20.32,3.63s7.26-3.99,16.69-12.34
	c9.44-8.35,10.52-12.7,20.32-12.7c9.8,0,15.97,9.07,11.61,0c-4.35-9.07,8.71-12.7-9.44-10.52c-18.14,2.18-16.33,6.17-18.14,2.18
	C950.77,351.99,954.4,344,954.4,344z"/>
<path class="st4" d="M841.21,257.61c2.07-13.06-3.73-14.03,3.04-17.42c6.77-3.39,9.25,0,8.74,3.39s-1.33,3.85-3.83,6.77
	c-2.49,2.91-0.48,14.66-2.21,18.71s-4.54,10.82-7.73,4.53c-3.19-6.29-0.19-4.84,0-9.19C839.41,260.03,841.21,257.61,841.21,257.61z"
	/>
<path class="st2" d="M419.63,676.79c0,0-10.93,0.14-16.94,0c-6.01-0.14-8.17-4.55-10.33-7.87c-2.16-3.33-3.6-5.73-6.73-6.93
	s-8.04-3.36-8.04-3.36s2.76,6.91,3.96,11.86s1.92,15.77,8.89,16.49c6.97,0.72,12.25-1.42,14.9-1.55c2.64-0.13,9.37,0,9.37,0
	L419.63,676.79z"/>
<path class="st4" d="M389.48,282.55c0.4-8.05,0.89-13.29-2.58-17.72s-0.65-7.89-3.87-7.37s-7.6-2.7-7.63,3.34
	c-0.02,6.04-2.05,5.87,2.19,9.17c4.23,3.31,6.73,0.18,9.31,6.37C389.48,282.55,389.48,282.55,389.48,282.55z"/>
<path class="st4" d="M340.11,191.11c-3.58-6.69-2.02-9.55-5.3-9.55s-5.17,7.57-3.51,11.3c1.66,3.73,5.95,9.46,8.82,10.17
	c2.86,0.72,5.91,0,5.91,0v-5.13L340.11,191.11z"/>
<path class="st4" d="M17.42,114.42c1.94,12.62,10.2,16.51,11.17,20.88c0.97,4.37-1.94,11.65-5.83,16.99
	c-3.88,5.34-9.52,13.59,0.34,16.02c9.86,2.43,12.29,7.77,15.69-3.88c3.4-11.65,19.42-5.09,11.17-22.45s-7.77-16.02-14.08-23.25
	c-6.31-7.23-7.28-12.08-10.68-14.02c-3.4-1.94-7.77-13.59-7.77-1.94S17.42,114.42,17.42,114.42z"/>
<path class="st5" d="M307.03,702.63c-11.33-0.31-15.92-7.35-14.39,8.57c1.53,15.92,13.47,19.6,1.84,33.68
	c-11.64,14.09-11.02,36-7.04,35.15c3.98-0.85,2.45,0.68,13.17-6.98c10.72-7.66,5.51-7.04,18.68-15.31
	c13.17-8.27,30.31-19.6,16.54-28.48c-13.78-8.88-12.86-5.51-17.45-11.33C313.77,712.12,307.03,702.63,307.03,702.63z"/>
<path class="st5" d="M773.24,721.44c-6.56,0.88-27.57,5.47-31.29,8.53c-3.72,3.06-8.53,5.69-2.63,11.16
	c5.91,5.47,10.72,13.13,18.82,5.69s9.41-13.13,16.85-10.72c7.44,2.41,12.03,2.32,12.91-0.52
	C793.39,717.86,779.8,720.56,773.24,721.44z"/>
<path class="st5" d="M941.2,778.56c-26.6-5.53-35.77-25.29-40.36-4.74s-15.96,24.5-11.19,52.95c4.77,28.45,14.45,51.79,25.2,68.57
	c10.75,16.78,11.67,25.69,8.92,36.25c-2.75,10.56,44.02,12.93,44.02-11.57c0-24.5-15.59-43.47-14.67-71.13
	c0.92-27.66,9.17-33.07,11.01-44.19S941.2,778.56,941.2,778.56z"/>
<path class="st6" d="M939.93,795.72c-22.19-11.33-22.19-27.02-29.83-6.68s-16.73,19.37-8.37,35.98
	c8.37,16.61,15.64,25.03,20.37,28.52s-12.73,22.95-7.28,24.4c5.46,1.45,17.21,9.91,19.7-8.27c2.49-18.17-4.67-25.15,0-33.28
	c4.67-8.13,5.4-11.33,12.31-15.4C953.75,816.93,939.93,795.72,939.93,795.72z"/>
<path class="st6" d="M587.62,140.24c5.73,16.86,3.46,18.13,6.66,27.04s11.47,16.86,15.61,7.95c4.14-8.91,2.54-6.28,9.23-15.55
	c6.68-9.26,14-11.81,7-19.44c-7-7.63-11.13-1.91-20.36-7.32c-9.23-5.41-6.36-7-14-9.54s-10.82-12.72-11.13-3.18
	S587.62,140.24,587.62,140.24z"/>
<path class="st6" d="M746.36,204.82c-8.91,2.14-12.09,7.95-47.47,3.59c-6.46-0.8-19.11-11.86-19.11-11.86s-3.09,60.2,39.54,53.8
	C761.95,243.94,746.36,204.82,746.36,204.82z"/>
<path class="st5" d="M612.49,241.93c-9.93,5.11-12.87,2.93-18.21,8.42c-5.34,5.48-13.85,11.59,1.76,19.46s20.44,8.72,32.92,10.42
	c12.48,1.7,26.95,17.02,29.5,7.66c2.55-9.36,9.65-8.08-2.27-18.08c-11.92-10.01-10.5-12.24-16.46-22.33
	c-5.96-10.09-11.59-21.41-14.73-22.14c-3.14-0.72-5.13-6.65-8.54,0C613.06,232,612.49,241.93,612.49,241.93z"/>
<path class="st5" d="M558.71,220.54c-15.7-9.66-11.68-11.46-17.31-22.64c-5.64-11.18-3.62-13.6-18.52-20.44
	c-14.9-6.85-23.61-14.9-22.88-4.03c0.73,10.87,8.79,14.74,14.42,29.92c5.64,15.18,5.23,23.09,10.07,35.44s11.68,30.07,22.95,21.61
	c11.27-8.46,19.44-11.68,26.83-18.52s18.26-15.85,9-18.19S558.71,220.54,558.71,220.54z"/>
<path class="st1" d="M23.74,627.27c35.56-10.76,64.87-9.8,52.37-39.11c-12.49-29.31-11.05-14.38-20.18-37.46s-7.14-29.81-13.9-57.2
	s-6.76-32.52-13.97-32.12s-21.14-17.15-43.72-3.33s-42.94,37.21-33,80.77s17.15,76,30.12,79.96
	C-5.57,622.75,23.74,627.27,23.74,627.27z"/>
<path class="st5" d="M26.44,844.94c15.67,17.84,28.45,11.26,30.01,27.2c1.56,15.94-3.75,22.2,5.63,34.08
	c9.38,11.88,17.82,0.24,16.26,19.35s-5,39.74-26.26,43.81c-21.26,4.06-43.77,9.69-64.4,4.38s-27.12,29.46-29.08-41.89
	c-1.95-71.35,9.69-127.87,16.88-132.87c7.19-5,16.57-17.2,31.58,0C22.06,816.17,18.21,835.57,26.44,844.94z"/>
<path class="st5" d="M50.2,800.68c-7.82-6.7-9.69-10.64-15.94-21.49C28,768.34,23.63,777.09,23,760.52
	c-0.63-16.57,11.88-29.08,20.01-26.57c8.13,2.5,10.63,1.88,16.88,14.07c6.25,12.19,15.32,6.57,3.75,22.2
	c-11.57,15.63,2.81,38.14-2.19,39.08S50.2,800.68,50.2,800.68z"/>
<path class="st5" d="M220.83,757.11c-10.01,11.06-37.32,30.77-57.03,26.62s-39.41-24.2-36.99-9.33c2.42,14.87,17.63,32.84,31.8,40.1
	s7.61,28.69,31.11,13.83c23.51-14.87,17.73-12.77,33.93-27.64s24.72,1.03,21.5-27.32c-3.22-28.35-0.8-33.53-3.22-37.34
	c-2.42-3.8-3.46-10.66-8.3-2.39C228.8,741.9,220.83,757.11,220.83,757.11z"/>
<path class="st5" d="M45.27,592.09c-12.77-27.45-13.41-31.92-12.45-50.12c0.96-18.2,12.77-19.15-4.15-37.99
	c-16.92-18.83-26.18-32.88-35.75-18.2s-31.28,15.32-25.22,47.24c6.07,31.92,4.79,52.35,22.98,60.97
	c18.2,8.62,26.49,16.28,39.58,13.09S45.27,592.09,45.27,592.09z"/>
<path class="st5" d="M199.24,578.25c-10.91,1.77-18.57-2.06-27.71-8.7c-9.14-6.63-15.48-22.55-21.89-24.61
	c-6.41-2.06-10.24-16.49-12.01,9.44c-1.77,25.93-10.02,42.91,3.54,49.74s38.61,14.8,50.4,5.36c11.79-9.43,22.99-14.44,23.29-25.35
	s1.47-14.74-1.47-14.59C210.44,569.7,199.24,578.25,199.24,578.25z"/>
<path class="st5" d="M856.02,516.98c15.94,9.36,15.76,12.65,23.83,20.75s4.52,19.49,14.89,8.6c10.38-10.88,12.65-10.12,16.7-20.25
	s10.63-22.02,7.09-32.14c-3.54-10.12-6.07-26.07-13.92-24.55c-7.85,1.52-2.78-10.88-14.42,5.57
	c-11.64,16.45-13.41,23.48-24.04,25.02c-10.63,1.55-27.55-3.51-26.93,6.36C839.83,516.23,856.02,516.98,856.02,516.98z"/>
<path class="st5" d="M968.87,565.64c-20.06,7.85-25.98,8.72-26.07,30.52c-0.09,21.8-18.4,34.47,11.25,65.2
	c29.65,30.73,57.56,64.69,66.28,70.82c8.72,6.13,40.99-24.8,27.04-70.82c-13.95-46.02-22.67-82.65-32.27-89.62
	C1005.5,564.76,968.87,565.64,968.87,565.64z"/>
<path class="st5" d="M95.03,181.56c-2.88,24.23-1.92,34.8-4.8,45.86c-2.88,11.05-21.62,37.2-33.15,42.38
	c-11.53,5.19-20.18,14.31-26.43,2.78s-18.26-11.28-3.36-25.1c14.9-13.82,21.14-5.65,27.39-22.47s4.8-35.54,10.57-45.88
	c5.77-10.34,13.93-25.71,21.14-21.87c7.21,3.84,14.41,15.86,13.45,18.26C98.87,177.92,95.03,181.56,95.03,181.56z"/>
<path class="st5" d="M161.84,160.95c11.42,17.56,30.74,12.29,36.01,27.66s7.9,25.36-1.32,35.08c-9.22,9.71-12.29,24.2,2.2,13.22
	c14.49-10.98,25.47-13.55,39.96-19.51c14.49-5.96,50.06-7.54,22.83-26.29s-31.18-14.36-43.91-26.65
	c-12.73-12.29-3.51-20.64-27.66-31.61s-29.86-19.76-41.71-10.54s-22.83,25.91-22.83,38.64c0,12.73-23.71,10.54,0,15.81
	s29.42-1.49,32.93-8.65C161.84,160.95,161.84,160.95,161.84,160.95z"/>
<path class="st5" d="M266.58,441.8c-12.46,22.74-24.3,28.04-28.04,33.34c-3.74,5.3-7.79,19.01-3.12,36.76
	c4.67,17.76,6.54,33.34,15.58,19.01s19.32-23.35,23.99-43.77c4.67-20.41,7.48-25.71,4.98-42.54c-2.49-16.82-6.54-33.65-7.48-23.68
	C271.56,430.9,266.58,441.8,266.58,441.8z"/>
<path class="st5" d="M98.14,465.85c-13.32-2.86-28.54-5.58-18.83,11.38c9.72,16.96,18.02,16.33,24.03,28.21
	c6.01,11.88,1.17,28.51,7.97,17.39c6.8-11.12,6.45-7.26,7.5-19.53c1.05-12.27,7.36-16.59-1.4-21.62
	c-8.76-5.02-13.08-7.13-14.07-8.53S98.14,465.85,98.14,465.85z"/>
<path class="st6" d="M-16.74,865.85c25.3,7.33,22.73,4.5,29.33,18.02c6.6,13.52,5.5,12.42,18.7,24.52
	c13.2,12.1,19.43,22.37,6.6,30.8s-35.57,23.56-45.1,17.28s-15.03-6.28-14.3-23.52S-16.74,865.85-16.74,865.85z"/>
<path class="st6" d="M171.19,142.17c-6.09,2.03-3.05,16.93,7.79,19.3c10.83,2.37,16.59,10.61,20.32,17.67s-0.34,29.49,14.9,29.27
	c15.24-0.21,29.12-2.24,29.46-7.32c0.34-5.08,6.77-1.99-5.76-9.97c-12.53-7.98-14.9-1.67-22.69-15.83s-10.16-18.67-14.9-25.72
	c-4.74-7.06-2.37-9.43-11.17-9.43S171.19,142.17,171.19,142.17z"/>
<path class="st6" d="M151.22,134.66c-7.45,14.95-9.02,19.89-6.37,21.99c2.65,2.1,7.48,6.84-1.2,7.86s-12.4,11.17-11.39,0
	c1.02-11.17,5.42-25.06,9.14-27.43C145.12,134.72,151.22,134.66,151.22,134.66z"/>
<path class="st6" d="M450.78,375.21c-16.36,13.92-27.5,23.59-19.49,30.59c8.01,7,25.3,8.74,28.14,8.74c2.84,0,18.85-1.13,9.11-8.74
	c-9.75-7.62-12.53-8.57-13.92-14.36C453.22,385.65,450.78,375.21,450.78,375.21z"/>
<path class="st5" d="M521.48,708.38c-37.7,0-59.29-6.19-63.49-6.1c-4.2,0.1-18.89,7.52-8.7,33.05s13.2,35.73,21.29,39.33
	c8.1,3.6,7.5,22.26,21.29,4.53c13.8-17.73,23.99-21.93,32.69-27.33c8.7-5.4,13.96-5.88,14.18-20.34
	c0.22-14.45,0.22-18.95-4.88-21.35C528.77,707.78,521.48,708.38,521.48,708.38z"/>
<path class="st6" d="M513.37,720.76c-20,0.55-31.49,3.92-38.73,0c-7.24-3.92-13.83-20.95-8.94-3.5
	c4.89,17.45,8.94,30.22,13.41,32.98c4.47,2.77,5.72,4.47,13.18-2.55c7.46-7.02,17.25-10.64,21.08-15.32
	c3.83-4.68,4.47-8.51,2.77-10.21C514.44,720.45,513.37,720.76,513.37,720.76z"/>
<path class="st1" d="M756.78,402.75c-21.05,18.87-27.09,25.89-42.09,26.85c-15,0.97-45.48-16.45-49.59,5.32s-7.74,41.78,4.11,52.22
	c11.85,10.44,10.4,26.16,27.09,10.68c16.69-15.48,38.95-49.35,60.48-49.84c21.53-0.48,22.98,16.45,28.06-4.6
	c5.08-21.05,14.52-38.46,5.56-50.56s-11.13-21.53-17.66-11.13S756.78,402.75,756.78,402.75z"/>
<path class="st5" d="M769.6,405.8c-8.95,11.47-29.27,24.41-45.24,27.25c-15.97,2.84-36.45-6.35-40.96,4.05
	c-4.52,10.4-6.37,25.81,0,26.82s11.69,4.68,24.75-5.87s40.4-20.71,50.56-20.71s15.24,10.04,19.35-4.3
	c4.11-14.33,7.26-23.53,3.14-29.33s0.24-11.85-6.77-6.77S769.6,405.8,769.6,405.8z"/>
<path class="st5" d="M977.36,98.94c-15.48,11.86-16.8,4.28-13.17,37.21c3.62,32.93,10.21,80.36-5.6,91.22
	c-15.81,10.87-28.98,28.98-36.88,36.88c-7.9,7.9-43.14,26.35-35.24,30.3c7.9,3.95,40.18-27.66,52.03-35.24
	c11.86-7.57,38.2-24.6,44.46-20.54c6.26,4.07,19.76,10.99,23.71-4.49s12.51-110.26,10.54-124.78s1.65-15.33-9.22-26.12
	S977.36,98.94,977.36,98.94z"/>
<rect x="1587.42" y="30.96" class="st7" width="1000" height="1000"/>
<path class="st7" d="M1553.83,428.14c37.21,17.84,74.51,18.39,87.49,49.74s27.57,67.03,50.28,94.6
	c22.71,27.57-11.35,82.71,8.11,79.47s78.62,8.97,94.83,5.73c16.22-3.24,96.53-116.04,85.18-187.4s-118.39-163.78-71.35-194.59
	s76.22-3.24,77.85-48.65c1.62-45.41-22.71-63.25,0-79.47c22.71-16.22,1.78-42.17,0.08-72.98s-48.73-4.87-73.06,22.71
	s-35.68,60.01-63.25,6.49c-27.57-53.52-22.71-108.66-47.03-77.85c-24.33,30.81-24.33,12.97-48.65,71.36s-6.49,110.28-53.52,168.67
	c-47.03,58.38-58.38,74.6-61.63,97.31C1535.9,385.97,1553.83,428.14,1553.83,428.14z"/>
<path class="st7" d="M2695.01,628.48c-95.69-40.54-157.31-72.43-160.56-105.95s-8.11-70.82-34.06-54.61
	c-25.95,16.22-45.41,50.83-60.01,54.61c-14.6,3.78-42.17-21.62-72.98,0c-30.81,21.62-35.68-23.79-29.19,83.25
	c6.49,107.04-91.47,129.47-23.35,212.18s90.05,95.67,110.3,120c20.24,24.33,11.26,103.51,53.43,72.7
	c42.17-30.81,129.25,6.36,148.72-73.11c19.46-79.47,62.85-210.13,67.71-234.46C2699.88,678.76,2695.01,628.48,2695.01,628.48z"/>
<path class="st7" d="M1552.39,753.85c0,51.9-20.13,257.65-13.64,277.11s95.03,8.45,109.63,29.53
	c14.6,21.08,134.54-55.94,166.97-49.72c32.44,6.21,76.22-4.59,90.82,0c14.6,4.59,45.41,40.6,40.54-28.49s-8.85-55.48-21.45-82.56
	c-12.6-27.08-33.69-12.48-17.47-57.89c16.22-45.41,59.27-76.22,17.47-107.04c-41.8-30.81-66.12-45.1-69.37-21.74
	c-3.24,23.36,4.87,46.91-4.87,57.03c-9.73,10.12,9.73-51.51-27.57-25.56c-37.3,25.95-28.36,34.18-40.54,38.92
	c-88.57,34.52-142.12-41.18-153.47-42.81C1618.09,739.02,1552.39,753.85,1552.39,753.85z"/>
<path class="st7" d="M2050.81,724.94c-48.65,16.22-27.84,41.23-44.06,68.8c-16.22,27.57-27.57,29.19-22.71,56.76
	c4.87,27.57,28.06,38.92,35.92,84.33c7.87,45.41-6.24,60.34,0,83.69s19.22,42.7,56.52,41.95s85.96-10.49,103.79-20.22
	c17.84-9.73,57.08,4.87,54.49-27.57c-2.59-32.44,2.27-12.97-23.67-72.98c-25.95-60.01-9.73-55.14-24.33-90.82
	s-16.22,0.84-29.19-42.56c-12.97-43.4,6.03-82.35-12-77.48c-18.03,4.87-34.49,5.77-51.28,0.9
	C2077.5,724.88,2050.81,724.94,2050.81,724.94z"/>
<path class="st7" d="M2416.7,1072.77c-6.08-16.71-12.66-48.88-18.07-88.27c-4.43-32.26-54.79-49.93-55.29-50.11l-0.72-0.25
	l-0.6-0.47c-8.56-6.71-83.91-66.09-93.43-85.93c-4.9-10.21-16.05-30.9-27.85-52.82c-10.61-19.71-21.59-40.08-29.25-55.09
	c-13.22-25.9-53.2-24.8-72.41-24.28c-2.43,0.07-4.53,0.12-6.3,0.12c-16.18,0-63.18-3.12-65.17-3.25l-2.44-0.16l-1.19-2.14
	c-0.47-0.84-47.16-84.55-61.56-108.54c-0.46-0.76-1.27-1.67-3.55-2c-24.53-3.53-109.75,63.31-132.26,84.08
	c-10.54,9.73-32.02,27.18-52.24,42.45c-37.72,28.48-42.74,28.48-44.88,28.48c-4.94,0-67.23-8.35-77.11-31.19
	c-1.97-4.55-9.44-11.38-24.03-15.67c-10.54-3.1-48.24-10.99-90.97,17.63l-5.01-7.48c31.03-20.78,67.86-27.8,98.52-18.78
	c14.91,4.39,26.03,12.14,29.75,20.74c6.63,15.32,58.27,25.64,68.66,25.77c8.63-1.96,68.49-47.58,91.2-68.54
	c12.43-11.48,107.66-90.98,139.64-86.38c5.63,0.81,8.54,3.86,9.99,6.28c13.16,21.94,53.08,93.34,60.51,106.65
	c10.05,0.65,48.32,3.07,62.14,3.07c1.65,0,3.69-0.06,6.05-0.12c21.06-0.58,64.87-1.78,80.67,29.18
	c7.61,14.92,18.56,35.25,29.15,54.91c11.85,22.01,23.05,42.79,28.04,53.19c7.23,15.06,67.06,64.05,90.29,82.29
	c6.9,2.49,55.63,21.3,60.55,57.14c5.32,38.79,11.74,70.28,17.61,86.42L2416.7,1072.77z"/>
<path class="st7" d="M1969.67,600.52l-4.66-7.7c0.46-0.28,45.72-27.89,59.56-51.48c4.59-7.83,9.67-14.82,15.59-12.99
	c4.1,1.26,5.51,5.88,5.79,10.71c36.05-0.52,74.37-2.17,82.67-4.24c1.53-2.66,5.36-5.1,10.62-8.22c5.91-3.5,13.98-7.82,22.53-12.39
	c16.61-8.89,39.37-21.06,43.03-26.19c0.7-0.98,1.88-4.39-2.28-14.8c-3.17-7.92-8.26-17.12-13.19-26.03
	c-4.34-7.83-8.43-15.23-10.97-21.32c-4.01-9.63-6.97-19.89-1.56-29.75c4.18-7.61,12.85-14.23,28.11-21.46
	c30.75-14.57,94.73,0.59,152.29,15.94c47.71,12.72,97.49,1.5,110.81-11.81c14.6-14.6,60.15-52.64,62.14-54.25l20.33-23.79
	l-13.58,23.67c30.45,19.91,65.22,40.95,70.69,41.69c-0.06-0.01-0.13-0.01-0.17-0.01v9c-2.22,0-6.34,0-41.89-21.88
	c-12.94-7.96-25.43-16.01-30.8-19.49c-10.17,8.24-48,39.04-60.36,51.4c-15.17,15.17-67.96,27.88-119.49,14.14
	c-40.46-10.79-115.78-30.87-146.12-16.5c-13.26,6.28-20.91,11.89-24.08,17.66c-2.93,5.34-2.38,11.5,1.98,21.96
	c2.34,5.62,6.32,12.81,10.53,20.42c11.44,20.66,22.24,40.17,14.92,50.42c-4.55,6.37-21.21,15.58-46.11,28.9
	c-11.62,6.22-25.93,13.87-29.21,16.82c-0.16,0.62-0.44,1.22-0.84,1.76c-1.67,2.25-3.39,4.58-50.18,6.31
	c-22.11,0.82-44.1,1.08-44.32,1.09l-4.86,0.06l0.32-4.85c0.09-1.38,0.06-2.92-0.06-4.24c-1.07,1.33-2.57,3.44-4.55,6.81
	C2017.34,571.44,1971.61,599.34,1969.67,600.52z M2136.76,536.39c0,0,0,0.01,0,0.01C2136.76,536.4,2136.76,536.4,2136.76,536.39z"/>
<path class="st7" d="M2204.42,382.51c-0.45-0.29-45.43-29.19-58.13-36.22c-6.16-3.41-13.93-0.85-22.93,2.11
	c-6.47,2.13-13.16,4.33-20.17,4.57c-9.67,0.32-23.39-6.69-34.99-17.9c-10.6-10.24-16.67-21.52-16.67-30.95
	c0-15.19-3.99-23.91-5.92-25.49c-8.2,5.91-39.35,9.33-50.85-0.25c-7.67-6.39-16.17-51.44-20.55-77.72
	c-5.68-34.06-11.66-104.7-11.38-135.54l5.09,33.52c-0.23,25.02,7.92,56.81,14.97,99.36c8.02,48.48,15.11,70.83,17.7,73.53
	c7.63,6.35,34.41,3.81,39.76-0.21c2.76-2.07,12.48-13.84,15.43-12.37c7.73,3.87-9.89,11.43,4.75,45.16
	c2.75,6.33,5.21,16.06,13.93,24.48c9.47,9.15,21.46,15.64,28.43,15.37c5.74-0.2,11.8-2.19,17.67-4.13
	c10.08-3.32,20.5-6.74,30.1-1.43c12.95,7.17,56.78,35.33,58.64,36.52L2204.42,382.51z M2045.89,278.44L2045.89,278.44
	L2045.89,278.44z"/>
<path class="st7" d="M2286.31,698.28c-0.31-1.49-10.98-68.21-9.35-103.5c1.22-26.37-5.15-31.07-6.04-31.59
	c-2.16-0.17-11.58-0.97-20.96-2.22c-20.57-2.75-24.78-5.28-25.48-9.5c-0.39-1.04-2.31-4.17-4.01-6.94
	c-8.06-13.15-23.08-37.63-16.2-55.52l8.4,3.23c-5.29,13.75,8.81,0.1,9.42,28.39c0.11,5.04,10.14,25.92,10.83,27.74
	c4.5,2.13,23.29,4.66,39.14,5.88l0.1,0.01c2.61,0.26,15.51,3.45,13.78,40.93c-1.58,34.1,0.28,61.89,0.36,62.24V698.28z
	 M2270.82,563.14L2270.82,563.14L2270.82,563.14z M2224.44,551.23c0,0.03,0.01,0.06,0.01,0.09
	C2224.45,551.3,2224.45,551.27,2224.44,551.23z"/>
<path class="st8" d="M2025.7,535.32c-2.66-0.69-6.1-1.29-10.08-1.99c-21.84-3.8-58.4-10.16-61.39-50.48
	c-0.98-13.23-1-24.93-1.02-35.24c-0.04-22.92-0.07-38.05-10.52-45.81c-6.17-4.58-12.82-7.05-19.26-9.44
	c-11.06-4.1-22.5-8.35-30.31-22.85c-11.38-21.14-27.55-66.07-28.23-67.97l8.47-3.04c0.17,0.46,16.62,46.2,27.68,66.75
	c6.2,11.52,15.15,14.84,25.51,18.68c7.02,2.61,14.29,5.3,21.49,10.65c14.07,10.45,14.1,28.3,14.15,53.02
	c0.02,10.17,0.04,21.69,1,34.6c2.47,33.32,32.23,38.5,53.96,42.28c4.18,0.73,7.79,1.35,10.81,2.14L2025.7,535.32z"/>
<path class="st7" d="M2315.82,533.73l-15.28,16.36c1.19-1.53,37.76-59.36,72.41-54.17c15.18,2.28,22.2-0.49,23.6-3.55
	c1.13-2.46-0.72-6.44-4.49-9.67c-2.9-2.48-4.2-6.48-3.86-11.88c1.29-20.88,28.22-65.28,47.24-77.88l4.97,7.5
	c-16.66,11.04-42.11,52.8-43.23,70.94c-0.18,2.89,0.38,4.18,0.74,4.49c7.01,6.01,9.69,13.96,6.82,20.24
	c-2.18,4.78-9.39,12.27-33.12,8.71C2342.22,500.39,2316.08,533.39,2315.82,533.73z"/>
<path class="st7" d="M2268.41,995.78l-5.3-9.17c0.75-4.27-6.6-8.59-10.25-20.13c-4.71-14.88-10.05-31.74-10.16-44.41
	c-0.03-3.38-0.16-6.45-0.28-9.42c-0.69-16.79-1.19-28.91,17.92-55.16l7.28,5.3c-17.26,23.71-16.87,33.42-16.21,49.5
	c0.12,3.04,0.25,6.19,0.29,9.71c0.1,11.32,5.22,27.5,9.74,41.77C2266.45,979.62,2269.48,989.65,2268.41,995.78z"/>
<path class="st7" d="M1958.9,407.83l-8.46-3.06c2.19-6.07,4.35-11.5,6.25-16.29c7.38-18.58,11.45-28.81,6.37-44.76
	c-6.81-21.4-17.57-47.05-17.68-47.36c-1.08-3.12-2.56-12.97-2.56-12.97c0.62,1.21,21.78,35.48,28.82,57.6
	c6.05,19.02,1.02,31.67-6.58,50.81C1963.17,396.53,1961.04,401.89,1958.9,407.83z"/>
<path class="st7" d="M2346.75,390.89l-32.2-6.85c39.52-7.34,115.41-43.17,129.89-73.74c7.32-15.45,19.23-24.02,29.74-31.59
	c11.24-8.09,20.94-15.08,22.75-28.71c3.19-23.98,1.74-45.46,0.57-62.71c-0.23-3.35-0.44-6.49-0.6-9.43
	c-1.02-18.42,15.02-55.73,15.15-56.16l-4.39,29.64c-0.02,0.08-2.7,9.35-1.78,26.02c0.16,2.9,0.37,6.01,0.59,9.31
	c1.13,16.73,2.68,39.64-0.63,64.51c-2.32,17.48-14.57,26.29-26.41,34.82c-10.1,7.27-20.54,14.79-26.86,28.14
	C2436.73,347.6,2382.58,373.65,2346.75,390.89z"/>
<path class="st7" d="M1834.72,688.18c57.5-85.65,73.72-93.76,85.07-122.95c11.35-29.19,34.87-97.02,34.87-97.02
	s34.87,48.37,46.22,48.37c11.35,0,65.38,14.6,86.21,0c20.83-14.6,35.43-24.33,54.89-35.68c19.46-11.35,24.44-21.55,23.28-45.15
	s-19.93-93.97-6.43-87.27c13.5,6.69,104.68,26.19,114.4,27.79c9.72,1.59,60.31,22.16,71.57,20.42c11.26-1.74,58.27,3.93,58.27,3.93
	s-66.47,2.45-90.8,5.69s-43.61,1.16-65.59,23.28s-25.23,56.18-25.23,61.05c0,3.42,1.76,38.4-0.48,46.05
	c-1.37,4.68-19.09-20.11-27.09-20.11c-27,0-55.9,29.19-74.98,37.3c-19.08,8.11-18.54,13.19-59.63,8.11
	c-41.09-5.08-41.98,7.17-43.31,63.84c-0.21,9.06,7.89,31.54,4.97,34.7s-16.85-12.99-21.8-13.85c-22.16-3.85-61.29-38.64-86.98-19.73
	C1874.98,654.3,1834.72,688.18,1834.72,688.18z"/>
<path class="st7" d="M1932.98,596.67c13.09-18.23,19.86-25,19.86-39.9c0-14.9-0.9-56.43,8.58-43.79s12.8,29.79,26.49,28.89
	c13.69-0.9,25.88-12.19,46.65-9.03s24.83,14.45,42.89,6.77c18.06-7.67,26.18-10.51,38.37-21.51c12.19-11,46.95-30.86,46.95-30.86
	s-10.38,20.64-23.93,30.86c-13.54,10.22-27.99,23.77-38.82,26.02c-10.83,2.26-37.47,5.42-50.11,4.97
	c-12.64-0.45-22.57-6.77-34.31,0.45c-11.74,7.22-18.06,6.77-18.96,23.47c-0.9,16.7,7.22,23.47-0.45,31.15
	c-7.67,7.67-17.61,13.54-21.22,3.16s1.4-19.86-5.17-19.41c-6.57,0.45-12.23,2.15-21.82,8.75s-16.8,5.7-16.8,5.7L1932.98,596.67z"/>
<path class="st7" d="M2191.17,371.57c8.41,15.42,14.02,21.5,22.9,21.5c8.88,0,9.81-6.08,27.57-3.27s31.78,6.77,42.53,6.89
	c10.75,0.12,32.04,0.29,43.46,0c11.42-0.29,30,4.9,23.84,0.16c-6.17-4.74-11.28-11.54-24.3-9.39c-13.02,2.16-31.32-2.34-45.8-4.67
	c-14.49-2.34-20.68-6.08-34.18-7.48c-13.49-1.4-20.5,4.97-28.92,3.42c-8.41-1.55-14.96-8.56-18.69-9.96
	c-3.74-1.4-16.36-7.95-17.76-7.95C2180.42,360.82,2191.17,371.57,2191.17,371.57z"/>
<path class="st7" d="M2204.26,496.82c-4.21-17.76-11.63-3.81,2.6-34.39s17.5-38.52,12.83-45.07c-4.67-6.54-9.81-16.47,1.87-18.52
	c11.68-2.05,21.03-4.38,20.56-6.72c-0.47-2.34,14.05-4.51,0.02-5.29c-14.04-0.78-25.11-8.08-37.57-7
	c-12.46,1.08-15.26-9.67-18.06,3.42c-2.8,13.09-3.27,25.7-0.47,35.52c2.8,9.81,9.35,20.1,2.34,29.44c-7.01,9.35-11,7.95-6.67,19.16
	s9.47,13.55,11.81,15.42C2195.84,484.67,2204.26,496.82,2204.26,496.82z"/>
<path class="st7" d="M1869.13,310.24c-11.17-2.8-14.68-15.42-20.98-4.91c-6.31,10.52-20.47-1.9-22.54,7.62s25.34,46.19,18.33,46.63
	s-33.65-32.52-29.44-47.94c4.21-15.42,21.98-30.18,34.35-28.04s24.54,15.18,24.54,15.18L1869.13,310.24z"/>
<path class="st7" d="M1996.04,328.2c-6.11,36.66,5,47.96-2.78,70.65c-7.78,22.7-8.34,21.03-0.56,48.26
	c7.78,27.23-28.19,25.57,19.53,36.13c47.72,10.56,62.17,16.12,79.96-7.23c17.78-23.34,29.46-2.36,31.68-39.25
	c2.22-36.89,13.34-56.4,0-56.93c-13.34-0.53-9.56,11.44-36.46,2.68c-26.9-8.76-34.68-12.96-46.35-34.48
	c-11.67-21.52-27.23-39.31-33.9-39.86c-6.67-0.56-11.12-3.33-11.12,5.56S1996.04,328.2,1996.04,328.2z"/>
<path class="st7" d="M1804.31,509.28c0,53.35-5.69,79.08-32.7,64.08c-27.01-14.99-32.41-49.12-53.88-80.39
	c-21.47-31.28-57.01-33.28-76.91-72.09s-14.22-70.72,21.33-98.84s42.93-90.66,55.59-96.35c12.65-5.69,39.67-7.11,42.51,14.22
	c2.84,21.33-25.9,4.54-17.22,60.56s49.92,82.22,61.29,98.26c11.37,16.05,33.82-2.44,30.42,38.79
	C1831.32,478.75,1804.31,509.28,1804.31,509.28z"/>
<path class="st7" d="M2437.29,632.63c14.71-25.15,25.49-35.12,38.87-17.81s7.47,35.45,12.75,58.33s27.77,37.31,29.97,63.15
	c2.2,25.84-10.29,38.73-41.08,38.51c-30.79-0.22-24.03,93.79-33.79,91.68s-56.48-79.02-52.44-90.15
	c4.04-11.13,18.04,7.68,27.86-22.02s-69.15-11.8-72.1-23.67c-2.95-11.88,18.21-125.9,31.78-144.05
	C2392.7,568.44,2437.29,632.63,2437.29,632.63z"/>
<path class="st7" d="M2103.03,593.65c-48.55,1.13-54.15-34.14-56.06,0s18.52,56.51,33.46,64.58c14.93,8.07,58.56,18.29,82.34,26.15
	c23.77,7.86,63.17,27.75,66.26,31.56s16.67-17.41,15.39-45.71c-1.28-28.3,11.74-34.58-2.24-52.66
	c-13.98-18.08-26.03-11.79-39.66-32.23c-13.62-20.44-2.62-20.44-13.62-29.87c-11-9.43-40.61,23.58-52.14,31.44
	c-11.53,7.86-30.39,6.73-30.39,6.73H2103.03z"/>
<path class="st7" d="M2173.96,585.35c-8.65,13.36-26.72,23.71-47.16,27.57c-20.44,3.87-41.24,12.18-23.77,22.17
	c17.48,9.99,30.05,4.49,54.42,12.35c24.37,7.86,38.25,29.08,45.06,21.22c6.81-7.86,21.03-17.29,11.56-27.51
	c-9.47-10.22-25.43-11.79-32.38-18.86S2173.96,585.35,2173.96,585.35z"/>
<path class="st7" d="M1982.23,934.47c-2.42-11.82-10.84-45.35-18.41-54.46c-8.15-9.8-15.84-19.07-14.72-30.02
	c1.04-10.07,8.72-24,17.61-40.13c7.94-14.39,16.93-30.7,21.84-45.78c3.94-12.1,4.83-22.49,5.54-30.83
	c1.09-12.73,2.12-24.75,16.91-26.23c17.23-1.72,36.45-5.53,36.64-5.57l1.95,9.81c-0.8,0.16-19.88,3.94-37.6,5.71
	c-5.8,0.58-6.69,2.5-7.94,17.13c-0.76,8.86-1.7,19.88-6,33.08c-5.2,15.98-14.44,32.74-22.59,47.52
	c-8.02,14.55-15.6,28.28-16.42,36.33c-0.7,6.77,5.4,14.11,12.46,22.6c7.97,9.59,7.4,15.27,10.32,29.54L1982.23,934.47z"/>
<path class="st7" d="M2086.05,844.07c-35.46-1.92-51.74-43.09-45.99,0c5.75,43.09,32.56,63.98,37.35,90.41s-38.31,39.84,3.83,49.42
	c42.14,9.57,107.26-2.88,107.26-6.71c0-3.83-2.63-11.49-25.74-64.16c-23.1-52.67-16.4-67.9-21.19-88.54
	c-4.79-20.64-24.11-15.39-27.86-6.52C2109.97,826.83,2086.05,844.07,2086.05,844.07z"/>
<path class="st7" d="M1843.72,845.98c-38.28,16.28-39.19,61.65-94.78,21.07c-36.62-26.73-83.66-49.09-74.44-17.98
	c25.36,85.52,3.8,136.04,16.26,138.36c11.38,2.12,131.86-10.25,152.96-24.61c21.09-14.36,63.25-30.65,25.42-43.09
	c-37.84-12.45-55.08,3.15-45.5-20.93S1843.72,845.98,1843.72,845.98z"/>
<path class="st7" d="M2041.08,46.49c-9.07,125.28-17.59,167.44,10.67,187.34c28.26,19.9,28.68-14.46,39.22,13.64
	s-20.46,56.3,18.52,68.01c38.99,11.71,100.26,22,141.36,28.72c41.1,6.72,56.32,65.26,94.96,6.72s56.45-78.45,81.5-94.84
	c25.05-16.39,19.19-7.03,25.05-52.69c5.85-45.66-2.34-58.54,32.78-78.45c35.13-19.9,55.06-55.92,46.8-3.23
	c-5.46,34.84,3.97,88.01-15.67,143.62c-10.06,28.49-82.71,75.58-63.71,97.35c10.2,11.68,94.3-86.09,102.89-78.75
	c14.95,12.78,30.08,42.92,54.3-17.32c38.14-94.84,65.07-114.02,42.82-178.78c-22.25-64.76,88.99-104.57-53.86-104.57
	c-142.85,0-315.36-14.05-382.49-3.51C2149.09-9.71,2041.08,46.49,2041.08,46.49z"/>
<path class="st7" d="M2363.77,256.3c0,53.35-55.23,68.73-82.24,53.74c-27.01-14.99-32.41-49.12-53.88-80.39s-38.99,38.44-58.89-0.36
	c-19.9-38.8-116.88-64.06-81.33-92.17c35.54-28.11,13.65-155.6,26.3-161.28c12.65-5.69,153.59-20.57,156.44,0.76
	s73.86-24.82,82.54,31.2s129.71,0.81,141.08,16.85c11.37,16.05-77.08,104.43-80.48,145.66S2363.77,256.3,2363.77,256.3z"/>
<path class="st7" d="M2021.74,399.83c-11.83,39.72-35.5,48.18-5.92,56.63c29.59,8.45,40.58,5.07,47.34,0
	c6.76-5.07,48.51,7.61,24.25-14.37c-24.25-21.98-38.62-21.19-34.4-34.27c4.23-13.07,27.31-10.65,5.62-16.93
	c-21.69-6.28-26.24-8.38-26.24-8.38L2021.74,399.83z"/>
<path class="st7" d="M1560.77,30.96c52.44,55.2,96.69,94.19,108.98,109.51c12.29,15.33,14.75-19.43,90.95,0
	c76.2,19.43,61.16,64.49,83.02,23.52s2.24-40.97,29.67-79.48c27.43-38.51,65.94,4.37,40.54-67.46
	c-25.4-71.83-165.51-41.75-199.93-41.22c-34.41,0.53-98.32,8.72-117.99,10.36S1560.77,30.96,1560.77,30.96z"/>
<path class="st7" d="M1692.93,319.03c28.35,8.56,39.05,18.38,31.56,26.58c-7.49,8.19-31.56,16.92-24.61,36.9
	c6.95,19.98,23,27.25,36.38,32.98c13.37,5.73,26.75-2.52,35.31,0c8.56,2.52,32.1,24.99,25.68,39.43
	c-6.42,14.44-22.47,25.48-20.33,41.9s-13.91,22.84-22.47,5.72c-8.56-17.12,0-21.94-16.05-38.52c-16.05-16.58-5.88-4.81-35.84-31.56
	s-40.12-29.79-34.24-49.94c5.88-20.15,26.75-37.49,24.61-44.87C1690.79,330.27,1692.93,319.03,1692.93,319.03z"/>
<path class="st7" d="M2181.7,121.72c19.32,25.35,69.5,13.21,89.12,18.76c19.62,5.56,39.89,24.11,43.73,35.79
	c3.84,11.68,19.21-0.82,30.39-35.79s22.29-37.76,36.3-51.73c14-13.97,58.09-26.55-10.76-34.93c-68.85-8.38-105.8-2.79-146.01-2.79
	c-40.21,0-56.63-9.78-61.69,6.99C2157.7,74.77,2171.63,108.5,2181.7,121.72z"/>
<path class="st7" d="M2449.67,675.02c-53.6-45.35-50.41-75.55-59.59-61.66s-10.18,36.37,3.6,52.72
	c13.78,16.35,43.78,6.64,33.46,57.52c-10.32,50.88,10.07,78.19,19.22,54.18s38.47-21.61,36.52-44.83
	C2480.91,709.73,2449.67,675.02,2449.67,675.02z"/>
<path class="st7" d="M2113.72,874c-11.91,5.59-36.53-14.41-17.23,17.95c19.3,32.36,26.92,57.51,22.41,61.7
	c-4.51,4.19,37.12,26.55,37.96,11.18c0.84-15.37,4.74-24.68-9.09-38.19c-13.83-13.51-17.6-22.61-24.1-27.84
	C2117.18,893.56,2113.72,874,2113.72,874z"/>
<path class="st7" d="M1756.69,907.17c-39.12-17.8-57.29-35.01-55.89-15.23c1.4,19.78,19.88,34.53,16.93,42.53
	c-2.96,7.99-40.64,27.55,14.53,20.57s67.89-9.78,81.79-11.18c13.9-1.4,33.61-10.71,0-17.23c-33.61-6.52-32.12,4.08-38.45-6.81
	C1769.26,908.93,1756.69,907.17,1756.69,907.17z"/>
<path class="st7" d="M1814.05,114.35c-4.31-2.42-7.28-4.5-9.65-6.34c-7.66-5.95-9.02-9.41-28.8-13.68
	c-25.89-5.59-53.52,2.79-57.87-15.37c-4.35-18.16-43.15-39.21,0-30.78c43.15,8.42,56.61,19.87,80.62,16.94
	c24.01-2.93,29.87-36.55,36.72-16.94s7.12,19.43,0,29.3s-21.02,44.24-21.02,44.24V114.35z"/>
<path class="st7" d="M1882.76,568.78c-7.82,6.95-12.6,10.43-9.13,11.3c3.48,0.87,4.78,4.15,9.13-2.49s1.74-0.12,8.26-8.81
	c6.52-8.69,5.69-10.86,5.69-10.86L1882.76,568.78z"/>
<path class="st7" d="M1737.09,723.37c0,1.57-0.52,7.31,2.61,4.7c3.13-2.61,3.2-0.52,2.64-4.7c-0.56-4.18,0.23-7.31-2.51-3.66
	S1737.09,723.37,1737.09,723.37z"/>
<path class="st7" d="M1682.79,649.75c4.7,13.58,3.13,16.72,7.31,20.63s10.97-0.26,7.83-4.44c-3.13-4.18-6.65-5.45-9.92-7.71
	C1684.74,655.97,1682.79,649.75,1682.79,649.75z"/>
<path class="st7" d="M1812.28,670.38c-4.18,6-5.22,10.7-2.61,8.61c2.61-2.09-1.04,1.04,2.61-2.09
	C1815.94,673.77,1812.28,670.38,1812.28,670.38z"/>
<path class="st7" d="M1938.65,698.28c10.97-4.67,16.19,1.36,15.14-5.57s11.49-25.24-2.09-13.22s-16.19,17.18-17.23,18.78
	c-1.04,1.6-1.04,1.6-1.04,1.6L1938.65,698.28z"/>
<path class="st7" d="M1873.38,261.61c2.15,11.44-1.76,11.44,1.85,12.94c3.61,1.5,6.32,13.24,6.62,1.81s0.9-9.03,0-14.75
	c-0.9-5.72-1.07-6.66-4-10.1c-2.92-3.44-4.82-0.47-4.47,0c0.35,0.47-0.04,8.6-0.04,8.6L1873.38,261.61z"/>
<path class="st7" d="M1903.66,395.73c1.86,9.78,1.4,15.82,5.59,12.1c4.19-3.72,14.9-0.76,6.05-5.5
	C1906.45,397.59,1903.66,395.73,1903.66,395.73z"/>
<path class="st7" d="M2029.24,236.61c0.78,13.95,12.4,13.26,12.4,13.26s-1.16-2.4,0-3.57c1.16-1.16,1.16-0.3-1.94-3.06
	c-3.1-2.75-1.22-0.43-3.91-6.63c-2.68-6.2-0.63-7.75-3.4-7.75S2029.24,236.61,2029.24,236.61z"/>
<path class="st7" d="M1938.93,119.56c1.55,9.69-0.38,15.12,3.88,17.05c4.26,1.94,4.14,3.1,5.17,7.36s10.45,8.91,10.58,2.71
	s5.29-5.04,0-13.57c-5.29-8.53-10.41-7.75-8.62-13.57c1.78-5.81,0.93-12.4,0-12.02c-0.93,0.39-2.09,6.64-3.64,6.81
	c-1.55,0.17-5.04,0-5.04,0L1938.93,119.56z"/>
<path class="st7" d="M2413.29,371.45c-4.75,5.86-8.51,7.57-3.91,8.39s15.24,2.95,15.78,0c0.53-2.95,3.46-8.39,3.46-8.39l-7.95-10.63
	L2413.29,371.45z"/>
<path class="st7" d="M2288.49,436.76c-6.69,2.45-4.6-2.98-6.69,2.45s-7.56,15.74,5.42,11.42c12.98-4.31,9.53-3.06,18.37-8.08
	c8.84-5.02,26.41-22.59,12.19-13.8c-14.22,8.78-12.22,11.71-16.78,10.25C2296.44,437.54,2288.49,436.76,2288.49,436.76z"/>
<path class="st7" d="M2268.62,688.18c-2.95,13.28-4.33,14.81,0,17.5c4.33,2.69,6.64,1.92,7.4,6.52c0.77,4.6-3.84,12.27,0,12.66
	c3.84,0.38,15.2-0.38,10.28-6.52c-4.91-6.14-4.91-9.21-7.98-14.19s-4.99-7.14-6.14-11.43S2268.62,688.18,2268.62,688.18z"/>
<path class="st7" d="M2282.54,836.1c4.22,4.99,10.36,8.82,14.58,8.44c4.22-0.38,3.45,6.03,6.52,12.99
	c3.07,6.96,9.97,17.7,12.27,3.12c2.3-14.58,11.12-11.89,0-19.18c-11.12-7.29-13.04-6.9-19.18-7.29c-6.14-0.38-5.78,1.44-9.22-2.54
	c-3.44-3.98-4.98,1.77-4.98,1.77V836.1z"/>
<path class="st7" d="M2364.26,1015.06c5.92-7.66,11.49-6.89,7.66-19.28c-3.83-12.4,3.13-10.66-5.92-15.18
	c-9.05-4.53-3.48,0.35-11.49-5.57c-8.01-5.92-9.75-3.48-14.97-13.92c-5.22-10.44-12.18-16.01-13.92-16.36
	c-1.74-0.35,3.07-4.18-4.21,0c-7.28,4.18-7.63,3.48-5.19,8.01c2.44,4.53,4.18,6.96,9.4,13.92c5.22,6.96,15.42,12.06,11.14,19.15
	c-10.09,16.71-16.36,28.89-6.27,29.24c10.09,0.35,17.06,0.7,22.97,0C2359.39,1014.37,2364.26,1015.06,2364.26,1015.06z"/>
<path class="st7" d="M2420.25,489.01c14.52,1.35,16.33,0,16.33,0s-6.14,5.71-11.42,5.71c-5.28,0,0.53,0.36-5.28,0
	s-1.93-5.71-1.93-5.71H2420.25z"/>
<path class="st7" d="M2541.81,374.97c-0.46,0.23-0.89,0.46-1.3,0.69c-8.78,4.86-8.13,9.83-15.75,17.28
	c-7.98,7.8-8.71,15.42-18.14,12.52c-9.44-2.9-10.52-5.27-10.52,0.63c0,5.9-3.99,4.45,2.54,10.62c6.53,6.17,10.89,7.26,20.32,3.63
	c9.44-3.63,7.26-3.99,16.69-12.34s10.52-12.7,20.32-12.7c9.8,0,15.97,9.07,11.61,0c-4.35-9.07,8.71-12.7-9.44-10.52
	c-18.14,2.18-16.33,6.17-18.14,2.18C2538.18,382.95,2541.81,374.97,2541.81,374.97z"/>
<path class="st7" d="M2428.62,288.57c2.07-13.06-3.73-14.03,3.04-17.42c6.77-3.39,9.25,0,8.74,3.39c-0.51,3.39-1.33,3.85-3.83,6.77
	c-2.49,2.91-0.48,14.66-2.21,18.71s-4.54,10.82-7.73,4.53c-3.19-6.29-0.19-4.84,0-9.19
	C2426.82,290.99,2428.62,288.57,2428.62,288.57z"/>
<path class="st7" d="M2007.05,707.75c0,0-10.93,0.14-16.94,0c-6.01-0.14-8.17-4.55-10.33-7.87s-3.6-5.73-6.73-6.93
	c-3.12-1.2-8.04-3.36-8.04-3.36s2.76,6.91,3.96,11.86c1.2,4.96,1.92,15.77,8.89,16.49c6.97,0.72,12.25-1.42,14.9-1.55
	c2.64-0.13,9.37,0,9.37,0L2007.05,707.75z"/>
<path class="st7" d="M1976.89,313.51c0.4-8.05,0.89-13.29-2.58-17.72c-3.46-4.43-0.65-7.89-3.87-7.37s-7.6-2.7-7.63,3.34
	c-0.02,6.04-2.05,5.87,2.19,9.17c4.23,3.31,6.73,0.18,9.31,6.37C1976.89,313.51,1976.89,313.51,1976.89,313.51z"/>
<path class="st7" d="M1927.52,222.07c-3.58-6.69-2.02-9.55-5.3-9.55s-5.17,7.57-3.51,11.3c1.66,3.73,5.95,9.46,8.82,10.17
	c2.86,0.72,5.91,0,5.91,0v-5.13L1927.52,222.07z"/>
<path class="st7" d="M1604.84,145.38c1.94,12.62,10.2,16.51,11.17,20.88c0.97,4.37-1.94,11.65-5.83,16.99
	c-3.88,5.34-9.52,13.59,0.34,16.02s12.29,7.77,15.69-3.88c3.4-11.65,19.42-5.09,11.17-22.45s-7.77-16.02-14.08-23.25
	c-6.31-7.23-7.28-12.08-10.68-14.02c-3.4-1.94-7.77-13.59-7.77-1.94S1604.84,145.38,1604.84,145.38z"/>
<path class="st7" d="M1894.45,733.59c-11.33-0.31-15.92-7.35-14.39,8.57c1.53,15.92,13.47,19.6,1.84,33.68
	c-11.64,14.09-11.02,36-7.04,35.15s2.45,0.68,13.17-6.98c10.72-7.66,5.51-7.04,18.68-15.31c13.17-8.27,30.31-19.6,16.54-28.48
	s-12.86-5.51-17.45-11.33C1901.19,743.09,1894.45,733.59,1894.45,733.59z"/>
<path class="st7" d="M2360.65,752.4c-6.56,0.88-27.57,5.47-31.29,8.53c-3.72,3.06-8.53,5.69-2.63,11.16
	c5.91,5.47,10.72,13.13,18.82,5.69c8.1-7.44,9.41-13.13,16.85-10.72c7.44,2.41,12.03,2.32,12.91-0.52
	C2380.8,748.82,2367.22,751.52,2360.65,752.4z"/>
<path class="st7" d="M2528.62,809.53c-26.6-5.53-35.77-25.29-40.36-4.74c-4.59,20.55-15.96,24.5-11.19,52.95
	c4.77,28.45,14.45,51.79,25.2,68.57c10.75,16.78,11.67,25.69,8.92,36.25c-2.75,10.56,44.02,12.93,44.02-11.57
	c0-24.5-15.59-43.47-14.67-71.13c0.92-27.66,9.17-33.07,11.01-44.19C2553.38,824.54,2528.62,809.53,2528.62,809.53z"/>
<path class="st7" d="M2527.34,826.68c-22.19-11.33-22.19-27.02-29.83-6.68c-7.64,20.34-16.73,19.37-8.37,35.98
	c8.37,16.61,15.64,25.03,20.37,28.52c4.73,3.49-12.73,22.95-7.28,24.4c5.46,1.45,17.21,9.91,19.7-8.27
	c2.49-18.17-4.68-25.15,0-33.28c4.67-8.13,5.4-11.33,12.31-15.4C2541.17,847.89,2527.34,826.68,2527.34,826.68z"/>
<path class="st7" d="M2175.04,171.2c5.73,16.86,3.46,18.13,6.66,27.04s11.47,16.86,15.61,7.95s2.54-6.28,9.23-15.55
	c6.68-9.26,14-11.81,7-19.44c-7-7.63-11.13-1.91-20.36-7.32c-9.23-5.41-6.36-7-14-9.54c-7.63-2.54-10.82-12.72-11.13-3.18
	S2175.04,171.2,2175.04,171.2z"/>
<path class="st7" d="M2333.77,235.78c-8.91,2.14-12.09,7.95-47.47,3.59c-6.46-0.8-19.11-11.86-19.11-11.86s-3.09,60.2,39.54,53.8
	C2349.36,274.91,2333.77,235.78,2333.77,235.78z"/>
<path class="st7" d="M2199.91,272.89c-9.93,5.11-12.87,2.93-18.21,8.42c-5.34,5.48-13.85,11.59,1.76,19.46
	c15.6,7.87,20.44,8.72,32.92,10.42c12.48,1.7,26.95,17.02,29.5,7.66c2.55-9.36,9.65-8.08-2.27-18.08
	c-11.92-10.01-10.5-12.24-16.46-22.33c-5.96-10.09-11.59-21.41-14.73-22.14c-3.14-0.72-5.13-6.65-8.54,0
	C2200.48,262.96,2199.91,272.89,2199.91,272.89z"/>
<path class="st7" d="M2146.13,251.5c-15.7-9.66-11.68-11.46-17.31-22.64c-5.64-11.18-3.62-13.6-18.52-20.44
	c-14.9-6.85-23.61-14.9-22.88-4.03c0.73,10.87,8.78,14.74,14.42,29.92c5.64,15.18,5.23,23.09,10.07,35.44s11.68,30.07,22.95,21.61
	c11.27-8.46,19.44-11.68,26.83-18.52c7.39-6.85,18.26-15.85,9-18.19C2161.43,252.31,2146.13,251.5,2146.13,251.5z"/>
<path class="st7" d="M1611.15,658.23c35.56-10.76,64.87-9.8,52.37-39.11c-12.49-29.31-11.05-14.38-20.18-37.46
	s-7.14-29.81-13.9-57.2c-6.76-27.39-6.76-32.52-13.97-32.12s-21.14-17.15-43.72-3.33c-22.58,13.82-42.94,37.21-33,80.77
	c9.94,43.57,17.15,76,30.12,79.96C1581.84,653.71,1611.15,658.23,1611.15,658.23z"/>
<path class="st7" d="M1613.85,875.9c15.67,17.84,28.45,11.26,30.01,27.2c1.56,15.94-3.75,22.2,5.63,34.08
	c9.38,11.88,17.82,0.24,16.26,19.35c-1.56,19.11-5,39.74-26.26,43.81c-21.26,4.06-43.77,9.69-64.4,4.38s-27.12,29.46-29.08-41.89
	c-1.95-71.35,9.69-127.87,16.88-132.87c7.19-5,16.57-17.2,31.58,0C1609.48,847.13,1605.62,866.53,1613.85,875.9z"/>
<path class="st7" d="M1637.62,831.64c-7.82-6.7-9.69-10.64-15.94-21.49c-6.25-10.85-10.63-2.1-11.26-18.67s11.88-29.08,20.01-26.57
	c8.13,2.5,10.63,1.88,16.88,14.07s15.32,6.57,3.75,22.2c-11.57,15.63,2.81,38.14-2.19,39.08S1637.62,831.64,1637.62,831.64z"/>
<path class="st7" d="M1808.25,788.07c-10.01,11.06-37.32,30.77-57.03,26.62c-19.7-4.15-39.41-24.2-36.99-9.33
	c2.42,14.87,17.63,32.84,31.8,40.1s7.61,28.69,31.11,13.83c23.51-14.87,17.73-12.77,33.93-27.64s24.72,1.03,21.49-27.32
	c-3.22-28.35-0.8-33.53-3.22-37.34c-2.42-3.8-3.46-10.66-8.3-2.39C1816.21,772.86,1808.25,788.07,1808.25,788.07z"/>
<path class="st7" d="M1632.68,623.05c-12.77-27.45-13.41-31.92-12.45-50.12c0.96-18.2,12.77-19.15-4.15-37.99
	s-26.18-32.88-35.75-18.2c-9.58,14.68-31.28,15.32-25.22,47.24c6.07,31.92,4.79,52.35,22.98,60.97
	c18.2,8.62,26.49,16.28,39.58,13.09C1630.77,634.86,1632.68,623.05,1632.68,623.05z"/>
<path class="st7" d="M1786.65,609.21c-10.91,1.77-18.57-2.06-27.71-8.7c-9.14-6.63-15.48-22.55-21.89-24.61
	c-6.41-2.06-10.24-16.49-12.01,9.44c-1.77,25.93-10.02,42.91,3.54,49.74c13.56,6.84,38.61,14.8,50.4,5.36
	c11.79-9.43,22.99-14.44,23.29-25.35c0.29-10.91,1.47-14.74-1.47-14.59C1797.85,600.66,1786.65,609.21,1786.65,609.21z"/>
<path class="st7" d="M2443.44,547.95c15.94,9.36,15.76,12.65,23.82,20.75c8.06,8.1,4.52,19.49,14.89,8.6s12.65-10.12,16.7-20.25
	s10.63-22.02,7.09-32.14s-6.07-26.07-13.92-24.55c-7.85,1.52-2.78-10.88-14.42,5.57c-11.64,16.45-13.41,23.48-24.04,25.02
	c-10.63,1.55-27.55-3.51-26.93,6.36C2427.24,547.19,2443.44,547.95,2443.44,547.95z"/>
<path class="st7" d="M2556.29,596.6c-20.06,7.85-25.98,8.72-26.07,30.52c-0.09,21.8-18.4,34.47,11.25,65.2
	c29.65,30.73,57.56,64.69,66.28,70.82c8.72,6.13,40.99-24.8,27.04-70.82c-13.95-46.02-22.67-82.65-32.27-89.62
	C2592.92,595.73,2556.29,596.6,2556.29,596.6z"/>
<path class="st7" d="M1682.44,212.52c-2.88,24.23-1.92,34.8-4.8,45.86c-2.88,11.05-21.62,37.2-33.15,42.38s-20.18,14.31-26.43,2.78
	c-6.25-11.53-18.26-11.28-3.36-25.1c14.9-13.82,21.14-5.65,27.39-22.47s4.8-35.54,10.57-45.88c5.77-10.34,13.93-25.71,21.14-21.87
	c7.21,3.84,14.41,15.86,13.45,18.26C1686.29,208.88,1682.44,212.52,1682.44,212.52z"/>
<path class="st7" d="M1749.26,191.91c11.42,17.56,30.74,12.29,36.01,27.66c5.27,15.37,7.9,25.36-1.32,35.08
	c-9.22,9.71-12.29,24.2,2.2,13.22s25.47-13.55,39.96-19.51s50.06-7.54,22.83-26.29s-31.18-14.36-43.91-26.65
	c-12.73-12.29-3.51-20.64-27.66-31.61c-24.15-10.98-29.86-19.76-41.71-10.54c-11.86,9.22-22.83,25.91-22.83,38.64
	c0,12.73-23.71,10.54,0,15.81c23.71,5.27,29.42-1.49,32.93-8.65S1749.26,191.91,1749.26,191.91z"/>
<path class="st7" d="M1853.99,472.77c-12.46,22.74-24.3,28.04-28.04,33.34c-3.74,5.3-7.79,19.01-3.12,36.76
	c4.67,17.76,6.54,33.34,15.58,19.01s19.32-23.35,23.99-43.77c4.67-20.41,7.48-25.71,4.98-42.54c-2.49-16.82-6.54-33.65-7.48-23.68
	C1858.98,461.86,1853.99,472.77,1853.99,472.77z"/>
<path class="st7" d="M1685.55,496.82c-13.32-2.86-28.54-5.58-18.83,11.38c9.72,16.96,18.02,16.33,24.03,28.21s1.17,28.51,7.97,17.39
	c6.8-11.12,6.45-7.26,7.5-19.53c1.05-12.27,7.36-16.59-1.4-21.62c-8.76-5.02-13.08-7.13-14.07-8.53S1685.55,496.82,1685.55,496.82z"
	/>
<path class="st7" d="M1570.67,896.81c25.3,7.33,22.73,4.5,29.33,18.02c6.6,13.52,5.5,12.42,18.7,24.52
	c13.2,12.1,19.43,22.37,6.6,30.8c-12.83,8.43-35.57,23.56-45.1,17.28c-9.53-6.28-15.03-6.28-14.3-23.52
	S1570.67,896.81,1570.67,896.81z"/>
<path class="st7" d="M1758.61,173.13c-6.09,2.03-3.05,16.93,7.79,19.3c10.83,2.37,16.59,10.61,20.32,17.67s-0.34,29.49,14.9,29.27
	c15.24-0.21,29.12-2.24,29.46-7.32c0.34-5.08,6.77-1.99-5.76-9.97c-12.53-7.98-14.9-1.67-22.69-15.83
	c-7.79-14.16-10.16-18.67-14.9-25.72s-2.37-9.43-11.17-9.43S1758.61,173.13,1758.61,173.13z"/>
<path class="st7" d="M1738.63,165.62c-7.45,14.95-9.02,19.89-6.37,21.99c2.65,2.1,7.48,6.84-1.2,7.86c-8.68,1.02-12.4,11.17-11.39,0
	c1.02-11.17,5.42-25.06,9.14-27.43C1732.54,165.68,1738.63,165.62,1738.63,165.62z"/>
<path class="st7" d="M2038.2,406.17c-16.36,13.92-27.5,23.59-19.49,30.59c8.01,7,25.3,8.74,28.14,8.74c2.84,0,18.85-1.13,9.11-8.74
	c-9.75-7.62-12.53-8.57-13.92-14.36C2040.64,416.61,2038.2,406.17,2038.2,406.17z"/>
<path class="st7" d="M2108.9,739.34c-37.7,0-59.29-6.19-63.49-6.1s-18.89,7.52-8.7,33.05c10.2,25.53,13.2,35.73,21.29,39.33
	c8.1,3.6,7.5,22.26,21.29,4.53c13.8-17.73,23.99-21.93,32.69-27.33s13.96-5.88,14.18-20.34c0.22-14.45,0.22-18.95-4.88-21.35
	C2116.19,738.74,2108.9,739.34,2108.9,739.34z"/>
<path class="st7" d="M2100.79,751.72c-20,0.55-31.49,3.92-38.73,0s-13.83-20.95-8.94-3.5c4.89,17.45,8.94,30.22,13.41,32.98
	c4.47,2.77,5.72,4.47,13.18-2.55c7.46-7.02,17.25-10.64,21.08-15.32c3.83-4.68,4.47-8.51,2.77-10.21
	C2101.85,751.41,2100.79,751.72,2100.79,751.72z"/>
<path class="st7" d="M2344.2,433.71c-21.05,18.87-27.09,25.89-42.09,26.85c-15,0.97-45.48-16.45-49.59,5.32
	c-4.11,21.77-7.74,41.78,4.11,52.22c11.85,10.44,10.4,26.16,27.09,10.68c16.69-15.48,38.95-49.35,60.48-49.84s22.98,16.45,28.06-4.6
	c5.08-21.05,14.52-38.47,5.56-50.56c-8.95-12.1-11.13-21.53-17.66-11.13C2353.63,423.07,2344.2,433.71,2344.2,433.71z"/>
<path class="st7" d="M2357.02,436.76c-8.95,11.47-29.27,24.41-45.24,27.25s-36.45-6.35-40.96,4.05c-4.52,10.4-6.37,25.81,0,26.82
	c6.37,1,11.69,4.68,24.75-5.87c13.06-10.55,40.4-20.71,50.56-20.71c10.16,0,15.24,10.04,19.35-4.3s7.26-23.53,3.15-29.33
	c-4.11-5.81,0.24-11.85-6.77-6.77C2354.84,432.99,2357.02,436.76,2357.02,436.76z"/>
<path class="st7" d="M2564.77,129.91c-15.48,11.86-16.8,4.28-13.17,37.21c3.62,32.93,10.21,80.36-5.6,91.22
	c-15.81,10.87-28.98,28.98-36.88,36.88c-7.9,7.9-43.14,26.35-35.24,30.3c7.9,3.95,40.18-27.66,52.03-35.24
	c11.86-7.57,38.2-24.6,44.46-20.54c6.26,4.07,19.76,10.99,23.71-4.49c3.95-15.48,12.51-110.26,10.54-124.78
	c-1.98-14.52,1.65-15.33-9.22-26.12C2584.53,103.56,2564.77,129.91,2564.77,129.91z"/>
</svg>
