<?xml version="1.0" encoding="utf-8"?>
<!-- Generator: Adobe Illustrator 28.0.0, SVG Export Plug-In . SVG Version: 6.00 Build 0)  -->
<svg version="1.1" id="Шар_1" xmlns="http://www.w3.org/2000/svg" xmlns:xlink="http://www.w3.org/1999/xlink" x="0px" y="0px"
	 viewBox="0 0 1000 1000" style="enable-background:new 0 0 1000 1000;" xml:space="preserve">
<style type="text/css">
	.st0{fill:url(#SVGID_1_);}
	.st1{fill:#A09B88;}
	.st2{fill:none;stroke:#3A3A3A;stroke-miterlimit:10;}
	.st3{fill:#E2E2E2;}
	.st4{opacity:0.44;}
	.st5{fill:#383838;}
	.st6{fill:none;stroke:#000000;stroke-miterlimit:10;}
	.st7{fill:#F1A47A;}
	.st8{fill:#4E403F;}
	.st9{fill:#FFFFFF;}
	.st10{fill:#FCCD95;}
	.st11{fill:none;stroke:#000000;stroke-width:3;stroke-miterlimit:10;}
	.st12{opacity:0.44;fill:none;stroke:#000000;stroke-width:3;stroke-miterlimit:10;}
</style>
<linearGradient id="SVGID_1_" gradientUnits="userSpaceOnUse" x1="498.7218" y1="340.8964" x2="504.8017" y2="1097.6808">
	<stop  offset="0" style="stop-color:#1B1C1E"/>
	<stop  offset="0.2627" style="stop-color:#1C1E20"/>
	<stop  offset="0.4051" style="stop-color:#212528"/>
	<stop  offset="0.5187" style="stop-color:#2A3236"/>
	<stop  offset="0.6171" style="stop-color:#364349"/>
	<stop  offset="0.7057" style="stop-color:#455A63"/>
	<stop  offset="0.7873" style="stop-color:#587682"/>
	<stop  offset="0.8634" style="stop-color:#6F98A6"/>
	<stop  offset="0.9332" style="stop-color:#89BDD0"/>
	<stop  offset="1" style="stop-color:#A6E8FF"/>
</linearGradient>
<rect x="0" class="st0" width="1000" height="1000"/>
<path class="st1" d="M538.86,631.12h7.71c6.87,0,12.48-6.84,12.48-15.19V486.78c0-8.35-9.65-69.76-24.51-81.94
	c-5.69-4.67-8.17,73.58-8.17,81.94v129.15C526.38,624.28,531.99,631.12,538.86,631.12z"/>
<path class="st2" d="M519.07,505.61c0,0,4.48-6.77,20.23-6.77s19.53,6.77,19.53,6.77"/>
<path class="st2" d="M519.62,478.9c0,0,4.39-6.77,19.82-6.77s19.13,6.77,19.13,6.77"/>
<path class="st3" d="M523.76,615.43c0,0-25.59,3.84-37.97,0c-7.98-2.48-15.19-6.84-15.19-15.19V143.22
	c0-40.5,19.77-70.07,29.23-77.67c2.92-2.35,7.06-2.44,10.07-0.2c9.54,7.11,29.05,35.67,29.05,77.87v457.02
	C538.95,608.6,535.67,612.08,523.76,615.43z"/>
<path class="st4" d="M523.77,615.43c11.91-3.35,15.19-6.84,15.19-15.19V143.21c0-42.2-19.51-70.76-29.05-77.87
	c-2.84-2.12-6.69-2.12-9.57-0.14c6.81,10.54,12.95,15.39,17.29,33.19c5.39,22.13,12.2,489.93,12.2,504.27
	C529.83,610.29,523.77,615.43,523.77,615.43z"/>
<ellipse class="st3" cx="542.72" cy="623.28" rx="12.88" ry="5.96"/>
<ellipse class="st4" cx="503.54" cy="610.29" rx="12.88" ry="5.96"/>
<circle class="st5" cx="504.78" cy="151.86" r="12.15"/>
<path class="st6" d="M469.37,373.56c0,0,7.84-10.22,35.41-10.22s34.17,10.22,34.17,10.22"/>
<path class="st6" d="M469.99,328.18c0,0,7.84-10.22,35.41-10.22c27.57,0,34.17,10.22,34.17,10.22"/>
<path class="st6" d="M469.99,287.66c0,0,7.84-10.22,35.41-10.22c27.57,0,34.17,10.22,34.17,10.22"/>
<path class="st6" d="M469.99,254.76c0,0,7.84-10.22,35.41-10.22c27.57,0,34.17,10.22,34.17,10.22"/>
<path class="st6" d="M470.61,209.38c0,0,7.84-10.22,35.41-10.22c27.57,0,34.17,10.22,34.17,10.22"/>
<path class="st7" d="M447.69,634.66c0,0-11.76,17.47-17.46,23.18c-5.71,5.71-13.13,15.87-22.83,15.92c-9.7,0.06-14.27-5.76-17.12,0
	c-2.85,5.76-6.85,15.47-10.27,18.89c-3.42,3.42-29.11,23.95-10.84,11.4s25.75-15.97,25.75-15.97s-0.07,7.42-5.2,26.82
	c-5.14,19.41-24.54,29.68-15.98,26.82c8.56-2.85,11.37-3.03,25.68-8c14.31-4.97,32.48-24.79,19.38-10.68
	c-13.1,14.11-26.8,29.52-26.8,42.65s-0.57,29.11-3.42,43.38c-2.85,14.27-3.42,32.53-7.99,39.95s10.97,10.27,14.33,0
	s18.77-28.54,19.91-23.4s4.52,21.69,3.97,36.53c-0.55,14.84-6.25,27.97-6.25,27.97s21.12-17.69,25.11-27.97s13.13-37.1,19.98-23.4
	s10.84,24.54,6.85,35.96s25.05-27.97,25.05-27.97s6.63,3.42,10.48,9.13c3.85,5.71-3.61-0.57-4.73-14.84
	c-1.12-14.27,4.3-42.23,4.73-51.37s0.95-53.08,3.54-11.99c2.59,41.09,2.59,48.51,3.73,60.5c1.14,11.99-6.85,47.37,0,35.39
	c6.85-11.99,22.85-46.23,22.56-33.1c-0.3,13.13,7.13,22.83,9.12,30.82s6.1,15.98,3.76,21.12c-2.34,5.14,13.32-6.85,16.34-9.13
	c3.01-2.28,4.73-6.85,15,6.28s12.56,46.8,10.27,13.13s1.71-50.53,1.71-50.53s17.12,11.15,17.12,8.87s-17.12-33.1-15.41-48.51
	s-5.37-45.66,8.16-34.24c13.53,11.41,18.67,23.4,15.81,10.84c-2.85-12.56-2.28-31.39-8.56-48.51c-6.28-17.12-23.97-9.7-26.25-33.1
	c-2.28-23.4-1.14-34.58,1.71-26.71c2.85,7.87-7.73-8.04-17.12-19.52c-9.39-11.49-7.94-22.19-7.94-22.19l-6.16,13.23
	c0,0-9.02,28.37-8.3,35.79s3.68,41.07,3.63,45.65s-12.83-30.32-10.84-36.52c2-6.19,5.43-29.04,5.43-29.04s-17.36-28.93-22.62-29.11
	c-5.25-0.19-9.92-7.95-9.92-7.95s-23.81,16.45-24.07,21.58c-0.26,5.14-10.11,28.08-10.11,28.08s-3.87,10.63-2.96-4.68
	s0-23.97,0-23.97l-6.82-22.88L447.69,634.66z"/>
<path class="st1" d="M465.52,615.43h-9.38c-8.35,0-15.19-6.84-15.19-15.19V471.1c0-8.35,11.74-69.76,29.82-81.94
	c6.93-4.67,9.94,73.58,9.94,81.94v129.15C480.71,608.6,473.87,615.43,465.52,615.43z"/>
<ellipse class="st3" cx="460.83" cy="606.4" rx="15.62" ry="7.23"/>
<path class="st8" d="M460.83,602.67c-7.26,0-13.14,2.72-13.14,6.08v10.71c0,3.36,5.88,6.08,13.14,6.08c7.26,0,13.14-2.72,13.14-6.08
	v-10.71C473.97,605.39,468.09,602.67,460.83,602.67z"/>
<path class="st2" d="M440.95,491.5c0,0,4.48-6.77,20.23-6.77s19.53,6.77,19.53,6.77"/>
<path class="st2" d="M441.49,464.79c0,0,4.39-6.77,19.82-6.77c15.43,0,19.13,6.77,19.13,6.77"/>
<path class="st8" d="M514.43,631.12h-21.77c-2.15,0-3.66-2.11-2.97-4.14l4.33-12.72c1.39-4.08,5.22-6.82,9.52-6.82l0,0
	c4.31,0,8.14,2.74,9.52,6.82l4.33,12.72C518.09,629.01,516.58,631.12,514.43,631.12z"/>
<ellipse class="st1" cx="503.54" cy="628.19" rx="13.96" ry="6.46"/>
<path class="st8" d="M542.72,620.2c-5.98,0-10.84,2.25-10.84,5.02v8.83c0,2.77,4.85,5.02,10.84,5.02s10.84-2.25,10.84-5.02v-8.83
	C553.55,622.45,548.7,620.2,542.72,620.2z"/>
<path class="st9" d="M503.54,643.14c-3.81,5.29-8.24,8.2-8.28,8.99c-0.03,0.79-4.79,1.59,1.29,1.59s7.98-0.79,8.22,4.5
	c0.24,5.29,1.56,15.34,2.09,14.01c0.53-1.32-0.53-15.87,0-18.25c0.53-2.38,6.61-2.91,7.93-1.32c1.32,1.59,4.57,9.52,1.62,2.38
	c-2.95-7.14-8.88-11.56-10.88-15.97c-2-4.41-3.28-8.43-3.28-8.43s1.74,5.04,0,6.52s-4.11,3.34-2.27,4.13
	S503.54,643.14,503.54,643.14z"/>
<path class="st10" d="M493.96,735.71c-5.3-6.52-8.24-11.32-13.25-26.67c-5.01-15.36-3.51-23.04-4.26-29.28
	c-0.75-6.24,4.59-13.92,0-17.28s-11.31,1.92-12.27-8.64c-0.96-10.56,0-16.85,0.48-19.94s2.86-12.17,2.86-12.17
	c1.16-0.67,1.85-1.53,1.85-2.45c0-2.18-3.82-3.95-8.54-3.95c-4.72,0-8.54,1.77-8.54,3.95c0,0.19,0.04,0.37,0.09,0.56
	c-0.29,4.58-19.1,29.84-22.75,32.58c-3.84,2.88-15.36-2.88-20.16,0c-4.8,2.88-12,6.24-4.8,12s12-4.32,12.96,4.32
	c0.96,8.64-6.24,7.68-8.64,12.96c-2.4,5.28-7.68,2.88-12.96,15.36s9.6,33.12,12,33.12c2.4,0,21.12-7.2,19.2,0s-12,11.04-15.84,22.08
	s-2.88,31.2-4.32,43.67s-11.85,24.48-12.16,25.92c-0.31,1.44,33.28-17.76,36.64-29.76c3.36-12-0.96-65.75,5.28-27.36
	c6.24,38.39,7.2,50.87-1.92,66.23s-13.44,23.52-8.64,20.64c4.8-2.88,32.65-34.08,34.56-42.23c1.91-8.16-4.8-58.07,5.27-23.52
	c10.08,34.56,12.06,48.47,10.35,53.75c-1.71,5.28,8.37,5.76,9.33,0.48c0.96-5.28,4.6-35.04,3.74-49.43s6.34-23.52-6.14-40.79
	c-12.48-17.28-23.14-41.27-9.41-29.28C487.7,732.55,499.25,742.23,493.96,735.71z"/>
<path class="st10" d="M587.61,748.94c-7.61-9.03-11.6-8.37-19.57-28.66c-7.97-20.3-2.54-19.94-1.45-19.94s10.15,4.35,10.15,4.35
	s-5.44-6.16-10.51-12.32c-5.07-6.16-9.42-18.85-10.63-29.36c-0.92-8.08-6.35-20.93-8.82-26.44c1.8-0.59,2.98-1.56,2.98-2.66
	c0-1.8-3.15-3.26-7.05-3.26c-3.89,0-7.05,1.46-7.05,3.26c0,1.08,1.15,2.04,2.91,2.64c-0.84,7.17-2.82,24.11-2.91,26.1
	c-0.11,2.54-4.97,23.2-9.29,32.26c-4.33,9.06-22.83,34.8-22.83,34.8s15.56-9.42,22.83-21.75c7.27-12.32,5.41,18.12,3.45,26.46
	c-1.96,8.34-9.64,35.16-16.7,43.13s0.9,1.45,4.38-0.36c3.48-1.81,15.73-21.75,18.16-23.2c2.43-1.45-7.14,22.11-9.29,30.45
	c-2.15,8.34-5.82,31.9-5.46,36.25c0.36,4.35,2.54,34.43,2.9,20.66c0.36-13.77,15.59-20.3,17.4-25.74c1.81-5.44,2.54-23.92,1.5-27.55
	s5.39,11.24,9.37,22.11s1.45,26.82,1.46,35.88c0.01,9.06,11.59,18.12,12.67,18.49l0.36,1.81c0,0,3.62-5.44,2.9-10.51
	c-0.72-5.07-3.26-17.4-3.62-33.35c-0.36-15.95,0.72-11.6,3.62-3.62s16.67,13.77,16.31,11.24c-0.36-2.54-7.61-20.66-14.5-45.31
	c-6.89-24.65-2.9-22.11,0-29.36s9.42,1.09,19.21,3.26C600.3,760.87,595.22,757.97,587.61,748.94z"/>
<path class="st10" d="M511.99,681.95c-0.71-4.91,2.57-4.29,6.45,0.61c0,0-5.75-9.82-6.45-17.79c-0.71-7.98-6.23-9.82-0.71-7.98
	s15.09,8.59,15.09,8.59s-5.28-9.82-9.57-16.56c-4.29-6.75-4.91-1.48-7.36-9.94c-0.83-2.86-1.37-4.73-1.74-5.99
	c3.21-0.72,5.42-2.23,5.42-3.99c0-2.45-4.29-4.44-9.59-4.44c-5.3,0-9.59,1.99-9.59,4.44c0,1.42,1.44,2.67,3.67,3.49
	c-0.33,4.81-1.46,11.6-5.03,14.6c-5.84,4.91-9.52,8.59-9.52,11.66s2.1,8.92-3.68,11.66c-5.78,2.74,10.68,7.36,11.78,3.07
	c1.1-4.29,6.56-13.5,6.56-13.5s-3.99,9.82-6.56,21.47s-8.1,23.31-8.1,23.31s18.01-3.07,18.51-11.04c0.5-7.97,4.8-12.88,6.03-3.07
	c1.23,9.82,5.71,13.5,4.39,17.79c-1.32,4.29,0,7.36,0,7.36s11.72,16.56,7.04,0C514.35,699.13,512.7,686.86,511.99,681.95z"/>
<path class="st9" d="M455.95,619.27c-0.26,5.16-1.03,19.1-5.68,23.49c-4.65,4.39-11.61,10.84-13.16,13.94
	c-1.55,3.1-7.74,18.84-8.52,19.36c-0.77,0.52-9.81,12.9-9.81,12.9s13.94-13.94,16-15.23c2.06-1.29,9.55-21.42,4.9-3.36
	c-4.65,18.07-10.58,35.87-13.42,40.78c-2.84,4.9,8.77,4.13,11.1-3.87s0.96-23.23,3.58-2.84c2.61,20.39,6.49,45.68,5.45,38.71
	c-1.03-6.97,6.71-38.2,8.52-42.07c1.81-3.87,6.19-2.32,9.03,1.81s5.16,10.07,2.58-1.29s-4.13-28.65-3.36-28.13
	s4.47,10.07,4.47,10.07s-5.76-12.65-8.34-21.94c-2.58-9.29,0.72-30.9,1.52-32.35c0.8-1.46,4.15-9.04,4.15-9.04s-3.1-3.55-5.68-2.89
	C456.72,617.98,455.95,619.27,455.95,619.27z"/>
<path class="st9" d="M541.26,637.16c0,2.88,0.12,17.92-2.31,24.6c-2.43,6.68-5.49,30.36-5.21,31.75s4.02,11.42,5.21,15.6
	c1.2,4.18,1.74,12.26-1.46,18.38s-0.98,6.68,0,5.85c0.98-0.84,9.06-6.68,9.06-12.81c0-6.13-2.67-17.27-3.84-22.28
	c-1.17-5.01,4.96-3.34,7.05,10.86c2.09,14.21-9.63,29.52-9.62,38.16c0.01,8.63,6.42,10.03,7.81,13.09
	c1.39,3.06,3.34,10.58,3.34,10.58s1.11-31.2,0-32.31c-1.11-1.11,6.61,4.46,7.76,7.8c1.15,3.34,1.99,5.57,1.99,5.57
	s-1.11-11.14-3.62-18.38s1.39-7.8,3.62-2.51s9.47,13.37,8.36,10.31s-5.36-18.24-10.34-24.85c-4.98-6.62-6.86-12.75-5.5-13.58
	c1.36-0.84,10.27,4.73,6.65-0.56c-3.62-5.29-9.65-12.81-8.59-13.37c1.07-0.56,12.21,6.41,12.21,6.41s-3.36-3.34-8.23-11.42
	c-4.87-8.08-7.93-16.99-7.93-18.94s0.56-10.03-0.28-12.81c-0.84-2.79-2.51-6.41-3.34-8.63
	C543.21,641.43,541.26,637.16,541.26,637.16z"/>
<g>
	<path class="st9" d="M224.76,102.01c0,27.53-22.32,49.85-49.85,49.85c27.53,0,49.85,22.32,49.85,49.85
		c0-27.53,22.32-49.85,49.85-49.85C247.08,151.86,224.76,129.54,224.76,102.01z"/>
</g>
<g>
	<path class="st9" d="M705.63,244.54c0,16.29-13.21,29.5-29.5,29.5c16.29,0,29.5,13.21,29.5,29.5c0-16.29,13.21-29.5,29.5-29.5
		C718.84,274.04,705.63,260.83,705.63,244.54z"/>
</g>
<g>
	<path class="st9" d="M852.92,219.42c0,10.7-8.67,19.37-19.37,19.37c10.7,0,19.37,8.67,19.37,19.37c0-10.7,8.67-19.37,19.37-19.37
		C861.59,238.79,852.92,230.11,852.92,219.42z"/>
</g>
<g>
	<path class="st9" d="M346.94,434.51c0,11.32-9.18,20.5-20.5,20.5c11.32,0,20.5,9.18,20.5,20.5c0-11.32,9.18-20.5,20.5-20.5
		C356.12,455.01,346.94,445.83,346.94,434.51z"/>
</g>
<g>
	<path class="st9" d="M135.87,297.47c0,11.32-9.18,20.5-20.5,20.5c11.32,0,20.5,9.18,20.5,20.5c0-11.32,9.18-20.5,20.5-20.5
		C145.05,317.97,135.87,308.79,135.87,297.47z"/>
</g>
<g>
	<path class="st9" d="M793.22,505.61c0,19.63-15.92,35.55-35.55,35.55c19.63,0,35.55,15.92,35.55,35.55
		c0-19.63,15.92-35.55,35.55-35.55C809.14,541.16,793.22,525.24,793.22,505.61z"/>
</g>
<rect x="1284.08" y="-22.27" class="st9" width="1000" height="1000"/>
<path class="st11" d="M1817.39,629.95h7.71c6.87,0,12.48-6.84,12.48-15.19V485.61c0-8.35-9.65-69.76-24.51-81.94
	c-5.69-4.67-8.17,73.58-8.17,81.94v129.15C1804.91,623.11,1810.53,629.95,1817.39,629.95z"/>
<path class="st11" d="M1797.61,504.44c0,0,4.48-6.77,20.23-6.77c15.75,0,19.53,6.77,19.53,6.77"/>
<path class="st11" d="M1798.15,477.73c0,0,4.39-6.77,19.82-6.77s19.13,6.77,19.13,6.77"/>
<path class="st11" d="M1802.3,614.27c0,0-25.59,3.84-37.97,0c-7.98-2.48-15.19-6.84-15.19-15.19V142.05
	c0-40.5,19.77-70.07,29.23-77.67c2.93-2.35,7.06-2.44,10.07-0.2c9.54,7.11,29.05,35.67,29.05,77.87v457.02
	C1817.49,607.43,1814.2,610.92,1802.3,614.27z"/>
<path class="st12" d="M1802.3,614.26c11.91-3.35,15.19-6.84,15.19-15.19V142.05c0-42.2-19.51-70.76-29.05-77.87
	c-2.84-2.12-6.69-2.12-9.57-0.14c6.81,10.54,12.95,15.39,17.29,33.19c5.39,22.13,12.2,489.93,12.2,504.27
	C1808.37,609.12,1802.3,614.26,1802.3,614.26z"/>
<ellipse class="st11" cx="1821.25" cy="622.11" rx="12.88" ry="5.96"/>
<ellipse class="st12" cx="1782.08" cy="609.12" rx="12.88" ry="5.96"/>
<circle class="st11" cx="1783.31" cy="150.69" r="12.15"/>
<path class="st11" d="M1747.91,372.4c0,0,7.84-10.22,35.41-10.22s34.17,10.22,34.17,10.22"/>
<path class="st11" d="M1748.52,327.02c0,0,7.84-10.22,35.41-10.22c27.57,0,34.17,10.22,34.17,10.22"/>
<path class="st11" d="M1748.52,286.49c0,0,7.84-10.22,35.41-10.22c27.57,0,34.17,10.22,34.17,10.22"/>
<path class="st11" d="M1748.52,253.6c0,0,7.84-10.22,35.41-10.22c27.57,0,34.17,10.22,34.17,10.22"/>
<path class="st11" d="M1749.14,208.22c0,0,7.84-10.22,35.41-10.22s34.17,10.22,34.17,10.22"/>
<path class="st11" d="M1726.22,633.49c0,0-11.76,17.47-17.46,23.18c-5.71,5.71-13.13,15.87-22.83,15.92
	c-9.7,0.06-14.27-5.76-17.12,0c-2.85,5.76-6.85,15.47-10.27,18.89c-3.42,3.42-29.11,23.95-10.84,11.4s25.75-15.97,25.75-15.97
	s-0.06,7.42-5.2,26.82c-5.14,19.41-24.54,29.68-15.98,26.82s11.37-3.03,25.68-8c14.31-4.97,32.48-24.79,19.38-10.68
	c-13.1,14.11-26.8,29.52-26.8,42.65s-0.57,29.11-3.42,43.38c-2.85,14.27-3.42,32.53-7.99,39.95c-4.57,7.42,10.97,10.27,14.33,0
	c3.36-10.27,18.77-28.54,19.91-23.4c1.14,5.14,4.52,21.69,3.97,36.53c-0.55,14.84-6.25,27.97-6.25,27.97s21.12-17.69,25.11-27.97
	c4-10.27,13.13-37.1,19.98-23.4c6.85,13.7,10.84,24.54,6.85,35.96c-4,11.41,25.05-27.97,25.05-27.97s6.63,3.42,10.48,9.13
	c3.85,5.71-3.61-0.57-4.73-14.84c-1.12-14.27,4.3-42.23,4.73-51.37c0.43-9.13,0.95-53.08,3.54-11.99
	c2.59,41.09,2.59,48.51,3.73,60.5s-6.85,47.37,0,35.39s22.85-46.23,22.56-33.1c-0.3,13.13,7.13,22.83,9.12,30.82
	c2,7.99,6.1,15.98,3.76,21.12c-2.34,5.14,13.32-6.85,16.34-9.13s4.73-6.85,15,6.28c10.27,13.13,12.56,46.8,10.27,13.13
	s1.71-50.53,1.71-50.53s17.12,11.15,17.12,8.87c0-2.28-17.12-33.1-15.41-48.51c1.71-15.41-5.37-45.66,8.16-34.24
	s18.67,23.4,15.81,10.84c-2.85-12.56-2.28-31.39-8.56-48.51c-6.28-17.12-23.97-9.7-26.25-33.1s-1.14-34.58,1.71-26.71
	c2.85,7.87-7.73-8.04-17.12-19.52s-7.94-22.19-7.94-22.19l-6.16,13.23c0,0-9.02,28.37-8.3,35.79c0.72,7.42,3.68,41.07,3.63,45.65
	c-0.05,4.58-12.83-30.32-10.84-36.52c2-6.19,5.43-29.04,5.43-29.04s-17.36-28.93-22.62-29.11c-5.25-0.19-9.92-7.95-9.92-7.95
	s-23.81,16.45-24.07,21.58c-0.26,5.14-10.11,28.08-10.11,28.08s-3.87,10.63-2.96-4.68s0-23.97,0-23.97l-6.82-22.88L1726.22,633.49z"
	/>
<path class="st11" d="M1744.05,614.27h-9.38c-8.35,0-15.19-6.84-15.19-15.19V469.93c0-8.35,11.74-69.76,29.82-81.94
	c6.93-4.67,9.94,73.58,9.94,81.94v129.15C1759.24,607.43,1752.41,614.27,1744.05,614.27z"/>
<ellipse class="st11" cx="1739.36" cy="605.23" rx="15.62" ry="7.23"/>
<path class="st11" d="M1739.36,601.5c-7.26,0-13.14,2.72-13.14,6.08v10.71c0,3.36,5.88,6.08,13.14,6.08
	c7.26,0,13.14-2.72,13.14-6.08v-10.71C1752.5,604.22,1746.62,601.5,1739.36,601.5z"/>
<path class="st11" d="M1719.48,490.34c0,0,4.48-6.77,20.23-6.77s19.53,6.77,19.53,6.77"/>
<path class="st11" d="M1720.02,463.62c0,0,4.39-6.77,19.82-6.77s19.13,6.77,19.13,6.77"/>
<path class="st11" d="M1792.96,629.95h-21.77c-2.15,0-3.66-2.11-2.97-4.14l4.33-12.72c1.39-4.08,5.22-6.82,9.52-6.82l0,0
	c4.31,0,8.14,2.74,9.52,6.82l4.33,12.72C1796.62,627.84,1795.11,629.95,1792.96,629.95z"/>
<ellipse class="st11" cx="1782.08" cy="627.03" rx="13.96" ry="6.46"/>
<path class="st11" d="M1821.25,619.04c-5.98,0-10.84,2.25-10.84,5.02v8.83c0,2.77,4.85,5.02,10.84,5.02
	c5.98,0,10.84-2.25,10.84-5.02v-8.83C1832.09,621.28,1827.23,619.04,1821.25,619.04z"/>
<path class="st11" d="M1782.08,641.98c-3.81,5.29-8.24,8.2-8.28,8.99c-0.03,0.79-4.79,1.59,1.29,1.59s7.98-0.79,8.22,4.5
	c0.24,5.29,1.56,15.34,2.09,14.01c0.53-1.32-0.53-15.87,0-18.25c0.53-2.38,6.61-2.91,7.93-1.32c1.32,1.59,4.57,9.52,1.62,2.38
	s-8.88-11.56-10.88-15.97s-3.28-8.43-3.28-8.43s1.74,5.04,0,6.52s-4.11,3.34-2.27,4.13
	C1780.38,640.92,1782.08,641.98,1782.08,641.98z"/>
<path class="st11" d="M1772.49,734.55c-5.3-6.52-8.24-11.32-13.25-26.67c-5.01-15.36-3.51-23.04-4.26-29.28
	c-0.75-6.24,4.59-13.92,0-17.28c-4.59-3.36-11.31,1.92-12.27-8.64c-0.96-10.56,0-16.85,0.48-19.94c0.48-3.09,2.86-12.17,2.86-12.17
	c1.16-0.67,1.85-1.53,1.85-2.45c0-2.18-3.82-3.95-8.54-3.95c-4.72,0-8.54,1.77-8.54,3.95c0,0.19,0.04,0.37,0.09,0.56
	c-0.29,4.58-19.1,29.84-22.75,32.58c-3.84,2.88-15.36-2.88-20.16,0c-4.8,2.88-12,6.24-4.8,12c7.2,5.76,12-4.32,12.96,4.32
	c0.96,8.64-6.24,7.68-8.64,12.96c-2.4,5.28-7.68,2.88-12.96,15.36s9.6,33.12,12,33.12s21.12-7.2,19.2,0
	c-1.92,7.2-12,11.04-15.84,22.08s-2.88,31.2-4.32,43.67s-11.85,24.48-12.16,25.92s33.28-17.76,36.64-29.76
	c3.36-12-0.96-65.75,5.28-27.36c6.24,38.39,7.2,50.87-1.92,66.23s-13.44,23.52-8.64,20.64c4.8-2.88,32.65-34.08,34.56-42.23
	c1.91-8.16-4.8-58.07,5.27-23.52c10.08,34.56,12.06,48.47,10.35,53.75s8.37,5.76,9.33,0.48c0.96-5.28,4.6-35.04,3.74-49.43
	c-0.86-14.4,6.34-23.52-6.14-40.79c-12.48-17.28-23.14-41.27-9.41-29.28C1766.23,731.39,1777.79,741.06,1772.49,734.55z"/>
<path class="st11" d="M1866.14,747.77c-7.61-9.03-11.6-8.37-19.57-28.66c-7.97-20.3-2.54-19.94-1.45-19.94s10.15,4.35,10.15,4.35
	s-5.44-6.16-10.51-12.32c-5.07-6.16-9.42-18.85-10.63-29.36c-0.92-8.08-6.35-20.93-8.82-26.44c1.8-0.59,2.98-1.56,2.98-2.66
	c0-1.8-3.15-3.26-7.05-3.26c-3.89,0-7.05,1.46-7.05,3.26c0,1.08,1.15,2.04,2.91,2.64c-0.84,7.17-2.82,24.11-2.91,26.1
	c-0.11,2.54-4.97,23.2-9.29,32.26c-4.33,9.06-22.83,34.8-22.83,34.8s15.56-9.42,22.83-21.75c7.27-12.32,5.41,18.12,3.45,26.46
	s-9.64,35.16-16.7,43.13s0.9,1.45,4.38-0.36c3.48-1.81,15.73-21.75,18.16-23.2c2.43-1.45-7.14,22.11-9.29,30.45
	c-2.15,8.34-5.82,31.9-5.46,36.25c0.36,4.35,2.54,34.43,2.9,20.66c0.36-13.77,15.59-20.3,17.4-25.74c1.81-5.44,2.54-23.92,1.5-27.55
	s5.39,11.24,9.37,22.11c3.99,10.87,1.45,26.82,1.46,35.88c0.01,9.06,11.59,18.12,12.67,18.49l0.36,1.81c0,0,3.62-5.44,2.9-10.51
	c-0.72-5.07-3.26-17.4-3.62-33.35c-0.36-15.95,0.72-11.6,3.62-3.62c2.9,7.97,16.67,13.77,16.31,11.24
	c-0.36-2.54-7.61-20.66-14.5-45.31c-6.89-24.65-2.9-22.11,0-29.36c2.9-7.25,9.42,1.09,19.21,3.26
	C1878.83,759.7,1873.76,756.8,1866.14,747.77z"/>
<path class="st11" d="M1790.53,680.79c-0.71-4.91,2.57-4.29,6.45,0.61c0,0-5.75-9.82-6.45-17.79c-0.71-7.98-6.23-9.82-0.71-7.98
	c5.52,1.84,15.09,8.59,15.09,8.59s-5.28-9.82-9.57-16.56c-4.29-6.75-4.91-1.48-7.36-9.94c-0.83-2.86-1.37-4.73-1.74-5.99
	c3.21-0.72,5.42-2.23,5.42-3.99c0-2.45-4.29-4.44-9.59-4.44c-5.3,0-9.59,1.99-9.59,4.44c0,1.42,1.44,2.67,3.67,3.49
	c-0.33,4.81-1.46,11.6-5.03,14.6c-5.84,4.91-9.52,8.59-9.52,11.66s2.1,8.92-3.68,11.66c-5.78,2.74,10.68,7.36,11.78,3.07
	c1.1-4.29,6.56-13.5,6.56-13.5s-3.99,9.82-6.56,21.47c-2.58,11.66-8.1,23.31-8.1,23.31s18.01-3.07,18.51-11.04
	c0.5-7.97,4.8-12.88,6.03-3.07c1.23,9.82,5.71,13.5,4.39,17.79c-1.32,4.29,0,7.36,0,7.36s11.72,16.56,7.04,0
	C1792.89,697.97,1791.23,685.7,1790.53,680.79z"/>
<path class="st11" d="M1734.48,618.11c-0.26,5.16-1.03,19.1-5.68,23.49c-4.65,4.39-11.61,10.84-13.16,13.94s-7.74,18.84-8.52,19.36
	c-0.77,0.52-9.81,12.9-9.81,12.9s13.94-13.94,16-15.23c2.06-1.29,9.55-21.42,4.9-3.36c-4.65,18.07-10.58,35.87-13.42,40.78
	c-2.84,4.9,8.77,4.13,11.1-3.87s0.96-23.23,3.58-2.84c2.61,20.39,6.49,45.68,5.45,38.71s6.71-38.2,8.52-42.07
	c1.81-3.87,6.19-2.32,9.03,1.81c2.84,4.13,5.16,10.07,2.58-1.29c-2.58-11.36-4.13-28.65-3.36-28.13c0.77,0.52,4.47,10.07,4.47,10.07
	s-5.76-12.65-8.34-21.94c-2.58-9.29,0.72-30.9,1.52-32.35c0.8-1.46,4.15-9.04,4.15-9.04s-3.1-3.55-5.68-2.89
	C1735.26,616.82,1734.48,618.11,1734.48,618.11z"/>
<path class="st11" d="M1819.8,636c0,2.88,0.12,17.92-2.31,24.6c-2.43,6.68-5.49,30.36-5.21,31.75s4.02,11.42,5.21,15.6
	s1.74,12.26-1.46,18.38s-0.98,6.68,0,5.85c0.98-0.84,9.06-6.68,9.06-12.81s-2.67-17.27-3.84-22.28c-1.17-5.01,4.96-3.34,7.05,10.86
	c2.09,14.21-9.63,29.52-9.62,38.16c0.01,8.63,6.42,10.03,7.81,13.09c1.39,3.06,3.34,10.58,3.34,10.58s1.11-31.2,0-32.31
	s6.61,4.46,7.76,7.8c1.15,3.34,1.99,5.57,1.99,5.57s-1.11-11.14-3.62-18.38s1.39-7.8,3.62-2.51c2.23,5.29,9.47,13.37,8.36,10.31
	c-1.11-3.06-5.36-18.24-10.34-24.85c-4.98-6.62-6.86-12.75-5.5-13.58c1.36-0.84,10.27,4.74,6.65-0.56
	c-3.62-5.29-9.65-12.81-8.59-13.37c1.07-0.56,12.21,6.41,12.21,6.41s-3.36-3.34-8.23-11.42c-4.87-8.08-7.93-16.99-7.93-18.94
	s0.56-10.03-0.28-12.81c-0.84-2.79-2.51-6.41-3.34-8.63C1821.75,640.27,1819.8,636,1819.8,636z"/>
</svg>
