<?xml version="1.0" encoding="utf-8"?>
<!-- Generator: Adobe Illustrator 28.0.0, SVG Export Plug-In . SVG Version: 6.00 Build 0)  -->
<svg version="1.1" id="Шар_1" xmlns="http://www.w3.org/2000/svg" xmlns:xlink="http://www.w3.org/1999/xlink" x="0px" y="0px"
	 viewBox="0 0 1000 1000" style="enable-background:new 0 0 1000 1000;" xml:space="preserve">
<style type="text/css">
	.st0{fill:#FFFFFF;}
	.st1{fill:#C4B359;}
	.st2{fill:url(#SVGID_1_);}
	.st3{fill:url(#SVGID_00000073707060760175528380000014874180511221419670_);}
	.st4{fill:url(#SVGID_00000069376700140929231470000003151959459017579711_);}
	.st5{fill:url(#SVGID_00000133503138540116055190000011333617535526662311_);}
	.st6{fill:url(#SVGID_00000036238924563602008130000003461425180956198073_);}
	.st7{fill:url(#SVGID_00000062166711054179431300000001168655192942301611_);}
	.st8{fill:url(#SVGID_00000093890244821960646380000010018467935937624721_);}
	.st9{fill:url(#SVGID_00000026877681629215279960000013398671188689676422_);}
	.st10{fill:url(#SVGID_00000147214124468606469040000014892212276604184477_);}
	.st11{fill:url(#SVGID_00000110465602935966334940000007560027424213379755_);}
	.st12{fill:url(#SVGID_00000039853529025004466130000017968461846270105784_);}
	.st13{fill:url(#SVGID_00000120553571910032782160000011519625219464272260_);}
	.st14{fill:url(#SVGID_00000173141650804296038380000010547945487243290781_);}
	.st15{fill:url(#SVGID_00000114772431152782247140000015542614533820448190_);}
	.st16{fill:url(#SVGID_00000129918932551324757040000016332072605320233623_);}
	.st17{fill:url(#SVGID_00000157999324642500654800000000731326040808316562_);}
	.st18{fill:url(#SVGID_00000158724645132217705000000017138373040092865443_);}
	.st19{fill:url(#SVGID_00000043426199860019994120000014514935722146877616_);}
	.st20{fill:url(#SVGID_00000083786375900445394260000000845700617184979630_);}
	.st21{fill:url(#SVGID_00000124880911709443107780000016832653547353697200_);}
	.st22{fill:url(#SVGID_00000010998383546552370340000007153193395249840814_);}
	.st23{fill:#282223;}
	.st24{fill:url(#SVGID_00000003093846072566658330000001471636504974179741_);}
	.st25{fill:url(#SVGID_00000114766340819204071210000013359375578201198246_);}
	.st26{fill:url(#SVGID_00000039103707436025420540000010210642789359015051_);}
	.st27{fill:url(#SVGID_00000065055056093553300070000008382421599914748556_);}
	.st28{fill:url(#SVGID_00000108286642477999292430000016211829338541095314_);}
	.st29{fill:url(#SVGID_00000140725166980526111530000013981103413782875566_);}
	.st30{fill:url(#SVGID_00000093871571767645459670000009170944915356056451_);}
	.st31{fill:url(#SVGID_00000083085275654957348880000011939264829035706772_);}
	.st32{fill:url(#SVGID_00000006679981821210452710000008080858526786068878_);}
	.st33{fill:url(#SVGID_00000166642541543945470150000004241231678704892041_);}
	.st34{fill:url(#SVGID_00000108303080073240020370000010689330931089460100_);}
	.st35{fill:url(#SVGID_00000083794488781930263810000002440287958751453835_);}
	.st36{fill:url(#SVGID_00000063617849249674061700000018117832445227665798_);}
	.st37{fill:url(#SVGID_00000085958672575815525880000001447422433034060710_);}
	.st38{fill:url(#SVGID_00000060720536677575831580000018171975809397639093_);}
	.st39{fill:url(#SVGID_00000014626673207939919660000010313091460848013959_);}
	.st40{fill:url(#SVGID_00000099621857860646119700000000225989472356004253_);}
	.st41{fill:url(#SVGID_00000149352501287432400150000010856271362883014017_);}
</style>
<rect x="1243.97" y="-3.08" class="st0" width="1036.8" height="1036.8"/>
<rect class="st1" width="1000" height="880.61"/>
<linearGradient id="SVGID_1_" gradientUnits="userSpaceOnUse" x1="466.2661" y1="1317.1571" x2="518.5167" y2="85.3162">
	<stop  offset="0.6175" style="stop-color:#96884E"/>
	<stop  offset="0.7025" style="stop-color:#B57816"/>
</linearGradient>
<path class="st2" d="M1000,502.38c-66.72-4.37-185.55-30.89-219.72-28.16s-101.12,4.19-147.58,11.47
	c-46.46,7.29-345.73,9.12-430.45-11.47S0,474.87,0,474.87s0,110.76,0,124.79c0,5.03,953.83-19.15,953.83-19.15l46.17-11.66V502.38z"
	/>
<linearGradient id="SVGID_00000073682821928936482240000001048497051104178068_" gradientUnits="userSpaceOnUse" x1="511.8943" y1="1529.1981" x2="494.4416" y2="330.5816">
	<stop  offset="0.5036" style="stop-color:#96884E"/>
	<stop  offset="0.7871" style="stop-color:#754816"/>
</linearGradient>
<path style="fill:url(#SVGID_00000073682821928936482240000001048497051104178068_);" d="M-0.68,477.37
	c54.16,10.02,220.27,30.42,278.04,36.25c57.78,5.83,210.64,24.11,270.82,20.07s220.27,18.16,288.88,13.62s162.26,9.75,162.26,9.75
	v205.13l-1000,12.36V477.37z"/>
<linearGradient id="SVGID_00000114050786291680040410000007429822886207504028_" gradientUnits="userSpaceOnUse" x1="563.9983" y1="-76.1698" x2="487.4443" y2="1063.1414">
	<stop  offset="0.4576" style="stop-color:#96884E"/>
	<stop  offset="0.8222" style="stop-color:#492B1A"/>
</linearGradient>
<path style="fill:url(#SVGID_00000114050786291680040410000007429822886207504028_);" d="M0,752.56
	c59.79,5.44,157.7-4.42,220.38-19.04s157.43-39.39,276.96-36.48c119.53,2.92,287.16-7.29,361.5,5.83s140.52,24.71,140.52,24.71
	L1000,1000H-1.82L0,752.56z"/>
<g>
	
		<radialGradient id="SVGID_00000124850141410882919090000016469812481210946974_" cx="506.4805" cy="637.4943" r="215.7974" gradientUnits="userSpaceOnUse">
		<stop  offset="0" style="stop-color:#8E7661"/>
		<stop  offset="1" style="stop-color:#3A3331"/>
	</radialGradient>
	<circle style="fill:url(#SVGID_00000124850141410882919090000016469812481210946974_);" cx="605.1" cy="647.8" r="163.5"/>
	
		<linearGradient id="SVGID_00000132806666578717308770000011958530504002105752_" gradientUnits="userSpaceOnUse" x1="460.3989" y1="330.373" x2="686.8804" y2="406.7411">
		<stop  offset="0.0653" style="stop-color:#776B57"/>
		<stop  offset="0.9112" style="stop-color:#262423"/>
	</linearGradient>
	<path style="fill:url(#SVGID_00000132806666578717308770000011958530504002105752_);" d="M722.56,534.98H487.63V231.97
		c0-6.6,5.4-12,12-12h210.93c6.6,0,12,5.4,12,12V534.98z"/>
	
		<linearGradient id="SVGID_00000011730484203453341420000006033942802672827313_" gradientUnits="userSpaceOnUse" x1="492.457" y1="152.773" x2="775.9163" y2="152.773" gradientTransform="matrix(0.9893 -0.1458 0.1458 0.9893 -44.5873 308.2944)">
		<stop  offset="0.0829" style="stop-color:#998C7A"/>
		<stop  offset="0.7934" style="stop-color:#443B38"/>
	</linearGradient>
	<polygon style="fill:url(#SVGID_00000011730484203453341420000006033942802672827313_);" points="743.1,361.95 467.09,402.62 
		467.25,371.99 743.1,331.34 	"/>
	
		<linearGradient id="SVGID_00000022544596772649292260000012237967608748717991_" gradientUnits="userSpaceOnUse" x1="498.9532" y1="108.6872" x2="782.4126" y2="108.6872" gradientTransform="matrix(0.9893 -0.1458 0.1458 0.9893 -44.5873 308.2944)">
		<stop  offset="0.0986" style="stop-color:#998F7A"/>
		<stop  offset="0.8034" style="stop-color:#443A38"/>
	</linearGradient>
	<polygon style="fill:url(#SVGID_00000022544596772649292260000012237967608748717991_);" points="743.1,317.39 467.09,358.06 
		467.25,327.43 743.1,286.78 	"/>
	
		<linearGradient id="SVGID_00000034781509485845788740000000041079477482801333_" gradientUnits="userSpaceOnUse" x1="505.5199" y1="64.1237" x2="788.9793" y2="64.1237" gradientTransform="matrix(0.9893 -0.1458 0.1458 0.9893 -44.5873 308.2944)">
		<stop  offset="0.0829" style="stop-color:#998F7A"/>
		<stop  offset="0.8034" style="stop-color:#443B38"/>
	</linearGradient>
	<polygon style="fill:url(#SVGID_00000034781509485845788740000000041079477482801333_);" points="743.1,272.34 467.09,313.01 
		467.25,282.39 743.1,241.74 	"/>
	
		<radialGradient id="SVGID_00000038382313238439824810000002820003209870190988_" cx="-1337.6464" cy="815.493" r="234.5817" gradientTransform="matrix(0.3306 0 0 0.4069 1025.5162 252.0566)" gradientUnits="userSpaceOnUse">
		<stop  offset="0" style="stop-color:#896B55"/>
		<stop  offset="0.6917" style="stop-color:#3A3331"/>
	</radialGradient>
	
		<ellipse style="fill:url(#SVGID_00000038382313238439824810000002820003209870190988_);" cx="605.1" cy="586.47" rx="54.05" ry="66.53"/>
	
		<linearGradient id="SVGID_00000054226192143741893250000014716605819222519185_" gradientUnits="userSpaceOnUse" x1="1026.9915" y1="-477.7946" x2="586.3839" y2="188.1841" gradientTransform="matrix(0.6227 -0.6227 0.4839 0.4839 381.8599 1289.8234)">
		<stop  offset="0.1698" style="stop-color:#605B51"/>
		<stop  offset="0.28" style="stop-color:#2D2726"/>
	</linearGradient>
	<polygon style="fill:url(#SVGID_00000054226192143741893250000014716605819222519185_);" points="871.4,523.89 766.9,628.39 
		731.23,592.72 835.73,488.22 	"/>
	
		<linearGradient id="SVGID_00000051366786326736799320000003347823024003390619_" gradientUnits="userSpaceOnUse" x1="1819.828" y1="-934.6885" x2="1838.8647" y2="-386.5763" gradientTransform="matrix(1.000000e-14 -0.8806 0.6843 -1.400000e-14 1355.8918 1959.0747)">
		<stop  offset="0.3279" style="stop-color:#605C51"/>
		<stop  offset="0.3936" style="stop-color:#222328"/>
	</linearGradient>
	<path style="fill:url(#SVGID_00000051366786326736799320000003347823024003390619_);" d="M864.58,335.52v30.44
		c0,1-0.82,1.82-1.82,1.82h-32.92c-1,0-1.82-0.82-1.82-1.82v-30.44c0-1,0.82-1.82,1.82-1.82h32.92
		C863.76,333.7,864.58,334.52,864.58,335.52z"/>
	
		<radialGradient id="SVGID_00000088107613272991361740000006841751834612263585_" cx="958.0042" cy="333.2693" r="36.4568" gradientTransform="matrix(1.1723 0 0 1.1723 -288.7368 -69.4219)" gradientUnits="userSpaceOnUse">
		<stop  offset="0" style="stop-color:#605B51"/>
		<stop  offset="1" style="stop-color:#3A3331"/>
	</radialGradient>
	<circle style="fill:url(#SVGID_00000088107613272991361740000006841751834612263585_);" cx="846.3" cy="322.42" r="29.79"/>
	
		<linearGradient id="SVGID_00000008832820038240142560000000831444646038219928_" gradientUnits="userSpaceOnUse" x1="1713.9808" y1="-1006.6389" x2="1740.676" y2="-238.0194" gradientTransform="matrix(1.000000e-14 -0.8806 0.6843 -1.400000e-14 1355.8918 1959.0747)">
		<stop  offset="0.3279" style="stop-color:#605A51"/>
		<stop  offset="0.3936" style="stop-color:#222328"/>
	</linearGradient>
	<polygon style="fill:url(#SVGID_00000008832820038240142560000000831444646038219928_);" points="873.36,359.52 871.4,523.89 
		824.72,499.52 822.92,359.52 	"/>
	
		<linearGradient id="SVGID_00000047032631010807111400000018175155226919955622_" gradientUnits="userSpaceOnUse" x1="585.3884" y1="221.9653" x2="610.6441" y2="949.1379" gradientTransform="matrix(1 0 0 0.7617 0 110.1705)">
		<stop  offset="0.3154" style="stop-color:#605751"/>
		<stop  offset="0.359" style="stop-color:#262221"/>
	</linearGradient>
	<path style="fill:url(#SVGID_00000047032631010807111400000018175155226919955622_);" d="M947.24,489.49H241.05
		c-3.71,0-6.75-3.04-6.75-6.75v-23.02c0-3.71,3.04-6.75,6.75-6.75h706.19c3.71,0,6.75,3.04,6.75,6.75v23.02
		C953.99,486.45,950.95,489.49,947.24,489.49z"/>
	
		<linearGradient id="SVGID_00000023241327212924938150000013697992284560227461_" gradientUnits="userSpaceOnUse" x1="461.464" y1="781.1958" x2="814.6602" y2="765.4102">
		<stop  offset="0.3279" style="stop-color:#615152"/>
		<stop  offset="0.3936" style="stop-color:#222328"/>
	</linearGradient>
	<path style="fill:url(#SVGID_00000023241327212924938150000013697992284560227461_);" d="M593.4,838.11h-19
		c-3.06,0-5.57-2.51-5.57-5.57V718.91c0-3.06,2.51-5.57,5.57-5.57h19c3.06,0,5.57,2.51,5.57,5.57v113.63
		C598.97,835.6,596.46,838.11,593.4,838.11z"/>
	
		<linearGradient id="SVGID_00000179636544445851437840000009692800242754334353_" gradientUnits="userSpaceOnUse" x1="571.3896" y1="471.204" x2="925.106" y2="455.3951" gradientTransform="matrix(0.9333 -0.3592 0.403 1.0472 -128.7487 532.7378)">
		<stop  offset="0.3279" style="stop-color:#615152"/>
		<stop  offset="0.3936" style="stop-color:#222328"/>
	</linearGradient>
	<path style="fill:url(#SVGID_00000179636544445851437840000009692800242754334353_);" d="M740.65,833.09l-17.73,6.82
		c-2.86,1.1-6.1-0.34-7.2-3.2l-46.28-120.26c-1.1-2.86,0.34-6.1,3.2-7.2l17.73-6.82c2.86-1.1,6.1,0.34,7.2,3.2l46.28,120.26
		C744.95,828.75,743.51,831.99,740.65,833.09z"/>
	
		<linearGradient id="SVGID_00000037682712113894871960000017399256022286769818_" gradientUnits="userSpaceOnUse" x1="711.9196" y1="1181.0822" x2="1066.1544" y2="1165.2501" gradientTransform="matrix(0.7071 0.7071 -0.9027 0.9027 873.7824 -912.0566)">
		<stop  offset="0.3279" style="stop-color:#615152"/>
		<stop  offset="0.3936" style="stop-color:#222328"/>
	</linearGradient>
	<path style="fill:url(#SVGID_00000037682712113894871960000017399256022286769818_);" d="M353.2,802.43l-13.43-13.43
		c-2.17-2.17-2.17-5.71,0-7.88l104.75-104.75c2.17-2.17,5.71-2.17,7.88,0l13.43,13.43c2.17,2.17,2.17,5.71,0,7.88L361.08,802.43
		C358.91,804.59,355.36,804.59,353.2,802.43z"/>
	
		<linearGradient id="SVGID_00000161619651201368549050000003358709089194083502_" gradientUnits="userSpaceOnUse" x1="785.3179" y1="1266.8936" x2="1139.0342" y2="1251.0847" gradientTransform="matrix(0.7071 0.7071 -0.7934 0.7934 837.3286 -875.6028)">
		<stop  offset="0.3279" style="stop-color:#615152"/>
		<stop  offset="0.3936" style="stop-color:#222328"/>
	</linearGradient>
	<path style="fill:url(#SVGID_00000161619651201368549050000003358709089194083502_);" d="M435.72,823.45l-13.43-13.43
		c-2.17-2.17-2.17-5.71,0-7.88l91.12-91.12c2.17-2.17,5.71-2.17,7.88,0l13.43,13.43c2.17,2.17,2.17,5.71,0,7.88l-91.12,91.12
		C441.44,825.61,437.89,825.61,435.72,823.45z"/>
	
		<linearGradient id="SVGID_00000124156153643841373360000003985708337659351956_" gradientUnits="userSpaceOnUse" x1="741.0316" y1="57.4724" x2="1094.7479" y2="41.6636" gradientTransform="matrix(0.7071 -0.7071 0.7934 0.7934 140.3671 1322.0011)">
		<stop  offset="0.3279" style="stop-color:#615152"/>
		<stop  offset="0.3936" style="stop-color:#222328"/>
	</linearGradient>
	<path style="fill:url(#SVGID_00000124156153643841373360000003985708337659351956_);" d="M848.52,795.34l-13.43,13.43
		c-2.17,2.17-5.71,2.17-7.88,0l-91.12-91.12c-2.17-2.17-2.17-5.71,0-7.88l13.43-13.43c2.17-2.17,5.71-2.17,7.88,0l91.12,91.12
		C850.69,789.63,850.69,793.18,848.52,795.34z"/>
	
		<linearGradient id="SVGID_00000034090820814960241340000002577194822416106428_" gradientUnits="userSpaceOnUse" x1="622.7949" y1="273.6176" x2="976.7362" y2="257.7987" gradientTransform="matrix(0.7892 -0.6142 0.7274 0.9346 -98.3493 982.9785)">
		<stop  offset="0.3279" style="stop-color:#615152"/>
		<stop  offset="0.3936" style="stop-color:#222328"/>
	</linearGradient>
	<path style="fill:url(#SVGID_00000034090820814960241340000002577194822416106428_);" d="M737.88,828.2l-14.99,11.67
		c-2.42,1.88-5.94,1.44-7.82-0.97l-83.92-107.82c-1.88-2.42-1.44-5.94,0.98-7.82l14.99-11.67c2.42-1.88,5.94-1.44,7.82,0.97
		l83.92,107.82C740.74,822.8,740.3,826.32,737.88,828.2z"/>
	
		<linearGradient id="SVGID_00000018206927588282637360000000726039402404360860_" gradientUnits="userSpaceOnUse" x1="335.086" y1="811.0951" x2="857.5593" y2="811.0951">
		<stop  offset="0.3471" style="stop-color:#605A51"/>
		<stop  offset="0.8179" style="stop-color:#262221"/>
	</linearGradient>
	<path style="fill:url(#SVGID_00000018206927588282637360000000726039402404360860_);" d="M605.1,862.93
		c-133.04,0-260.38-56.45-270.01-63.97v-39.69c-0.11-0.08,14.74,12.22,14.56,12.1c8.85,5.63,129.96,57.61,259.83,56.55
		c129.08-1.01,247.05-59.36,248.08-59.85v36.22C853.17,806.38,759.37,862.93,605.1,862.93z"/>
	<polygon class="st23" points="722.56,504.32 487.63,504.32 246.72,488.69 942.15,488.69 	"/>
</g>
<g>
	
		<radialGradient id="SVGID_00000052809217616986437790000010210271748226868668_" cx="1514.0168" cy="599.5621" r="215.7974" gradientUnits="userSpaceOnUse">
		<stop  offset="0" style="stop-color:#8E7661"/>
		<stop  offset="1" style="stop-color:#3A3331"/>
	</radialGradient>
	<circle style="fill:url(#SVGID_00000052809217616986437790000010210271748226868668_);" cx="1612.63" cy="609.87" r="163.5"/>
	
		<linearGradient id="SVGID_00000138538528227464179650000016840487898378497210_" gradientUnits="userSpaceOnUse" x1="1467.9352" y1="302.5281" x2="1694.4167" y2="378.8962">
		<stop  offset="0.0653" style="stop-color:#776B57"/>
		<stop  offset="0.9112" style="stop-color:#262423"/>
	</linearGradient>
	<path style="fill:url(#SVGID_00000138538528227464179650000016840487898378497210_);" d="M1730.1,507.13h-234.93V204.12
		c0-6.6,5.4-12,12-12h210.93c6.6,0,12,5.4,12,12V507.13z"/>
	
		<linearGradient id="SVGID_00000028311851751186045320000008763308619320107175_" gradientUnits="userSpaceOnUse" x1="1683.0283" y1="330.3348" x2="1966.4877" y2="330.3348" gradientTransform="matrix(0.9893 -0.1458 0.1458 0.9893 -44.5873 308.2944)">
		<stop  offset="0.0829" style="stop-color:#998C7A"/>
		<stop  offset="0.7934" style="stop-color:#443B38"/>
	</linearGradient>
	<polygon style="fill:url(#SVGID_00000028311851751186045320000008763308619320107175_);" points="1946.84,364.05 1670.82,404.72 
		1670.98,374.1 1946.84,333.45 	"/>
	
		<linearGradient id="SVGID_00000047768750656379060530000016172301426609430414_" gradientUnits="userSpaceOnUse" x1="1689.5245" y1="286.2489" x2="1972.9839" y2="286.2489" gradientTransform="matrix(0.9893 -0.1458 0.1458 0.9893 -44.5873 308.2944)">
		<stop  offset="0.0986" style="stop-color:#998F7A"/>
		<stop  offset="0.8034" style="stop-color:#443A38"/>
	</linearGradient>
	<polygon style="fill:url(#SVGID_00000047768750656379060530000016172301426609430414_);" points="1946.84,319.49 1670.82,360.16 
		1670.98,329.53 1946.84,288.88 	"/>
	
		<linearGradient id="SVGID_00000128464617296491204140000010553442578418705283_" gradientUnits="userSpaceOnUse" x1="1696.0912" y1="241.6854" x2="1979.5507" y2="241.6854" gradientTransform="matrix(0.9893 -0.1458 0.1458 0.9893 -44.5873 308.2944)">
		<stop  offset="0.0829" style="stop-color:#998F7A"/>
		<stop  offset="0.8034" style="stop-color:#443B38"/>
	</linearGradient>
	<polygon style="fill:url(#SVGID_00000128464617296491204140000010553442578418705283_);" points="1946.84,274.44 1670.82,315.12 
		1670.98,284.49 1946.84,243.84 	"/>
	
		<radialGradient id="SVGID_00000138537830204903708130000002175794985392707513_" cx="2186.0518" cy="790.1044" r="234.5817" gradientTransform="matrix(0.3306 0 0 0.4069 1025.5162 252.0566)" gradientUnits="userSpaceOnUse">
		<stop  offset="0" style="stop-color:#896B55"/>
		<stop  offset="0.6917" style="stop-color:#3A3331"/>
	</radialGradient>
	
		<ellipse style="fill:url(#SVGID_00000138537830204903708130000002175794985392707513_);" cx="1769.91" cy="576.14" rx="54.05" ry="66.53"/>
	
		<linearGradient id="SVGID_00000050625690053162959150000008505338037280521119_" gradientUnits="userSpaceOnUse" x1="1969.6271" y1="697.7034" x2="1529.0195" y2="1363.682" gradientTransform="matrix(0.6227 -0.6227 0.4839 0.4839 381.8599 1289.8234)">
		<stop  offset="0.1698" style="stop-color:#605B51"/>
		<stop  offset="0.28" style="stop-color:#2D2726"/>
	</linearGradient>
	<polygon style="fill:url(#SVGID_00000050625690053162959150000008505338037280521119_);" points="2027.15,505.74 1922.65,610.23 
		1886.98,574.56 1991.48,470.07 	"/>
	
		<linearGradient id="SVGID_00000156559606712023665150000004000459068551347881_" gradientUnits="userSpaceOnUse" x1="1840.4452" y1="754.2476" x2="1859.4819" y2="1302.3599" gradientTransform="matrix(1.000000e-14 -0.8806 0.6843 -1.400000e-14 1355.8918 1959.0747)">
		<stop  offset="0.3279" style="stop-color:#605C51"/>
		<stop  offset="0.3936" style="stop-color:#222328"/>
	</linearGradient>
	<path style="fill:url(#SVGID_00000156559606712023665150000004000459068551347881_);" d="M2020.33,317.36v30.44
		c0,1-0.82,1.82-1.82,1.82h-32.92c-1,0-1.82-0.82-1.82-1.82v-30.44c0-1,0.82-1.82,1.82-1.82h32.92
		C2019.51,315.54,2020.33,316.36,2020.33,317.36z"/>
	
		<radialGradient id="SVGID_00000160153158865162905590000010560224079133735302_" cx="1943.9106" cy="317.782" r="36.4568" gradientTransform="matrix(1.1723 0 0 1.1723 -288.7368 -69.4219)" gradientUnits="userSpaceOnUse">
		<stop  offset="0" style="stop-color:#605B51"/>
		<stop  offset="1" style="stop-color:#3A3331"/>
	</radialGradient>
	<circle style="fill:url(#SVGID_00000160153158865162905590000010560224079133735302_);" cx="2002.05" cy="304.27" r="29.79"/>
	
		<linearGradient id="SVGID_00000060737718657500312940000012776621194506575266_" gradientUnits="userSpaceOnUse" x1="1734.598" y1="682.2972" x2="1761.2932" y2="1450.9167" gradientTransform="matrix(1.000000e-14 -0.8806 0.6843 -1.400000e-14 1355.8918 1959.0747)">
		<stop  offset="0.3279" style="stop-color:#605A51"/>
		<stop  offset="0.3936" style="stop-color:#222328"/>
	</linearGradient>
	<polygon style="fill:url(#SVGID_00000060737718657500312940000012776621194506575266_);" points="2029.11,341.37 2027.15,505.74 
		1980.47,481.37 1978.67,341.37 	"/>
	
		<linearGradient id="SVGID_00000129198416589651088990000004865131785892407190_" gradientUnits="userSpaceOnUse" x1="1812.053" y1="210.9312" x2="1837.3087" y2="938.1038" gradientTransform="matrix(1 0 0 0.7617 0 110.1705)">
		<stop  offset="0.3154" style="stop-color:#605751"/>
		<stop  offset="0.359" style="stop-color:#262221"/>
	</linearGradient>
	<path style="fill:url(#SVGID_00000129198416589651088990000004865131785892407190_);" d="M2173.9,481.08h-706.19
		c-3.71,0-6.75-3.04-6.75-6.75v-23.02c0-3.71,3.04-6.75,6.75-6.75h706.19c3.71,0,6.75,3.04,6.75,6.75v23.02
		C2180.65,478.05,2177.62,481.08,2173.9,481.08z"/>
	
		<linearGradient id="SVGID_00000030472203658276457460000001922228441208059793_" gradientUnits="userSpaceOnUse" x1="1563.6583" y1="744.64" x2="1916.8545" y2="728.8544">
		<stop  offset="0.3279" style="stop-color:#615152"/>
		<stop  offset="0.3936" style="stop-color:#222328"/>
	</linearGradient>
	<path style="fill:url(#SVGID_00000030472203658276457460000001922228441208059793_);" d="M1695.59,801.55h-19
		c-3.06,0-5.57-2.51-5.57-5.57V682.35c0-3.06,2.51-5.57,5.57-5.57h19c3.06,0,5.57,2.51,5.57,5.57v113.63
		C1701.16,799.05,1698.66,801.55,1695.59,801.55z"/>
	
		<linearGradient id="SVGID_00000083084028653704434390000000879727732810243471_" gradientUnits="userSpaceOnUse" x1="1613.1653" y1="793.6118" x2="1966.8817" y2="777.803" gradientTransform="matrix(0.9333 -0.3592 0.403 1.0472 -128.7487 532.7378)">
		<stop  offset="0.3279" style="stop-color:#615152"/>
		<stop  offset="0.3936" style="stop-color:#222328"/>
	</linearGradient>
	<path style="fill:url(#SVGID_00000083084028653704434390000000879727732810243471_);" d="M1842.84,796.53l-17.73,6.82
		c-2.86,1.1-6.1-0.34-7.2-3.2l-46.28-120.26c-1.1-2.86,0.34-6.1,3.2-7.2l17.73-6.82c2.86-1.1,6.1,0.34,7.2,3.2l46.28,120.26
		C1847.14,792.19,1845.7,795.43,1842.84,796.53z"/>
	
		<linearGradient id="SVGID_00000074425874308712832330000003228313823035592630_" gradientUnits="userSpaceOnUse" x1="1465.4399" y1="550.3414" x2="1819.6748" y2="534.5093" gradientTransform="matrix(0.7071 0.7071 -0.9027 0.9027 873.7824 -912.0566)">
		<stop  offset="0.3279" style="stop-color:#615152"/>
		<stop  offset="0.3936" style="stop-color:#222328"/>
	</linearGradient>
	<path style="fill:url(#SVGID_00000074425874308712832330000003228313823035592630_);" d="M1455.39,765.87l-13.43-13.43
		c-2.17-2.17-2.17-5.71,0-7.88l104.75-104.75c2.17-2.17,5.71-2.17,7.88,0l13.43,13.43c2.17,2.17,2.17,5.71,0,7.88l-104.75,104.75
		C1461.1,768.04,1457.56,768.04,1455.39,765.87z"/>
	
		<linearGradient id="SVGID_00000114756202219517976610000006098270446069647807_" gradientUnits="userSpaceOnUse" x1="1538.8383" y1="549.2717" x2="1892.5546" y2="533.4629" gradientTransform="matrix(0.7071 0.7071 -0.7934 0.7934 837.3286 -875.6028)">
		<stop  offset="0.3279" style="stop-color:#615152"/>
		<stop  offset="0.3936" style="stop-color:#222328"/>
	</linearGradient>
	<path style="fill:url(#SVGID_00000114756202219517976610000006098270446069647807_);" d="M1537.92,786.89l-13.43-13.43
		c-2.17-2.17-2.17-5.71,0-7.88l91.12-91.12c2.17-2.17,5.71-2.17,7.88,0l13.43,13.43c2.17,2.17,2.17,5.71,0,7.88l-91.12,91.12
		C1543.63,789.06,1540.08,789.06,1537.92,786.89z"/>
	
		<linearGradient id="SVGID_00000010310754914075672640000017267465237855539117_" gradientUnits="userSpaceOnUse" x1="1546.2494" y1="729.0207" x2="1899.9658" y2="713.2119" gradientTransform="matrix(0.7071 -0.7071 0.7934 0.7934 140.3671 1322.0011)">
		<stop  offset="0.3279" style="stop-color:#615152"/>
		<stop  offset="0.3936" style="stop-color:#222328"/>
	</linearGradient>
	<path style="fill:url(#SVGID_00000010310754914075672640000017267465237855539117_);" d="M1950.72,758.79l-13.43,13.43
		c-2.17,2.17-5.71,2.17-7.88,0l-91.12-91.12c-2.17-2.17-2.17-5.71,0-7.88l13.43-13.43c2.17-2.17,5.71-2.17,7.88,0l91.12,91.12
		C1952.88,753.08,1952.88,756.62,1950.72,758.79z"/>
	
		<linearGradient id="SVGID_00000112616772157438684570000008584846380798727328_" gradientUnits="userSpaceOnUse" x1="1515.0579" y1="820.8362" x2="1868.9991" y2="805.0173" gradientTransform="matrix(0.7892 -0.6142 0.7274 0.9346 -98.3493 982.9785)">
		<stop  offset="0.3279" style="stop-color:#615152"/>
		<stop  offset="0.3936" style="stop-color:#222328"/>
	</linearGradient>
	<path style="fill:url(#SVGID_00000112616772157438684570000008584846380798727328_);" d="M1840.08,791.64l-14.99,11.67
		c-2.42,1.88-5.94,1.44-7.82-0.98l-83.92-107.82c-1.88-2.42-1.44-5.94,0.97-7.82l14.99-11.67c2.42-1.88,5.94-1.44,7.82,0.98
		l83.92,107.82C1842.93,786.24,1842.49,789.76,1840.08,791.64z"/>
	
		<linearGradient id="SVGID_00000097500241021398291280000017139703737978584753_" gradientUnits="userSpaceOnUse" x1="1559.5712" y1="773.3669" x2="2082.0444" y2="773.3669">
		<stop  offset="0.3471" style="stop-color:#605A51"/>
		<stop  offset="0.8179" style="stop-color:#262221"/>
	</linearGradient>
	<path style="fill:url(#SVGID_00000097500241021398291280000017139703737978584753_);" d="M1829.58,825.2
		c-133.04,0-260.38-56.45-270.01-63.97v-39.69c-0.11-0.08,14.74,12.22,14.56,12.1c8.85,5.63,129.96,57.61,259.83,56.55
		c129.08-1.01,247.05-59.36,248.08-59.85v36.22C2077.66,768.65,1983.85,825.2,1829.58,825.2z"/>
	<polygon class="st23" points="1949.22,495.91 1714.3,495.91 1473.39,480.29 2168.82,480.29 	"/>
</g>
</svg>
