<?xml version="1.0" encoding="utf-8"?>
<!-- Generator: Adobe Illustrator 28.0.0, SVG Export Plug-In . SVG Version: 6.00 Build 0)  -->
<svg version="1.1" id="Шар_1" xmlns="http://www.w3.org/2000/svg" xmlns:xlink="http://www.w3.org/1999/xlink" x="0px" y="0px"
	 viewBox="0 0 1000 1000" style="enable-background:new 0 0 1000 1000;" xml:space="preserve">
<style type="text/css">
	.st0{fill:url(#SVGID_1_);}
	.st1{fill:#695850;}
	.st2{fill:#736258;}
	.st3{fill:#E6E6E6;}
	.st4{fill:#716358;}
	.st5{fill:#849696;}
	.st6{opacity:0.85;fill:#383838;}
	.st7{fill:#9B9B9B;}
	.st8{fill:#383838;}
	.st9{opacity:0.65;fill:#FFFFFF;}
	.st10{opacity:0.79;fill:#FFFFFF;}
	.st11{opacity:0.53;fill:#FFFFFF;}
	.st12{opacity:0.53;fill:#C3D7DA;}
	.st13{fill:#FFFFFF;}
	.st14{fill:none;stroke:#000000;stroke-width:9;stroke-miterlimit:10;}
	.st15{opacity:0.85;fill:none;stroke:#000000;stroke-width:9;stroke-miterlimit:10;}
	.st16{opacity:0.65;fill:none;stroke:#000000;stroke-width:9;stroke-miterlimit:10;}
	.st17{opacity:0.79;fill:none;stroke:#000000;stroke-width:9;stroke-miterlimit:10;}
	.st18{opacity:0.53;fill:none;stroke:#000000;stroke-width:9;stroke-miterlimit:10;}
</style>
<linearGradient id="SVGID_1_" gradientUnits="userSpaceOnUse" x1="497.9301" y1="242.3589" x2="504.01" y2="999.1432">
	<stop  offset="0" style="stop-color:#1B1C1E"/>
	<stop  offset="0.1404" style="stop-color:#1F2123"/>
	<stop  offset="0.3001" style="stop-color:#2C2E30"/>
	<stop  offset="0.4693" style="stop-color:#414547"/>
	<stop  offset="0.6451" style="stop-color:#5F6567"/>
	<stop  offset="0.824" style="stop-color:#848D90"/>
	<stop  offset="1" style="stop-color:#B0BCBF"/>
</linearGradient>
<rect x="0" y="0" class="st0" width="1000" height="1000"/>
<path class="st1" d="M147.31,373.47c7-10.31,9.8-27.62,6.38-46.14c-3.55-19.22-12.87-34.65-23.54-41.14l-1.1-5.61l-11.69,2.4
	c-0.48,0.05-0.95,0.14-1.43,0.22c-63.82,11-55.38,40.5-50.3,68.03c5.09,27.53,14.27,46.61,68.72,31.65l14.04-2.83l-1-6.22
	L147.31,373.47z"/>
<ellipse transform="matrix(0.982 -0.1887 0.1887 0.982 -59.9636 31.733)" class="st2" cx="136.65" cy="330.74" rx="37.22" ry="50.75"/>
<path class="st3" d="M470.85,307.07l-304.83,58.58c-22.15,4.26-43.56-10.25-47.82-32.4l0,0c-4.05-21.05,9.74-41.4,30.79-45.44
	l306.82-58.96L470.85,307.07z"/>
<path class="st4" d="M691.01,334.37l-232.56,44.69c-32.84,6.31-64.86-15.39-71.17-48.23l-15.42-80.22
	c-7.7-40.06,18.78-79.13,58.84-86.83l243.46-46.79l36.27,188.72C712.96,318.94,704.23,331.83,691.01,334.37z"/>
<path class="st3" d="M834.14,336.78l-162.63,31.25c-48.98,9.41-96.76-22.96-106.17-71.94l-18.12-94.31
	c-10.8-56.21,26.35-111.03,82.55-121.83L803.29,46.6l50.26,261.53C856.09,321.35,847.36,334.24,834.14,336.78z"/>
<path class="st1" d="M851.06,328.53c23.08-32.69,32.31-87.58,21.03-146.29c-11.71-60.95-42.43-109.87-77.61-130.45l-3.64-17.8
	l-38.55,7.61c-1.58,0.17-3.16,0.4-4.73,0.71c-52,9.99-80.56,88.85-63.79,176.12c16.77,87.27,72.53,149.92,124.53,139.93l46.28-8.98
	l-3.28-19.72L851.06,328.53z"/>
<ellipse transform="matrix(0.982 -0.1887 0.1887 0.982 -21.4816 158.4315)" class="st2" cx="821.2" cy="192.02" rx="95.88" ry="160.92"/>
<ellipse transform="matrix(0.982 -0.1887 0.1887 0.982 -21.4816 158.4315)" class="st5" cx="821.2" cy="192.02" rx="76.33" ry="128.11"/>
<path class="st6" d="M752.75,108.82c-11.06,26.03-14.38,61.54-7.18,99.01c8.76,45.58,30.88,82.73,56.75,100.64
	c32.46-13.67,65.95-40.58,51.82-125.87C838.11,85.94,777.93,82.53,752.75,108.82z"/>
<rect x="501.32" y="435.67" class="st7" width="21.09" height="223.82"/>
<path class="st8" d="M511.87,953.62L511.87,953.62c-10.09,0-18.27-8.18-18.27-18.27V652.46h36.55v282.89
	C530.14,945.44,521.96,953.62,511.87,953.62z"/>
<rect x="421.15" y="432.88" transform="matrix(0.8769 0.4806 -0.4806 0.8769 304.0728 -142.1544)" class="st7" width="16.92" height="179.55"/>
<path class="st8" d="M273.05,808.31L273.05,808.31c-7.1-3.89-9.7-12.8-5.81-19.9L376.32,589.4l25.71,14.09L292.95,802.5
	C289.06,809.6,280.15,812.2,273.05,808.31z"/>
<rect x="600.05" y="406.59" transform="matrix(0.8617 -0.5074 0.5074 0.8617 -175.4184 380.319)" class="st7" width="19.86" height="210.74"/>
<path class="st8" d="M803.97,841.39L803.97,841.39c-8.19,4.82-18.73,2.09-23.56-6.1L645.26,605.78l29.65-17.46l135.15,229.52
	C814.88,826.03,812.16,836.57,803.97,841.39z"/>
<path class="st3" d="M468.82,418.08l-23.6-122.82c-2.66-13.82,6.48-27.3,20.3-29.96l30.42-5.85c13.82-2.66,27.3,6.48,29.96,20.3
	l23.6,122.82c2.66,13.82-6.48,27.3-20.3,29.96l-30.42,5.85C484.96,441.04,471.48,431.9,468.82,418.08z"/>
<path class="st8" d="M552.87,439.89l-73.34,14.1c-16.1,3.09-31.8-7.55-34.89-23.64v0c-3.09-16.1,7.55-31.8,23.64-34.89l73.34-14.1
	c16.1-3.09,31.8,7.55,34.89,23.64v0C579.61,421.1,568.97,436.8,552.87,439.89z"/>
<circle class="st8" cx="488.4" cy="302.29" r="23.9"/>
<path class="st9" d="M895.99,177.76c-4.63-24.12-12.93-46.19-23.62-63.98c0.69,35.03,21.69,113.9-11.81,154.61
	c-28.38,34.49-69.92,12.54-91.84,2.19c21.75,37.9,49.48,52.59,76.49,47.4C886.61,310.02,909.34,247.25,895.99,177.76z"/>
<path class="st10" d="M763.48,171.91c0,0-16.58-16.84-6.23-45.71c6.98-19.48,25.34-21.73,25.34-21.73s-10.87,13.49-14.99,33.72
	C765.73,147.37,763.48,171.91,763.48,171.91z"/>
<ellipse class="st11" cx="846.59" cy="228.83" rx="11.77" ry="18.78"/>
<ellipse class="st12" cx="794.85" cy="162.2" rx="6.98" ry="11.73"/>
<g>
	<path class="st13" d="M786.22,206.89c0,8.21-6.66,14.87-14.87,14.87c8.21,0,14.87,6.66,14.87,14.87c0-8.21,6.66-14.87,14.87-14.87
		C792.88,221.75,786.22,215.1,786.22,206.89z"/>
</g>
<g>
	<path class="st13" d="M792.32,125.99c0,3.37-2.73,6.1-6.1,6.1c3.37,0,6.1,2.73,6.1,6.1c0-3.37,2.73-6.1,6.1-6.1
		C795.05,132.09,792.32,129.36,792.32,125.99z"/>
</g>
<g>
	<path class="st13" d="M821.34,176.04c0,4.83-3.92,8.75-8.75,8.75c4.83,0,8.75,3.92,8.75,8.75c0-4.83,3.92-8.75,8.75-8.75
		C825.26,184.79,821.34,180.88,821.34,176.04z"/>
</g>
<rect x="1437.66" y="-11.43" class="st13" width="1000" height="1000"/>
<path class="st14" d="M1591.38,373.47c7-10.31,9.8-27.62,6.38-46.14c-3.55-19.22-12.87-34.65-23.54-41.14l-1.1-5.61l-11.69,2.4
	c-0.48,0.05-0.95,0.14-1.43,0.22c-63.82,11-55.38,40.5-50.3,68.03c5.09,27.53,14.27,46.61,68.72,31.65l14.04-2.83l-1-6.22
	L1591.38,373.47z"/>
<ellipse transform="matrix(0.982 -0.1887 0.1887 0.982 -34.014 304.2632)" class="st14" cx="1580.72" cy="330.74" rx="37.22" ry="50.75"/>
<path class="st14" d="M1914.91,307.07l-304.83,58.58c-22.15,4.26-43.56-10.25-47.82-32.4v0c-4.05-21.05,9.74-41.4,30.79-45.44
	l306.82-58.96L1914.91,307.07z"/>
<path class="st14" d="M2135.07,334.37l-232.56,44.69c-32.84,6.31-64.86-15.39-71.17-48.23l-15.42-80.22
	c-7.7-40.06,18.78-79.13,58.84-86.83l243.46-46.79l36.27,188.72C2157.03,318.94,2148.29,331.83,2135.07,334.37z"/>
<path class="st14" d="M2278.2,336.78l-162.63,31.25c-48.98,9.41-96.76-22.96-106.17-71.94l-18.12-94.31
	c-10.8-56.21,26.35-111.03,82.55-121.83l173.53-33.35l50.26,261.53C2300.16,321.35,2291.42,334.24,2278.2,336.78z"/>
<path class="st14" d="M2295.12,328.53c23.08-32.69,32.31-87.58,21.03-146.29c-11.71-60.95-42.44-109.87-77.61-130.45l-3.64-17.8
	l-38.55,7.61c-1.58,0.17-3.16,0.4-4.73,0.71c-52,9.99-80.56,88.85-63.79,176.12c16.77,87.27,72.53,149.92,124.53,139.93l46.28-8.98
	l-3.28-19.72L2295.12,328.53z"/>
<ellipse transform="matrix(0.982 -0.1887 0.1887 0.982 4.4681 430.9616)" class="st14" cx="2265.27" cy="192.02" rx="95.88" ry="160.92"/>
<ellipse transform="matrix(0.982 -0.1887 0.1887 0.982 4.4681 430.9616)" class="st14" cx="2265.27" cy="192.02" rx="76.33" ry="128.11"/>
<path class="st15" d="M2196.81,108.82c-11.06,26.03-14.38,61.54-7.18,99.01c8.76,45.58,30.88,82.73,56.75,100.64
	c32.46-13.67,65.95-40.58,51.82-125.87C2282.18,85.94,2221.99,82.53,2196.81,108.82z"/>
<rect x="1945.39" y="435.67" class="st14" width="21.09" height="223.82"/>
<path class="st14" d="M1955.93,953.62L1955.93,953.62c-10.09,0-18.27-8.18-18.27-18.27V652.46h36.55v282.89
	C1974.21,945.44,1966.03,953.62,1955.93,953.62z"/>
<rect x="1865.21" y="432.88" transform="matrix(0.8769 0.4806 -0.4806 0.8769 481.7952 -836.201)" class="st14" width="16.92" height="179.55"/>
<path class="st14" d="M1717.12,808.31L1717.12,808.31c-7.1-3.89-9.7-12.8-5.81-19.9l109.07-199.01l25.71,14.09L1737.02,802.5
	C1733.13,809.6,1724.22,812.2,1717.12,808.31z"/>
<rect x="2044.11" y="406.59" transform="matrix(0.8617 -0.5074 0.5074 0.8617 24.2971 1113.0663)" class="st14" width="19.86" height="210.74"/>
<path class="st14" d="M2248.03,841.39L2248.03,841.39c-8.19,4.82-18.73,2.09-23.56-6.1l-135.15-229.52l29.65-17.46l135.15,229.52
	C2258.95,826.03,2256.22,836.57,2248.03,841.39z"/>
<path class="st14" d="M1912.89,418.08l-23.6-122.82c-2.66-13.82,6.48-27.3,20.3-29.96l30.42-5.85c13.82-2.66,27.3,6.48,29.96,20.3
	l23.6,122.82c2.66,13.82-6.48,27.3-20.3,29.96l-30.42,5.85C1929.03,441.04,1915.55,431.9,1912.89,418.08z"/>
<path class="st14" d="M1996.94,439.89l-73.34,14.1c-16.1,3.09-31.8-7.55-34.89-23.64v0c-3.09-16.1,7.55-31.8,23.64-34.89l73.34-14.1
	c16.1-3.09,31.8,7.55,34.89,23.64v0C2023.68,421.1,2013.04,436.8,1996.94,439.89z"/>
<circle class="st14" cx="1932.47" cy="302.29" r="23.9"/>
<path class="st16" d="M2340.06,177.76c-4.63-24.12-12.93-46.19-23.62-63.98c0.69,35.03,21.69,113.9-11.81,154.61
	c-28.38,34.49-69.92,12.54-91.84,2.19c21.75,37.9,49.48,52.59,76.49,47.4C2330.67,310.02,2353.41,247.25,2340.06,177.76z"/>
<path class="st17" d="M2207.54,171.91c0,0-16.58-16.84-6.23-45.71c6.98-19.48,25.34-21.73,25.34-21.73s-10.87,13.49-14.99,33.72
	C2209.79,147.37,2207.54,171.91,2207.54,171.91z"/>
<ellipse class="st18" cx="2290.66" cy="228.83" rx="11.77" ry="18.78"/>
<ellipse class="st18" cx="2238.91" cy="162.2" rx="6.98" ry="11.73"/>
<g>
	<path class="st14" d="M2230.29,206.89c0,8.21-6.66,14.87-14.87,14.87c8.21,0,14.87,6.66,14.87,14.87c0-8.21,6.66-14.87,14.87-14.87
		C2236.95,221.75,2230.29,215.1,2230.29,206.89z"/>
</g>
<g>
	<path class="st14" d="M2236.39,125.99c0,3.37-2.73,6.1-6.1,6.1c3.37,0,6.1,2.73,6.1,6.1c0-3.37,2.73-6.1,6.1-6.1
		C2239.12,132.09,2236.39,129.36,2236.39,125.99z"/>
</g>
<g>
	<path class="st14" d="M2265.41,176.04c0,4.83-3.92,8.75-8.75,8.75c4.83,0,8.75,3.92,8.75,8.75c0-4.83,3.92-8.75,8.75-8.75
		C2269.33,184.79,2265.41,180.88,2265.41,176.04z"/>
</g>
</svg>
